<?xml version='1.0' encoding='UTF-8' standalone='no'?>
<!-- Created with Fritzing (http://www.fritzing.org/) -->
<svg xmlns:svg='http://www.w3.org/2000/svg' xmlns='http://www.w3.org/2000/svg' version='1.2' baseProfile='tiny' x='0in' y='0in' width='1.90235in' height='2.28745in' viewBox='0 0 136.969 164.696' >
<g partID='169910'><g transform='translate(0,121.623)' ><g id="schematic">
<line class="other" stroke="#000000" stroke-linecap="round" y1="7.54999" x1="0.36" y2="7.54999" stroke-width="0.72" x2="14.76"/>
<line class="other" stroke="#000000" stroke-linecap="round" y1="10.43" x1="7.56" y2="14.75" stroke-width="0.432" x2="7.56"/>
<path class="other" fill="none" stroke="#000000" stroke-width="0.72" d="M7.56,10.3846A11.4922,11.4922,0,0,1,14.616,12.806"/>
<path class="other" fill="none" stroke="#000000" stroke-width="0.72" d="M0.567213,12.7952A11.5191,11.5191,0,0,1,7.56,10.4303"/>
<rect width="2.52" x="1.17354" y="5.29645" class="other" fill="#000000" height="0.36" stroke="none" stroke-linecap="round" stroke-width="0"/>
<rect width="0.36" x="2.25354" y="4.21645" class="other" fill="#000000" height="2.52" stroke="none" stroke-linecap="round" stroke-width="0"/>
<line class="pin" connectorname="+" stroke="#787878" id="connector1pin" stroke-linecap="round" y1="0.349999" x1="7.56" y2="7.54999" stroke-width="0.699999" x2="7.56"/>
<g width="0.000283465" x="7.56" y="0.349999" class="terminal" fill="none" height="0.000283465" stroke="none" id="connector1terminal" stroke-width="0"/>
<g transform="matrix(1, 0, 0, 1, 6.50999, 3.94999)">
<g>
<g transform="rotate(270)">
<g>
<text x="0" y="0" class="text" font-family="'Droid Sans'" fill="#8c8c8c" text-anchor="middle" stroke="none" stroke-width="0" font-size="2.5">2</text>
</g>
</g>
</g>
</g>
<line class="pin" connectorname="-" stroke="#787878" id="connector0pin" stroke-linecap="round" y1="21.95" x1="7.56" y2="14.75" stroke-width="0.699999" x2="7.56"/>
<g width="0.000283465" x="7.56" y="21.95" class="terminal" fill="none" height="0.000283465" stroke="none" id="connector0terminal" stroke-width="0"/>
<g transform="matrix(1, 0, 0, 1, 6.50999, 18.35)">
<g>
<g transform="rotate(270)">
<g>
<text x="0" y="0" class="text" font-family="'Droid Sans'" fill="#8c8c8c" text-anchor="middle" stroke="none" stroke-width="0" font-size="2.5">1</text>
</g>
</g>
</g>
</g>
</g>
</g></g><g partID='165410'><g transform='translate(28.8,121.623)' ><g id="schematic">
<line class="other" stroke="#000000" stroke-linecap="round" y1="7.54999" x1="0.36" y2="7.54999" stroke-width="0.72" x2="14.76"/>
<line class="other" stroke="#000000" stroke-linecap="round" y1="10.43" x1="7.56" y2="14.75" stroke-width="0.432" x2="7.56"/>
<path class="other" fill="none" stroke="#000000" stroke-width="0.72" d="M7.56,10.3846A11.4922,11.4922,0,0,1,14.616,12.806"/>
<path class="other" fill="none" stroke="#000000" stroke-width="0.72" d="M0.567213,12.7952A11.5191,11.5191,0,0,1,7.56,10.4303"/>
<rect width="2.52" x="1.17354" y="5.29645" class="other" fill="#000000" height="0.36" stroke="none" stroke-linecap="round" stroke-width="0"/>
<rect width="0.36" x="2.25354" y="4.21645" class="other" fill="#000000" height="2.52" stroke="none" stroke-linecap="round" stroke-width="0"/>
<line class="pin" connectorname="+" stroke="#787878" id="connector1pin" stroke-linecap="round" y1="0.349999" x1="7.56" y2="7.54999" stroke-width="0.699999" x2="7.56"/>
<g width="0.000283465" x="7.56" y="0.349999" class="terminal" fill="none" height="0.000283465" stroke="none" id="connector1terminal" stroke-width="0"/>
<g transform="matrix(1, 0, 0, 1, 6.50999, 3.94999)">
<g>
<g transform="rotate(270)">
<g>
<text x="0" y="0" class="text" font-family="'Droid Sans'" fill="#8c8c8c" text-anchor="middle" stroke="none" stroke-width="0" font-size="2.5">2</text>
</g>
</g>
</g>
</g>
<line class="pin" connectorname="-" stroke="#787878" id="connector0pin" stroke-linecap="round" y1="21.95" x1="7.56" y2="14.75" stroke-width="0.699999" x2="7.56"/>
<g width="0.000283465" x="7.56" y="21.95" class="terminal" fill="none" height="0.000283465" stroke="none" id="connector0terminal" stroke-width="0"/>
<g transform="matrix(1, 0, 0, 1, 6.50999, 18.35)">
<g>
<g transform="rotate(270)">
<g>
<text x="0" y="0" class="text" font-family="'Droid Sans'" fill="#8c8c8c" text-anchor="middle" stroke="none" stroke-width="0" font-size="2.5">1</text>
</g>
</g>
</g>
</g>
</g>
</g></g><g partID='169150'><g transform='translate(93.9593,150.296)' ><g xmlns="http://www.w3.org/2000/svg" id="schematic">
<path fill="none" xmlns="http://www.w3.org/2000/svg" stroke="#787878" id="connector0pin" stroke-linecap="round" stroke-width="0.75" d="M7.201,7.575l0,-7.2"/>
<g width="0.945" x="6.728" y="0" fill="none" xmlns="http://www.w3.org/2000/svg" height="0.953" id="connector0terminal"/>
<path fill="none" xmlns="http://www.w3.org/2000/svg" stroke="#000000" id="path4098" stroke-linecap="round" stroke-width="0.9" d="M0.5,7.711L13.9,7.711"/>
<path fill="none" xmlns="http://www.w3.org/2000/svg" stroke="#000000" id="path4100" stroke-linecap="round" stroke-width="0.9" d="M2.732,10.456l8.935,0"/>
<path fill="none" xmlns="http://www.w3.org/2000/svg" stroke="#000000" id="path4102" stroke-linecap="round" stroke-width="0.9" d="M9.431,13.175L4.967,13.175"/>
</g>
</g></g><g partID='160190'><g transform='translate(29.1597,150.296)' ><g xmlns="http://www.w3.org/2000/svg" id="schematic">
<path fill="none" xmlns="http://www.w3.org/2000/svg" stroke="#787878" id="connector0pin" stroke-linecap="round" stroke-width="0.75" d="M7.201,7.575l0,-7.2"/>
<g width="0.945" x="6.728" y="0" fill="none" xmlns="http://www.w3.org/2000/svg" height="0.953" id="connector0terminal"/>
<path fill="none" xmlns="http://www.w3.org/2000/svg" stroke="#000000" id="path4098" stroke-linecap="round" stroke-width="0.9" d="M0.5,7.711L13.9,7.711"/>
<path fill="none" xmlns="http://www.w3.org/2000/svg" stroke="#000000" id="path4100" stroke-linecap="round" stroke-width="0.9" d="M2.732,10.456l8.935,0"/>
<path fill="none" xmlns="http://www.w3.org/2000/svg" stroke="#000000" id="path4102" stroke-linecap="round" stroke-width="0.9" d="M9.431,13.175L4.967,13.175"/>
</g>
</g></g><g partID='160370'><g transform='translate(29.1786,0)' ><g id="schematic">
<line fill="none" stroke="#787878" id="connector0pin" stroke-linecap="round" y1="6.78" stroke-width="0.75" x1="7.2" y2="13.98" x2="7.2" stroke-miterlimit="10"/>
<g fill="none" points="6.817,13.567,7.546,13.546,7.546,14.4,6.859,14.359" id="connector0terminal"/>
<path fill="none" stroke="#000000" stroke-linecap="round" stroke-width="0.9" d="M0.45,6.564l13.5,0"/>
<g transform="matrix(1, 0, 0, 1, 1.4985, 4.9878)">
<text font-family="'DroidSans'" id="label" font-size="4.4991">5V</text>
</g>
</g>
</g></g><g partID='157920'><g transform='translate(91.2593,71.3563)' ><g id="schematic">
<g>
<path d="M13.5,14.966L9.9,14.966c-0.193,0,-0.35,-0.156,-0.35,-0.35s0.156,-0.35,0.35,-0.35L13.5,14.266c0.193,0,0.35,0.156,0.35,0.35S13.694,14.966,13.5,14.966z"/>
</g>
<g>
<path d="M9.9,14.966L6.3,14.966c-0.193,0,-0.35,-0.156,-0.35,-0.35s0.157,-0.35,0.35,-0.35l3.6,0c0.193,0,0.35,0.156,0.35,0.35S10.093,14.966,9.9,14.966z"/>
</g>
<g>
<polygon fill="#FFFFFF" points="9.9,14.616,6.3,7.416,9.9,7.416,13.5,7.416"/>
<path d="M9.9,15.398L5.734,7.066l8.333,0L9.9,15.398zM6.866,7.766L9.9,13.834l3.034,-6.068L6.866,7.766z"/>
</g>
<g>
<path d="M9.9,14.841c-0.124,0,-0.225,-0.101,-0.225,-0.225l0,-7.2c0,-0.124,0.101,-0.225,0.225,-0.225s0.225,0.101,0.225,0.225l0,7.2C10.124,14.74,10.024,14.841,9.9,14.841z"/>
</g>
<g>
<path d="M1.8,12.141c-0.058,0,-0.115,-0.021,-0.159,-0.065c-0.088,-0.088,-0.088,-0.23,0,-0.318l2.34,-2.341c0.088,-0.088,0.23,-0.088,0.318,0s0.088,0.23,0,0.318l-2.34,2.341C1.915,12.12,1.858,12.141,1.8,12.141z"/>
</g>
<g>
<path d="M2.16,15.381c-0.058,0,-0.115,-0.021,-0.159,-0.065c-0.088,-0.088,-0.088,-0.23,0,-0.318l2.34,-2.34c0.088,-0.088,0.23,-0.088,0.318,0s0.088,0.23,0,0.318l-2.34,2.34C2.276,15.359,2.218,15.381,2.16,15.381z"/>
</g>
<g id="connector0pin">
<path fill="#787878" d="M9.9,22.166c-0.193,0,-0.35,-0.156,-0.35,-0.35l0,-7.2c0,-0.193,0.156,-0.35,0.35,-0.35s0.35,0.156,0.35,0.35l0,7.2C10.249,22.01,10.093,22.166,9.9,22.166z"/>
</g>
<g id="connector0terminal">
<rect width="0.001" x="9.9" y="21.816" fill="none" height="0.001"/>
</g>
<g transform="matrix(1, 0, 0, 1, 3.429, 6.4262)">
<g>
<g transform="rotate(270)">
<g>
<g enable-background="new    ">
<path fill="#787878" d="M-11.647,5.54l-0.891,0L-12.538,5.388l0.342,-0.372c0.049,-0.053,0.093,-0.101,0.131,-0.145s0.071,-0.086,0.099,-0.128c0.026,-0.042,0.047,-0.084,0.062,-0.125c0.015,-0.043,0.021,-0.088,0.021,-0.138c0,-0.038,-0.005,-0.072,-0.017,-0.102s-0.027,-0.054,-0.047,-0.075c-0.021,-0.02,-0.045,-0.035,-0.073,-0.046s-0.06,-0.016,-0.094,-0.016c-0.062,0,-0.118,0.013,-0.167,0.038c-0.051,0.024,-0.098,0.057,-0.143,0.096l-0.1,-0.116c0.025,-0.023,0.055,-0.046,0.084,-0.065c0.029,-0.021,0.063,-0.039,0.097,-0.054s0.071,-0.026,0.109,-0.036c0.038,-0.008,0.079,-0.013,0.121,-0.013c0.063,0,0.119,0.009,0.169,0.026c0.051,0.018,0.094,0.043,0.129,0.076c0.035,0.032,0.063,0.072,0.082,0.119c0.019,0.048,0.028,0.101,0.028,0.16c0,0.056,-0.009,0.108,-0.026,0.158c-0.017,0.05,-0.041,0.1,-0.07,0.148c-0.031,0.048,-0.066,0.097,-0.109,0.146c-0.041,0.049,-0.087,0.1,-0.136,0.152L-12.32,5.37l0,0.008l0.673,0L-11.647,5.54z"/>
</g>
</g>
</g>
</g>
</g>
<g id="connector1pin">
<path fill="#787878" d="M9.9,7.766c-0.193,0,-0.35,-0.157,-0.35,-0.35l0,-7.2c0,-0.193,0.156,-0.35,0.35,-0.35s0.35,0.157,0.35,0.35l0,7.2C10.249,7.609,10.093,7.766,9.9,7.766z"/>
</g>
<g id="connector1terminal">
<polygon fill="none" points="9.9,0.216,9.901,0.216,9.901,0.216"/>
</g>
<g transform="matrix(1, 0, 0, 1, 3.429, 1.3462)">
<g>
<g transform="rotate(270)">
<g>
<g enable-background="new    ">
<path fill="#787878" d="M-2.616,5.54l-0.172,0L-2.788,4.648c0,-0.028,0,-0.058,0,-0.09s0.001,-0.063,0.002,-0.095c0.001,-0.032,0.002,-0.063,0.003,-0.092c0.001,-0.028,0.002,-0.054,0.002,-0.076c-0.011,0.012,-0.021,0.021,-0.029,0.03s-0.017,0.017,-0.026,0.024s-0.018,0.016,-0.028,0.025c-0.01,0.008,-0.021,0.019,-0.035,0.03l-0.145,0.118l-0.094,-0.12l0.374,-0.292l0.146,0L-2.618,5.54z"/>
</g>
</g>
</g>
</g>
</g>
<g>
<path d="M0.18,13.536l1.08,-2.521l1.44,1.438L0.18,13.536z"/>
</g>
<g>
<path d="M0.54,16.776l1.08,-2.521l1.438,1.438L0.54,16.776z"/>
</g>
</g>
</g></g><g partID='152020'><g transform='translate(26.4597,71.3563)' ><g id="schematic">
<g>
<path d="M13.5,14.966L9.9,14.966c-0.193,0,-0.35,-0.156,-0.35,-0.35s0.156,-0.35,0.35,-0.35L13.5,14.266c0.193,0,0.35,0.156,0.35,0.35S13.694,14.966,13.5,14.966z"/>
</g>
<g>
<path d="M9.9,14.966L6.3,14.966c-0.193,0,-0.35,-0.156,-0.35,-0.35s0.157,-0.35,0.35,-0.35l3.6,0c0.193,0,0.35,0.156,0.35,0.35S10.093,14.966,9.9,14.966z"/>
</g>
<g>
<polygon fill="#FFFFFF" points="9.9,14.616,6.3,7.416,9.9,7.416,13.5,7.416"/>
<path d="M9.9,15.398L5.734,7.066l8.333,0L9.9,15.398zM6.866,7.766L9.9,13.834l3.034,-6.068L6.866,7.766z"/>
</g>
<g>
<path d="M9.9,14.841c-0.124,0,-0.225,-0.101,-0.225,-0.225l0,-7.2c0,-0.124,0.101,-0.225,0.225,-0.225s0.225,0.101,0.225,0.225l0,7.2C10.124,14.74,10.024,14.841,9.9,14.841z"/>
</g>
<g>
<path d="M1.8,12.141c-0.058,0,-0.115,-0.021,-0.159,-0.065c-0.088,-0.088,-0.088,-0.23,0,-0.318l2.34,-2.341c0.088,-0.088,0.23,-0.088,0.318,0s0.088,0.23,0,0.318l-2.34,2.341C1.915,12.12,1.858,12.141,1.8,12.141z"/>
</g>
<g>
<path d="M2.16,15.381c-0.058,0,-0.115,-0.021,-0.159,-0.065c-0.088,-0.088,-0.088,-0.23,0,-0.318l2.34,-2.34c0.088,-0.088,0.23,-0.088,0.318,0s0.088,0.23,0,0.318l-2.34,2.34C2.276,15.359,2.218,15.381,2.16,15.381z"/>
</g>
<g id="connector0pin">
<path fill="#787878" d="M9.9,22.166c-0.193,0,-0.35,-0.156,-0.35,-0.35l0,-7.2c0,-0.193,0.156,-0.35,0.35,-0.35s0.35,0.156,0.35,0.35l0,7.2C10.249,22.01,10.093,22.166,9.9,22.166z"/>
</g>
<g id="connector0terminal">
<rect width="0.001" x="9.9" y="21.816" fill="none" height="0.001"/>
</g>
<g transform="matrix(1, 0, 0, 1, 3.429, 6.4262)">
<g>
<g transform="rotate(270)">
<g>
<g enable-background="new    ">
<path fill="#787878" d="M-11.647,5.54l-0.891,0L-12.538,5.388l0.342,-0.372c0.049,-0.053,0.093,-0.101,0.131,-0.145s0.071,-0.086,0.099,-0.128c0.026,-0.042,0.047,-0.084,0.062,-0.125c0.015,-0.043,0.021,-0.088,0.021,-0.138c0,-0.038,-0.005,-0.072,-0.017,-0.102s-0.027,-0.054,-0.047,-0.075c-0.021,-0.02,-0.045,-0.035,-0.073,-0.046s-0.06,-0.016,-0.094,-0.016c-0.062,0,-0.118,0.013,-0.167,0.038c-0.051,0.024,-0.098,0.057,-0.143,0.096l-0.1,-0.116c0.025,-0.023,0.055,-0.046,0.084,-0.065c0.029,-0.021,0.063,-0.039,0.097,-0.054s0.071,-0.026,0.109,-0.036c0.038,-0.008,0.079,-0.013,0.121,-0.013c0.063,0,0.119,0.009,0.169,0.026c0.051,0.018,0.094,0.043,0.129,0.076c0.035,0.032,0.063,0.072,0.082,0.119c0.019,0.048,0.028,0.101,0.028,0.16c0,0.056,-0.009,0.108,-0.026,0.158c-0.017,0.05,-0.041,0.1,-0.07,0.148c-0.031,0.048,-0.066,0.097,-0.109,0.146c-0.041,0.049,-0.087,0.1,-0.136,0.152L-12.32,5.37l0,0.008l0.673,0L-11.647,5.54z"/>
</g>
</g>
</g>
</g>
</g>
<g id="connector1pin">
<path fill="#787878" d="M9.9,7.766c-0.193,0,-0.35,-0.157,-0.35,-0.35l0,-7.2c0,-0.193,0.156,-0.35,0.35,-0.35s0.35,0.157,0.35,0.35l0,7.2C10.249,7.609,10.093,7.766,9.9,7.766z"/>
</g>
<g id="connector1terminal">
<polygon fill="none" points="9.9,0.216,9.901,0.216,9.901,0.216"/>
</g>
<g transform="matrix(1, 0, 0, 1, 3.429, 1.3462)">
<g>
<g transform="rotate(270)">
<g>
<g enable-background="new    ">
<path fill="#787878" d="M-2.616,5.54l-0.172,0L-2.788,4.648c0,-0.028,0,-0.058,0,-0.09s0.001,-0.063,0.002,-0.095c0.001,-0.032,0.002,-0.063,0.003,-0.092c0.001,-0.028,0.002,-0.054,0.002,-0.076c-0.011,0.012,-0.021,0.021,-0.029,0.03s-0.017,0.017,-0.026,0.024s-0.018,0.016,-0.028,0.025c-0.01,0.008,-0.021,0.019,-0.035,0.03l-0.145,0.118l-0.094,-0.12l0.374,-0.292l0.146,0L-2.618,5.54z"/>
</g>
</g>
</g>
</g>
</g>
<g>
<path d="M0.18,13.536l1.08,-2.521l1.44,1.438L0.18,13.536z"/>
</g>
<g>
<path d="M0.54,16.776l1.08,-2.521l1.438,1.438L0.54,16.776z"/>
</g>
</g>
</g></g><g partID='158160'><g transform='translate(62.8393,13.5208)' ><g transform='matrix(0,1,-1,0,0,0)'  ><g gorn="0.1" xmlns="http://www.w3.org/2000/svg" id="schematic">
<rect width="8" x="50.7584" y="0.104" gorn="0.1.0" xmlns="http://www.w3.org/2000/svg" height="1.6" id="connector0pin"/>
<rect width="8" x="50.7584" y="25.7048" gorn="0.1.1" xmlns="http://www.w3.org/2000/svg" height="1.6" id="connector1pin"/>
<rect width="8" x="0.5848" y="0.1072" gorn="0.1.2" xmlns="http://www.w3.org/2000/svg" height="1.6" id="connector2pin"/>
<rect width="8" x="0.5848" y="25.708" gorn="0.1.3" xmlns="http://www.w3.org/2000/svg" height="1.6" id="connector3pin"/>
<g width="0.5472" x="58.672" y="0.5304" gorn="0.1.4" xmlns="http://www.w3.org/2000/svg" height="0.6928" id="connector0terminal"/>
<g width="0.5472" x="58.672" y="26.1312" gorn="0.1.5" xmlns="http://www.w3.org/2000/svg" height="0.6928" id="connector1terminal"/>
<g width="0.5504" x="0.1768" y="0.5328" gorn="0.1.6" xmlns="http://www.w3.org/2000/svg" height="0.6928" id="connector2terminal"/>
<g width="0.5504" x="0.1768" y="26.1328" gorn="0.1.7" xmlns="http://www.w3.org/2000/svg" height="0.6928" id="connector3terminal"/>
<path fill="none" xmlns="http://www.w3.org/2000/svg" stroke="#000000" stroke-linecap="round" stroke-width="1.6" d="M5.7048,13.6928"/>
<path fill="none" xmlns="http://www.w3.org/2000/svg" stroke="#000000" stroke-linecap="round" stroke-width="1.6" d="M20.0272,13.6928"/>
<polyline fill="none" points="58.6384,0.8928,48.1928,0.8928,48.1928,26.4928,58.6384,26.4928" xmlns="http://www.w3.org/2000/svg" stroke="#000000" stroke-linejoin="round" stroke-linecap="round" stroke-width="1.6"/>
<line fill="none" xmlns="http://www.w3.org/2000/svg" stroke="#000000" stroke-linecap="round" y1="13.6928" stroke-width="1.6" x1="39.3928" y2="13.6928" x2="48.1928"/>
<polyline fill="none" points="0.7824,26.4928,11.2272,26.4928,11.2272,0.8928,0.7824,0.8928" xmlns="http://www.w3.org/2000/svg" stroke="#000000" stroke-linejoin="round" stroke-linecap="round" stroke-width="1.6"/>
<polyline fill="none" points="38.196,6.0304,20.0272,13.6928,11.2272,13.6928" xmlns="http://www.w3.org/2000/svg" stroke="#000000" stroke-linecap="round" stroke-width="1.6"/>
</g>
</g></g></g><g partID='152460'><g transform='translate(127.639,92.7208)' ><g transform='matrix(0,1,-1,0,0,0)'  ><g gorn="0.1" xmlns="http://www.w3.org/2000/svg" id="schematic">
<rect width="8" x="50.7584" y="0.104" gorn="0.1.0" xmlns="http://www.w3.org/2000/svg" height="1.6" id="connector0pin"/>
<rect width="8" x="50.7584" y="25.7048" gorn="0.1.1" xmlns="http://www.w3.org/2000/svg" height="1.6" id="connector1pin"/>
<rect width="8" x="0.5848" y="0.1072" gorn="0.1.2" xmlns="http://www.w3.org/2000/svg" height="1.6" id="connector2pin"/>
<rect width="8" x="0.5848" y="25.708" gorn="0.1.3" xmlns="http://www.w3.org/2000/svg" height="1.6" id="connector3pin"/>
<g width="0.5472" x="58.672" y="0.5304" gorn="0.1.4" xmlns="http://www.w3.org/2000/svg" height="0.6928" id="connector0terminal"/>
<g width="0.5472" x="58.672" y="26.1312" gorn="0.1.5" xmlns="http://www.w3.org/2000/svg" height="0.6928" id="connector1terminal"/>
<g width="0.5504" x="0.1768" y="0.5328" gorn="0.1.6" xmlns="http://www.w3.org/2000/svg" height="0.6928" id="connector2terminal"/>
<g width="0.5504" x="0.1768" y="26.1328" gorn="0.1.7" xmlns="http://www.w3.org/2000/svg" height="0.6928" id="connector3terminal"/>
<path fill="none" xmlns="http://www.w3.org/2000/svg" stroke="#000000" stroke-linecap="round" stroke-width="1.6" d="M5.7048,13.6928"/>
<path fill="none" xmlns="http://www.w3.org/2000/svg" stroke="#000000" stroke-linecap="round" stroke-width="1.6" d="M20.0272,13.6928"/>
<polyline fill="none" points="58.6384,0.8928,48.1928,0.8928,48.1928,26.4928,58.6384,26.4928" xmlns="http://www.w3.org/2000/svg" stroke="#000000" stroke-linejoin="round" stroke-linecap="round" stroke-width="1.6"/>
<line fill="none" xmlns="http://www.w3.org/2000/svg" stroke="#000000" stroke-linecap="round" y1="13.6928" stroke-width="1.6" x1="39.3928" y2="13.6928" x2="48.1928"/>
<polyline fill="none" points="0.7824,26.4928,11.2272,26.4928,11.2272,0.8928,0.7824,0.8928" xmlns="http://www.w3.org/2000/svg" stroke="#000000" stroke-linejoin="round" stroke-linecap="round" stroke-width="1.6"/>
<polyline fill="none" points="38.196,6.0304,20.0272,13.6928,11.2272,13.6928" xmlns="http://www.w3.org/2000/svg" stroke="#000000" stroke-linecap="round" stroke-width="1.6"/>
</g>
</g></g></g><g partID='157980'><g transform='translate(98.0637,71.923)' ><g transform='matrix(0,-1,1,0,0,0)'  ><g xmlns="http://www.w3.org/2000/svg" id="schematic">
<line class="other" xmlns="http://www.w3.org/2000/svg" stroke="#000000" stroke-linecap="round" y1="3.096" x1="7.55002" y2="0.216" stroke-width="0.432002" x2="8.63003"/>
<line class="other" xmlns="http://www.w3.org/2000/svg" stroke="#000000" stroke-linecap="round" y1="0.216" x1="8.63003" y2="5.976" stroke-width="0.432002" x2="10.43"/>
<line class="other" xmlns="http://www.w3.org/2000/svg" stroke="#000000" stroke-linecap="round" y1="5.976" x1="10.43" y2="0.216" stroke-width="0.432002" x2="12.23"/>
<line class="other" xmlns="http://www.w3.org/2000/svg" stroke="#000000" stroke-linecap="round" y1="0.216" x1="12.23" y2="5.976" stroke-width="0.432002" x2="14.03"/>
<line class="other" xmlns="http://www.w3.org/2000/svg" stroke="#000000" stroke-linecap="round" y1="5.976" x1="14.03" y2="0.216" stroke-width="0.432002" x2="15.8301"/>
<line class="other" xmlns="http://www.w3.org/2000/svg" stroke="#000000" stroke-linecap="round" y1="0.216" x1="15.8301" y2="5.976" stroke-width="0.432002" x2="17.6301"/>
<line class="other" xmlns="http://www.w3.org/2000/svg" stroke="#000000" stroke-linecap="round" y1="5.976" x1="17.6301" y2="0.216" stroke-width="0.432002" x2="19.4301"/>
<line class="other" xmlns="http://www.w3.org/2000/svg" stroke="#000000" stroke-linecap="round" y1="0.216" x1="19.4301" y2="5.976" stroke-width="0.432002" x2="21.2301"/>
<line class="other" xmlns="http://www.w3.org/2000/svg" stroke="#000000" stroke-linecap="round" y1="5.976" x1="21.2301" y2="3.096" stroke-width="0.432002" x2="21.9501"/>
<line class="pin" xmlns="http://www.w3.org/2000/svg" connectorname="2" stroke="#787878" id="connector1pin" stroke-linecap="round" y1="3.096" x1="29.1502" y2="3.096" stroke-width="0.700001" x2="21.9501"/>
<g width="0.000283466" x="29.1502" y="3.096" class="terminal" fill="none" xmlns="http://www.w3.org/2000/svg" height="0.000283465" stroke="none" id="connector1terminal" stroke-width="0"/>
<text x="25.5501" y="2.046" class="text" font-family="'Droid Sans'" fill="#8c8c8c" xmlns="http://www.w3.org/2000/svg" text-anchor="middle" stroke="none" stroke-width="0" font-size="2.50001">2</text>
<line class="pin" xmlns="http://www.w3.org/2000/svg" connectorname="1" stroke="#787878" id="connector0pin" stroke-linecap="round" y1="3.096" x1="0.350001" y2="3.096" stroke-width="0.700001" x2="7.55002"/>
<g width="0.000283466" x="0.350001" y="3.096" class="terminal" fill="none" xmlns="http://www.w3.org/2000/svg" height="0.000283465" stroke="none" id="connector0terminal" stroke-width="0"/>
<text x="3.95001" y="2.046" class="text" font-family="'Droid Sans'" fill="#8c8c8c" xmlns="http://www.w3.org/2000/svg" text-anchor="middle" stroke="none" stroke-width="0" font-size="2.50001">1</text>
</g>
</g></g></g><g partID='156210'><g transform='translate(33.264,122.323)' ><g transform='matrix(0,-1,1,0,0,0)'  ><g xmlns="http://www.w3.org/2000/svg" id="schematic">
<line class="other" xmlns="http://www.w3.org/2000/svg" stroke="#000000" stroke-linecap="round" y1="3.096" x1="7.55002" y2="0.216" stroke-width="0.432002" x2="8.63003"/>
<line class="other" xmlns="http://www.w3.org/2000/svg" stroke="#000000" stroke-linecap="round" y1="0.216" x1="8.63003" y2="5.976" stroke-width="0.432002" x2="10.43"/>
<line class="other" xmlns="http://www.w3.org/2000/svg" stroke="#000000" stroke-linecap="round" y1="5.976" x1="10.43" y2="0.216" stroke-width="0.432002" x2="12.23"/>
<line class="other" xmlns="http://www.w3.org/2000/svg" stroke="#000000" stroke-linecap="round" y1="0.216" x1="12.23" y2="5.976" stroke-width="0.432002" x2="14.03"/>
<line class="other" xmlns="http://www.w3.org/2000/svg" stroke="#000000" stroke-linecap="round" y1="5.976" x1="14.03" y2="0.216" stroke-width="0.432002" x2="15.8301"/>
<line class="other" xmlns="http://www.w3.org/2000/svg" stroke="#000000" stroke-linecap="round" y1="0.216" x1="15.8301" y2="5.976" stroke-width="0.432002" x2="17.6301"/>
<line class="other" xmlns="http://www.w3.org/2000/svg" stroke="#000000" stroke-linecap="round" y1="5.976" x1="17.6301" y2="0.216" stroke-width="0.432002" x2="19.4301"/>
<line class="other" xmlns="http://www.w3.org/2000/svg" stroke="#000000" stroke-linecap="round" y1="0.216" x1="19.4301" y2="5.976" stroke-width="0.432002" x2="21.2301"/>
<line class="other" xmlns="http://www.w3.org/2000/svg" stroke="#000000" stroke-linecap="round" y1="5.976" x1="21.2301" y2="3.096" stroke-width="0.432002" x2="21.9501"/>
<line class="pin" xmlns="http://www.w3.org/2000/svg" connectorname="2" stroke="#787878" id="connector1pin" stroke-linecap="round" y1="3.096" x1="29.1502" y2="3.096" stroke-width="0.700001" x2="21.9501"/>
<g width="0.000283466" x="29.1502" y="3.096" class="terminal" fill="none" xmlns="http://www.w3.org/2000/svg" height="0.000283465" stroke="none" id="connector1terminal" stroke-width="0"/>
<text x="25.5501" y="2.046" class="text" font-family="'Droid Sans'" fill="#8c8c8c" xmlns="http://www.w3.org/2000/svg" text-anchor="middle" stroke="none" stroke-width="0" font-size="2.50001">2</text>
<line class="pin" xmlns="http://www.w3.org/2000/svg" connectorname="1" stroke="#787878" id="connector0pin" stroke-linecap="round" y1="3.096" x1="0.350001" y2="3.096" stroke-width="0.700001" x2="7.55002"/>
<g width="0.000283466" x="0.350001" y="3.096" class="terminal" fill="none" xmlns="http://www.w3.org/2000/svg" height="0.000283465" stroke="none" id="connector0terminal" stroke-width="0"/>
<text x="3.95001" y="2.046" class="text" font-family="'Droid Sans'" fill="#8c8c8c" xmlns="http://www.w3.org/2000/svg" text-anchor="middle" stroke="none" stroke-width="0" font-size="2.50001">1</text>
</g>
</g></g></g><g partID='169870'><line stroke-linecap='round' stroke='#a37911' x1='36.3617' y1='72.4664' x2='36.3602' y2='71.5723' stroke-width='0.4' /></g><g partID='169890'><line stroke-linecap='round' stroke='#33ffc5' x1='36.3602' y1='93.1728' x2='36.3601' y2='93.1726' stroke-width='0.4' /></g><g partID='168560'><line stroke-linecap='round' stroke='#404040' x1='36.3601' y1='13.9728' x2='36.3601' y2='13.9728' stroke-width='0.699998' /></g><g partID='169030'><line stroke-linecap='round' stroke='#404040' x1='101.16' y1='71.5728' x2='101.16' y2='71.5723' stroke-width='0.699998' /></g><g partID='169260'><line stroke-linecap='round' stroke='#404040' x1='36.3602' y1='150.773' x2='36.3601' y2='143.573' stroke-width='0.699998' /></g><circle  fill="black" cx="36.3601" cy="143.573" r="1.44" stroke-width="0" stroke="none" /><g partID='169300'><line stroke-linecap='round' stroke='#404040' x1='101.16' y1='93.1728' x2='101.16' y2='93.1728' stroke-width='0.699998' /></g><g partID='169360'><line stroke-linecap='round' stroke='#404040' x1='36.3601' y1='121.973' x2='36.3601' y2='121.973' stroke-width='0.699998' /></g><circle  fill="black" cx="36.3601" cy="121.973" r="1.44" stroke-width="0" stroke="none" /><g partID='169610'><line stroke-linecap='round' stroke='#404040' x1='79.4657' y1='121.907' x2='79.4657' y2='42.7918' stroke-width='0.699998' /></g><g partID='169520'><line stroke-linecap='round' stroke='#404040' x1='79.4657' y1='42.792' x2='101.16' y2='42.7727' stroke-width='0.699998' /></g><g partID='169460'><line stroke-linecap='round' stroke='#404040' x1='36.3601' y1='121.973' x2='79.4657' y2='121.907' stroke-width='0.699998' /></g><circle  fill="black" cx="36.3601" cy="121.973" r="1.44" stroke-width="0" stroke="none" /><g partID='169720'><line stroke-linecap='round' stroke='#404040' x1='101.16' y1='150.773' x2='101.162' y2='151.666' stroke-width='0.699998' /></g><g partID='170210'><line stroke-linecap='round' stroke='#404040' x1='7.56014' y1='143.573' x2='36.3601' y2='143.573' stroke-width='0.699998' /></g><circle  fill="black" cx="36.3601" cy="143.573" r="1.44" stroke-width="0" stroke="none" /><g partID='170920'><line stroke-linecap='round' stroke='#404040' x1='36.3601' y1='121.973' x2='7.56014' y2='121.973' stroke-width='0.699998' /></g><circle  fill="black" cx="36.3601" cy="121.973" r="1.44" stroke-width="0" stroke="none" /><g partID='152460' id='partLabel'><g transform='translate(129.769,119.426)' ><g font-size='5' font-style='normal' font-weight='normal' fill='#000000' font-family="'DroidSans'" id='schematicLabel' fill-opacity='1' stroke='none' ><text x='0' y='3.75'>S2</text></g></g></g><g partID='158160' id='partLabel'><g transform='translate(66.1417,40.3816)' ><g font-size='5' font-style='normal' font-weight='normal' fill='#000000' font-family="'DroidSans'" id='schematicLabel' fill-opacity='1' stroke='none' ><text x='0' y='3.75'>S1</text></g></g></g><g partID='157980' id='partLabel'><g transform='translate(105.705,52.0837)' ><g font-size='5' font-style='normal' font-weight='normal' fill='#000000' font-family="'DroidSans'" id='schematicLabel' fill-opacity='1' stroke='none' ><text x='0' y='3.75'>R2</text><text x='0' y='8.75'>150&#x3a9;</text></g></g></g><g partID='156210' id='partLabel'><g transform='translate(41.0521,101.342)' ><g font-size='5' font-style='normal' font-weight='normal' fill='#000000' font-family="'DroidSans'" id='schematicLabel' fill-opacity='1' stroke='none' ><text x='0' y='3.75'>R1</text><text x='0' y='8.75'>150&#x3a9;</text></g></g></g><g partID='165410' id='partLabel'><g transform='translate(45.3605,129.484)' ><g font-size='5' font-style='normal' font-weight='normal' fill='#000000' font-family="'DroidSans'" id='schematicLabel' fill-opacity='1' stroke='none' ><text x='0' y='3.75'>C1</text></g></g></g><g partID='169910' id='partLabel'><g transform='translate(16.5604,129.07)' ><g font-size='5' font-style='normal' font-weight='normal' fill='#000000' font-family="'DroidSans'" id='schematicLabel' fill-opacity='1' stroke='none' ><text x='0' y='3.75'>C2</text></g></g></g><g partID='152020' id='partLabel'><g transform='translate(41.4161,78.4056)' ><g font-size='9' font-style='normal' font-weight='normal' fill='#000000' font-family="'DroidSans'" id='schematicLabel' fill-opacity='1' stroke='none' ><text x='0' y='6.75'>LED1</text></g></g></g><g partID='157920' id='partLabel'><g transform='translate(105.616,78.411)' ><g font-size='9' font-style='normal' font-weight='normal' fill='#000000' font-family="'DroidSans'" id='schematicLabel' fill-opacity='1' stroke='none' ><text x='0' y='6.75'>LED2</text></g></g></g></svg>