<?xml version='1.0' encoding='UTF-8' standalone='no'?>
<!-- Created with Fritzing (http://www.fritzing.org/) -->
<svg xmlns:svg='http://www.w3.org/2000/svg' xmlns='http://www.w3.org/2000/svg' version='1.2' baseProfile='tiny' x='0in' y='0in' width='1.92883in' height='3.99546in' viewBox='0 0 138.876 287.673' >
<g partID='165410'><g transform='translate(0,220.343)' ><g xmlns="http://www.w3.org/2000/svg" id="schematic">
<g xmlns="http://www.w3.org/2000/svg">
<rect width="1.375" x="15.989" y="30.102" xmlns="http://www.w3.org/2000/svg" height="13.589" id="connector0pin"/>
<rect width="1.375" x="15.989" y="0.398" xmlns="http://www.w3.org/2000/svg" height="13.578" id="connector1pin"/>
<g width="0.75" x="16.292" y="0" xmlns="http://www.w3.org/2000/svg" height="0.799" id="connector1terminal"/>
<g width="0.75" x="16.292" y="43.032" xmlns="http://www.w3.org/2000/svg" height="0.8" id="connector0terminal"/>
</g>
<line fill="none" xmlns="http://www.w3.org/2000/svg" stroke="#000000" stroke-linecap="round" y1="0.852" stroke-width="2.4" x1="16.616" y2="18.477" x2="16.616"/>
<line fill="none" xmlns="http://www.w3.org/2000/svg" stroke="#000000" stroke-linecap="round" y1="18.852" stroke-width="2.4" x1="1.366" y2="18.852" x2="31.366"/>
<line fill="none" xmlns="http://www.w3.org/2000/svg" stroke="#000000" stroke-linecap="round" y1="24.616" stroke-width="2.4" x1="16.616" y2="43.227" x2="16.616"/>
<line fill="none" xmlns="http://www.w3.org/2000/svg" stroke="#000000" y1="11.928" stroke-width="1" x1="24.688" y2="11.928" x2="31.313"/>
<line fill="none" xmlns="http://www.w3.org/2000/svg" stroke="#000000" y1="8.616" stroke-width="1" x1="28" y2="15.241" x2="28"/>
<path fill="none" xmlns="http://www.w3.org/2000/svg" stroke="#000000" stroke-linecap="round" stroke-width="2.4" d="M1.732,29.247c4.079,-3.221,9.23,-5.143,14.83,-5.143c5.495,0,10.559,1.851,14.6,4.963"/>
</g>
</g></g><g partID='169150'><g transform='translate(94.097,263.394)' ><g xmlns="http://www.w3.org/2000/svg" id="schematic">
<path fill="none" xmlns="http://www.w3.org/2000/svg" stroke="#000000" id="connector0pin" stroke-width="1.92" d="M8.9712,17.008L8.9712,0"/>
<g width="0.756" x="8.592" fill="none" xmlns="http://www.w3.org/2000/svg" height="0.7624" id="connector0terminal"/>
<path fill="none" xmlns="http://www.w3.org/2000/svg" stroke="#000000" id="path4098" stroke-width="1.92" d="M0,17.008l17.9408,0"/>
<path fill="none" xmlns="http://www.w3.org/2000/svg" stroke="#000000" id="path4100" stroke-width="1.92" d="M2.9888,20.164l11.9616,0"/>
<path fill="none" xmlns="http://www.w3.org/2000/svg" stroke="#000000" id="path4102" stroke-width="1.92" d="M11.956,23.3184L5.9808,23.3184"/>
</g>
</g></g><g partID='160190'><g transform='translate(7.697,263.394)' ><g xmlns="http://www.w3.org/2000/svg" id="schematic">
<path fill="none" xmlns="http://www.w3.org/2000/svg" stroke="#000000" id="connector0pin" stroke-width="1.92" d="M8.9712,17.008L8.9712,0"/>
<g width="0.756" x="8.592" fill="none" xmlns="http://www.w3.org/2000/svg" height="0.7624" id="connector0terminal"/>
<path fill="none" xmlns="http://www.w3.org/2000/svg" stroke="#000000" id="path4098" stroke-width="1.92" d="M0,17.008l17.9408,0"/>
<path fill="none" xmlns="http://www.w3.org/2000/svg" stroke="#000000" id="path4100" stroke-width="1.92" d="M2.9888,20.164l11.9616,0"/>
<path fill="none" xmlns="http://www.w3.org/2000/svg" stroke="#000000" id="path4102" stroke-width="1.92" d="M11.956,23.3184L5.9808,23.3184"/>
</g>
</g></g><g partID='160370'><g transform='translate(3.9122,0)' ><g xmlns="http://www.w3.org/2000/svg" id="schematic">
<rect width="2.39977" x="11.5549" y="15.739" fill="#000000" xmlns="http://www.w3.org/2000/svg" height="10.836" stroke="none" id="connector0pin" stroke-width="0"/>
<g width="0" x="12.7548" y="25.775" xmlns="http://www.w3.org/2000/svg" height="0.8" id="connector0terminal"/>
<path fill="none" xmlns="http://www.w3.org/2000/svg" stroke="#000000" stroke-width="2.39977" d="M0,15.739l25.5096,0"/>
<text x="1.49986" y="10.75" fill="#000000" font-family="Droid Sans" xmlns="http://www.w3.org/2000/svg" id="label" font-size="8.99915">5V</text>
</g>
</g></g><g partID='157920'><g transform='translate(92.315,141.757)' ><g xmlns="http://www.w3.org/2000/svg" id="schematic">
<g width="0.208" x="10.632" y="0.525" xmlns="http://www.w3.org/2000/svg" height="0.208" id="connector1terminal"/>
<g width="0.208" x="10.648" y="64.314" xmlns="http://www.w3.org/2000/svg" height="0.207" id="connector0terminal"/>
<rect width="1.375" x="10.028" y="0.421" xmlns="http://www.w3.org/2000/svg" height="10.339" id="connector1pin"/>
<rect width="1.375" x="10.028" y="53" xmlns="http://www.w3.org/2000/svg" height="11.767" id="connector0pin"/>
<line fill="none" xmlns="http://www.w3.org/2000/svg" stroke="#000000" stroke-linecap="round" y1="41.171" stroke-width="2.4" x1="10.752" y2="64.123" x2="10.752"/>
<line fill="none" xmlns="http://www.w3.org/2000/svg" stroke="#000000" stroke-linecap="round" y1="41.683" stroke-width="2.4" x1="21.171" y2="41.683" x2="0.333"/>
<line fill="none" xmlns="http://www.w3.org/2000/svg" stroke="#000000" stroke-linecap="round" y1="0.731" stroke-width="2.4" x1="10.752" y2="22.393" x2="10.752"/>
<polygon fill="none" points="10.752,41.638,5.486,32.515,0.218,23.393,10.752,23.393,21.285,23.393,16.02,32.515" xmlns="http://www.w3.org/2000/svg" stroke="#000000" stroke-linejoin="round" stroke-linecap="round" stroke-width="2.4"/>
<path xmlns="http://www.w3.org/2000/svg" d="M27.775,47.148l2.558,-2.037l1.465,-1.169l1.091,-0.871l3.461,9.58L27.775,47.148L27.775,47.148z"/>
<path xmlns="http://www.w3.org/2000/svg" d="M21.226,52.138l2.556,-2.039l1.464,-1.168l1.09,-0.87l3.469,9.581L21.226,52.138L21.226,52.138z"/>
<line fill="none" xmlns="http://www.w3.org/2000/svg" stroke="#000000" stroke-linecap="round" y1="37.577" stroke-width="2.4" x1="24.281" y2="48.061" x2="32.948"/>
<line fill="none" xmlns="http://www.w3.org/2000/svg" stroke="#000000" stroke-linecap="round" y1="45.54" stroke-width="2.4" x1="19.948" y2="52.274" x2="25.515"/>
</g>
</g></g><g partID='152020'><g transform='translate(5.915,91.3575)' ><g xmlns="http://www.w3.org/2000/svg" id="schematic">
<g width="0.208" x="10.632" y="0.525" xmlns="http://www.w3.org/2000/svg" height="0.208" id="connector1terminal"/>
<g width="0.208" x="10.648" y="64.314" xmlns="http://www.w3.org/2000/svg" height="0.207" id="connector0terminal"/>
<rect width="1.375" x="10.028" y="0.421" xmlns="http://www.w3.org/2000/svg" height="10.339" id="connector1pin"/>
<rect width="1.375" x="10.028" y="53" xmlns="http://www.w3.org/2000/svg" height="11.767" id="connector0pin"/>
<line fill="none" xmlns="http://www.w3.org/2000/svg" stroke="#000000" stroke-linecap="round" y1="41.171" stroke-width="2.4" x1="10.752" y2="64.123" x2="10.752"/>
<line fill="none" xmlns="http://www.w3.org/2000/svg" stroke="#000000" stroke-linecap="round" y1="41.683" stroke-width="2.4" x1="21.171" y2="41.683" x2="0.333"/>
<line fill="none" xmlns="http://www.w3.org/2000/svg" stroke="#000000" stroke-linecap="round" y1="0.731" stroke-width="2.4" x1="10.752" y2="22.393" x2="10.752"/>
<polygon fill="none" points="10.752,41.638,5.486,32.515,0.218,23.393,10.752,23.393,21.285,23.393,16.02,32.515" xmlns="http://www.w3.org/2000/svg" stroke="#000000" stroke-linejoin="round" stroke-linecap="round" stroke-width="2.4"/>
<path xmlns="http://www.w3.org/2000/svg" d="M27.775,47.148l2.558,-2.037l1.465,-1.169l1.091,-0.871l3.461,9.58L27.775,47.148L27.775,47.148z"/>
<path xmlns="http://www.w3.org/2000/svg" d="M21.226,52.138l2.556,-2.039l1.464,-1.168l1.09,-0.87l3.469,9.581L21.226,52.138L21.226,52.138z"/>
<line fill="none" xmlns="http://www.w3.org/2000/svg" stroke="#000000" stroke-linecap="round" y1="37.577" stroke-width="2.4" x1="24.281" y2="48.061" x2="32.948"/>
<line fill="none" xmlns="http://www.w3.org/2000/svg" stroke="#000000" stroke-linecap="round" y1="45.54" stroke-width="2.4" x1="19.948" y2="52.274" x2="25.515"/>
</g>
</g></g><g partID='158160'><g transform='translate(43.1462,25.723)' ><g transform='matrix(0,1,-1,0,0,0)'  ><g gorn="0.1" xmlns="http://www.w3.org/2000/svg" id="schematic">
<rect width="8" x="50.7584" y="0.104" gorn="0.1.0" xmlns="http://www.w3.org/2000/svg" height="1.6" id="connector0pin"/>
<rect width="8" x="50.7584" y="25.7048" gorn="0.1.1" xmlns="http://www.w3.org/2000/svg" height="1.6" id="connector1pin"/>
<rect width="8" x="0.5848" y="0.1072" gorn="0.1.2" xmlns="http://www.w3.org/2000/svg" height="1.6" id="connector2pin"/>
<rect width="8" x="0.5848" y="25.708" gorn="0.1.3" xmlns="http://www.w3.org/2000/svg" height="1.6" id="connector3pin"/>
<g width="0.5472" x="58.672" y="0.5304" gorn="0.1.4" xmlns="http://www.w3.org/2000/svg" height="0.6928" id="connector0terminal"/>
<g width="0.5472" x="58.672" y="26.1312" gorn="0.1.5" xmlns="http://www.w3.org/2000/svg" height="0.6928" id="connector1terminal"/>
<g width="0.5504" x="0.1768" y="0.5328" gorn="0.1.6" xmlns="http://www.w3.org/2000/svg" height="0.6928" id="connector2terminal"/>
<g width="0.5504" x="0.1768" y="26.1328" gorn="0.1.7" xmlns="http://www.w3.org/2000/svg" height="0.6928" id="connector3terminal"/>
<path fill="none" xmlns="http://www.w3.org/2000/svg" stroke="#000000" stroke-linecap="round" stroke-width="1.6" d="M5.7048,13.6928"/>
<path fill="none" xmlns="http://www.w3.org/2000/svg" stroke="#000000" stroke-linecap="round" stroke-width="1.6" d="M20.0272,13.6928"/>
<polyline fill="none" points="58.6384,0.8928,48.1928,0.8928,48.1928,26.4928,58.6384,26.4928" xmlns="http://www.w3.org/2000/svg" stroke="#000000" stroke-linejoin="round" stroke-linecap="round" stroke-width="1.6"/>
<line fill="none" xmlns="http://www.w3.org/2000/svg" stroke="#000000" stroke-linecap="round" y1="13.6928" stroke-width="1.6" x1="39.3928" y2="13.6928" x2="48.1928"/>
<polyline fill="none" points="0.7824,26.4928,11.2272,26.4928,11.2272,0.8928,0.7824,0.8928" xmlns="http://www.w3.org/2000/svg" stroke="#000000" stroke-linejoin="round" stroke-linecap="round" stroke-width="1.6"/>
<polyline fill="none" points="38.196,6.0304,20.0272,13.6928,11.2272,13.6928" xmlns="http://www.w3.org/2000/svg" stroke="#000000" stroke-linecap="round" stroke-width="1.6"/>
</g>
</g></g></g><g partID='152460'><g transform='translate(129.546,205.723)' ><g transform='matrix(0,1,-1,0,0,0)'  ><g gorn="0.1" xmlns="http://www.w3.org/2000/svg" id="schematic">
<rect width="8" x="50.7584" y="0.104" gorn="0.1.0" xmlns="http://www.w3.org/2000/svg" height="1.6" id="connector0pin"/>
<rect width="8" x="50.7584" y="25.7048" gorn="0.1.1" xmlns="http://www.w3.org/2000/svg" height="1.6" id="connector1pin"/>
<rect width="8" x="0.5848" y="0.1072" gorn="0.1.2" xmlns="http://www.w3.org/2000/svg" height="1.6" id="connector2pin"/>
<rect width="8" x="0.5848" y="25.708" gorn="0.1.3" xmlns="http://www.w3.org/2000/svg" height="1.6" id="connector3pin"/>
<g width="0.5472" x="58.672" y="0.5304" gorn="0.1.4" xmlns="http://www.w3.org/2000/svg" height="0.6928" id="connector0terminal"/>
<g width="0.5472" x="58.672" y="26.1312" gorn="0.1.5" xmlns="http://www.w3.org/2000/svg" height="0.6928" id="connector1terminal"/>
<g width="0.5504" x="0.1768" y="0.5328" gorn="0.1.6" xmlns="http://www.w3.org/2000/svg" height="0.6928" id="connector2terminal"/>
<g width="0.5504" x="0.1768" y="26.1328" gorn="0.1.7" xmlns="http://www.w3.org/2000/svg" height="0.6928" id="connector3terminal"/>
<path fill="none" xmlns="http://www.w3.org/2000/svg" stroke="#000000" stroke-linecap="round" stroke-width="1.6" d="M5.7048,13.6928"/>
<path fill="none" xmlns="http://www.w3.org/2000/svg" stroke="#000000" stroke-linecap="round" stroke-width="1.6" d="M20.0272,13.6928"/>
<polyline fill="none" points="58.6384,0.8928,48.1928,0.8928,48.1928,26.4928,58.6384,26.4928" xmlns="http://www.w3.org/2000/svg" stroke="#000000" stroke-linejoin="round" stroke-linecap="round" stroke-width="1.6"/>
<line fill="none" xmlns="http://www.w3.org/2000/svg" stroke="#000000" stroke-linecap="round" y1="13.6928" stroke-width="1.6" x1="39.3928" y2="13.6928" x2="48.1928"/>
<polyline fill="none" points="0.7824,26.4928,11.2272,26.4928,11.2272,0.8928,0.7824,0.8928" xmlns="http://www.w3.org/2000/svg" stroke="#000000" stroke-linejoin="round" stroke-linecap="round" stroke-width="1.6"/>
<polyline fill="none" points="38.196,6.0304,20.0272,13.6928,11.2272,13.6928" xmlns="http://www.w3.org/2000/svg" stroke="#000000" stroke-linecap="round" stroke-width="1.6"/>
</g>
</g></g></g><g partID='157980'><g transform='translate(109.452,149.324)' ><g transform='matrix(-1,0,0,-1,0,0)'  ><g xmlns="http://www.w3.org/2000/svg" id="schematic">
<rect width="1.893" x="5.474" y="1.089" xmlns="http://www.w3.org/2000/svg" height="9.783" id="connector0pin"/>
<g width="0.866" x="5.952" y="0.406" xmlns="http://www.w3.org/2000/svg" height="0.686" id="connector0terminal"/>
<rect width="1.894" x="5.477" y="54.369" xmlns="http://www.w3.org/2000/svg" height="9.783" id="connector1pin"/>
<g width="0.866" x="5.956" y="64.082" xmlns="http://www.w3.org/2000/svg" height="0.688" id="connector1terminal"/>
<g xmlns="http://www.w3.org/2000/svg">
<polyline fill="#FFFFFF" points="6.405,1.132,6.405,20.392,9.905,22.255,2.655,26.291,9.905,30.324,2.655,34.359,9.905,38.392,2.655,42.427,6.405,44.599,6.405,63.861" xmlns="http://www.w3.org/2000/svg" stroke="#000000" stroke-linecap="round" stroke-width="2.2284"/>
</g>
</g>
</g></g></g><g partID='156210'><g transform='translate(23.052,221.324)' ><g transform='matrix(-1,0,0,-1,0,0)'  ><g xmlns="http://www.w3.org/2000/svg" id="schematic">
<rect width="1.893" x="5.474" y="1.089" xmlns="http://www.w3.org/2000/svg" height="9.783" id="connector0pin"/>
<g width="0.866" x="5.952" y="0.406" xmlns="http://www.w3.org/2000/svg" height="0.686" id="connector0terminal"/>
<rect width="1.894" x="5.477" y="54.369" xmlns="http://www.w3.org/2000/svg" height="9.783" id="connector1pin"/>
<g width="0.866" x="5.956" y="64.082" xmlns="http://www.w3.org/2000/svg" height="0.688" id="connector1terminal"/>
<g xmlns="http://www.w3.org/2000/svg">
<polyline fill="#FFFFFF" points="6.405,1.132,6.405,20.392,9.905,22.255,2.655,26.291,9.905,30.324,2.655,34.359,9.905,38.392,2.655,42.427,6.405,44.599,6.405,63.861" xmlns="http://www.w3.org/2000/svg" stroke="#000000" stroke-linecap="round" stroke-width="2.2284"/>
</g>
</g>
</g></g></g><g partID='176860'><line stroke-linecap='round' stroke='#8c3b00' x1='16.667' y1='155.775' x2='16.663' y2='156.898' stroke-width='0.4' /></g><g partID='168560'><line stroke-linecap='round' stroke='#404040' x1='16.667' y1='26.175' x2='16.667' y2='26.175' stroke-width='0.699998' /></g><g partID='169030'><line stroke-linecap='round' stroke='#404040' x1='103.067' y1='148.575' x2='103.051' y2='142.386' stroke-width='0.699998' /></g><g partID='169260'><line stroke-linecap='round' stroke='#404040' x1='16.667' y1='263.775' x2='16.667' y2='263.775' stroke-width='0.699998' /></g><g partID='169300'><line stroke-linecap='round' stroke='#404040' x1='103.067' y1='206.175' x2='103.067' y2='206.175' stroke-width='0.699998' /></g><g partID='169360'><line stroke-linecap='round' stroke='#404040' x1='16.667' y1='220.575' x2='16.667' y2='220.743' stroke-width='0.699998' /></g><circle  fill="black" cx="16.667" cy="220.743" r="3.6" stroke-width="0" stroke="none" /><g partID='169610'><line stroke-linecap='round' stroke='#404040' x1='67.0417' y1='220.65' x2='67.0417' y2='83.7439' stroke-width='0.699998' /></g><g partID='175790'><line stroke-linecap='round' stroke='#404040' x1='102.898' y1='83.7439' x2='103.063' y2='84.898' stroke-width='0.699998' /></g><g partID='169520'><line stroke-linecap='round' stroke='#404040' x1='67.0417' y1='83.7439' x2='102.898' y2='83.7439' stroke-width='0.699998' /></g><g partID='169460'><line stroke-linecap='round' stroke='#404040' x1='16.667' y1='220.743' x2='67.0417' y2='220.65' stroke-width='0.699998' /></g><circle  fill="black" cx="16.667" cy="220.743" r="3.6" stroke-width="0" stroke="none" /><g partID='169720'><line stroke-linecap='round' stroke='#404040' x1='103.067' y1='263.775' x2='103.069' y2='264.669' stroke-width='0.699998' /></g><g partID='175720'><line stroke-linecap='round' stroke='#404040' x1='16.651' y1='91.9865' x2='16.6686' y2='84.6686' stroke-width='2.4' /></g><g partID='152460' id='partLabel'><g transform='translate(131.676,232.428)' ><g font-size='5' font-style='normal' font-weight='normal' fill='#000000' font-family="'DroidSans'" id='schematicLabel' fill-opacity='1' stroke='none' ><text x='0' y='3.75'>S2</text></g></g></g><g partID='158160' id='partLabel'><g transform='translate(46.4488,52.584)' ><g font-size='5' font-style='normal' font-weight='normal' fill='#000000' font-family="'DroidSans'" id='schematicLabel' fill-opacity='1' stroke='none' ><text x='0' y='3.75'>S1</text></g></g></g><g partID='157980' id='partLabel'><g transform='translate(112.721,111.584)' ><g font-size='5' font-style='normal' font-weight='normal' fill='#000000' font-family="'DroidSans'" id='schematicLabel' fill-opacity='1' stroke='none' ><text x='0' y='3.75'>R2</text><text x='0' y='8.75'>150&#x3a9;</text></g></g></g><g partID='156210' id='partLabel'><g transform='translate(26.1756,182.126)' ><g font-size='5' font-style='normal' font-weight='normal' fill='#000000' font-family="'DroidSans'" id='schematicLabel' fill-opacity='1' stroke='none' ><text x='0' y='3.75'>Rx1</text><text x='0' y='8.75'>150&#x3a9;</text></g></g></g><g partID='165410' id='partLabel'><g transform='translate(16.5701,227.926)' ><g font-size='5' font-style='normal' font-weight='normal' fill='#000000' font-family="'DroidSans'" id='schematicLabel' fill-opacity='1' stroke='none' ><text x='0' y='3.75'>C1</text></g></g></g><g partID='157920' id='partLabel'><g transform='translate(106.672,148.812)' ><g font-size='9' font-style='normal' font-weight='normal' fill='#000000' font-family="'DroidSans'" id='schematicLabel' fill-opacity='1' stroke='none' ><text x='0' y='6.75'>LED2</text></g></g></g><g partID='152020' id='partLabel'><g transform='translate(20.8719,98.4068)' ><g font-size='9' font-style='normal' font-weight='normal' fill='#000000' font-family="'DroidSans'" id='schematicLabel' fill-opacity='1' stroke='none' ><text x='0' y='6.75'>LED1</text></g></g></g></svg>