<?xml version='1.0' encoding='UTF-8' standalone='no'?>
<!-- Created with Fritzing (http://www.fritzing.org/) -->
<svg xmlns:svg='http://www.w3.org/2000/svg' xmlns='http://www.w3.org/2000/svg' version='1.2' baseProfile='tiny' x='0in' y='0in' width='0.751055in' height='2.39545in' viewBox='0 0 54.0759 172.473' >
<g partID='156650'><g transform='translate(3.7848,148.193)' ><g xmlns="http://www.w3.org/2000/svg" id="schematic">
<path fill="none" xmlns="http://www.w3.org/2000/svg" stroke="#000000" id="connector0pin" stroke-width="1.92" d="M8.9712,17.008L8.9712,0"/>
<g width="0.756" x="8.592" fill="none" xmlns="http://www.w3.org/2000/svg" height="0.7624" id="connector0terminal"/>
<path fill="none" xmlns="http://www.w3.org/2000/svg" stroke="#000000" id="path4098" stroke-width="1.92" d="M0,17.008l17.9408,0"/>
<path fill="none" xmlns="http://www.w3.org/2000/svg" stroke="#000000" id="path4100" stroke-width="1.92" d="M2.9888,20.164l11.9616,0"/>
<path fill="none" xmlns="http://www.w3.org/2000/svg" stroke="#000000" id="path4102" stroke-width="1.92" d="M11.956,23.3184L5.9808,23.3184"/>
</g>
</g></g><g partID='156730'><g xmlns="http://www.w3.org/2000/svg" id="schematic">
<rect width="2.39977" x="11.5549" y="15.739" fill="#000000" xmlns="http://www.w3.org/2000/svg" height="10.836" stroke="none" id="connector0pin" stroke-width="0"/>
<g width="0" x="12.7548" y="25.775" xmlns="http://www.w3.org/2000/svg" height="0.8" id="connector0terminal"/>
<path fill="none" xmlns="http://www.w3.org/2000/svg" stroke="#000000" stroke-width="2.39977" d="M0,15.739l25.5096,0"/>
<text x="1.49986" y="10.75" fill="#000000" font-family="Droid Sans" xmlns="http://www.w3.org/2000/svg" id="label" font-size="8.99915">5V</text>
</g>
</g><g partID='156150'><g transform='translate(6.3696,25.426)' ><g transform='matrix(1,0,0,1,0,0)'  ><g xmlns="http://www.w3.org/2000/svg" id="schematic">
<rect width="1.893" x="5.474" y="1.089" xmlns="http://www.w3.org/2000/svg" height="9.783" id="connector0pin"/>
<g width="0.866" x="5.952" y="0.406" xmlns="http://www.w3.org/2000/svg" height="0.686" id="connector0terminal"/>
<rect width="1.894" x="5.477" y="54.369" xmlns="http://www.w3.org/2000/svg" height="9.783" id="connector1pin"/>
<g width="0.866" x="5.956" y="64.082" xmlns="http://www.w3.org/2000/svg" height="0.688" id="connector1terminal"/>
<g xmlns="http://www.w3.org/2000/svg">
<polyline fill="#FFFFFF" points="6.405,1.132,6.405,20.392,9.905,22.255,2.655,26.291,9.905,30.324,2.655,34.359,9.905,38.392,2.655,42.427,6.405,44.599,6.405,63.861" xmlns="http://www.w3.org/2000/svg" stroke="#000000" stroke-linecap="round" stroke-width="2.2284"/>
</g>
</g>
</g></g></g><g partID='152020'><g transform='translate(2.0028,84.1574)' ><g xmlns="http://www.w3.org/2000/svg" id="schematic">
<g width="0.208" x="10.632" y="0.525" xmlns="http://www.w3.org/2000/svg" height="0.208" id="connector1terminal"/>
<g width="0.208" x="10.648" y="64.314" xmlns="http://www.w3.org/2000/svg" height="0.207" id="connector0terminal"/>
<rect width="1.375" x="10.028" y="0.421" xmlns="http://www.w3.org/2000/svg" height="10.339" id="connector1pin"/>
<rect width="1.375" x="10.028" y="53" xmlns="http://www.w3.org/2000/svg" height="11.767" id="connector0pin"/>
<line fill="none" xmlns="http://www.w3.org/2000/svg" stroke="#000000" stroke-linecap="round" y1="41.171" stroke-width="2.4" x1="10.752" y2="64.123" x2="10.752"/>
<line fill="none" xmlns="http://www.w3.org/2000/svg" stroke="#000000" stroke-linecap="round" y1="41.683" stroke-width="2.4" x1="21.171" y2="41.683" x2="0.333"/>
<line fill="none" xmlns="http://www.w3.org/2000/svg" stroke="#000000" stroke-linecap="round" y1="0.731" stroke-width="2.4" x1="10.752" y2="22.393" x2="10.752"/>
<polygon fill="none" points="10.752,41.638,5.486,32.515,0.218,23.393,10.752,23.393,21.285,23.393,16.02,32.515" xmlns="http://www.w3.org/2000/svg" stroke="#000000" stroke-linejoin="round" stroke-linecap="round" stroke-width="2.4"/>
<path xmlns="http://www.w3.org/2000/svg" d="M27.775,47.148l2.558,-2.037l1.465,-1.169l1.091,-0.871l3.461,9.58L27.775,47.148L27.775,47.148z"/>
<path xmlns="http://www.w3.org/2000/svg" d="M21.226,52.138l2.556,-2.039l1.464,-1.168l1.09,-0.87l3.469,9.581L21.226,52.138L21.226,52.138z"/>
<line fill="none" xmlns="http://www.w3.org/2000/svg" stroke="#000000" stroke-linecap="round" y1="37.577" stroke-width="2.4" x1="24.281" y2="48.061" x2="32.948"/>
<line fill="none" xmlns="http://www.w3.org/2000/svg" stroke="#000000" stroke-linecap="round" y1="45.54" stroke-width="2.4" x1="19.948" y2="52.274" x2="25.515"/>
</g>
</g></g><g partID='156610'><line stroke-linecap='round' stroke='#404040' x1='12.7388' y1='84.7865' x2='12.7586' y2='89.852' stroke-width='0.699998' /></g><g partID='156700'><line stroke-linecap='round' stroke='#404040' x1='12.7548' y1='148.575' x2='12.7548' y2='148.575' stroke-width='0.699998' /></g><g partID='156760'><line stroke-linecap='round' stroke='#404040' x1='12.7546' y1='26.175' x2='12.7548' y2='26.175' stroke-width='0.699998' /></g><g partID='156150' id='partLabel'><g transform='translate(23.2045,51.2776)' ><g font-size='5' font-style='normal' font-weight='normal' fill='#000000' font-family="'DroidSans'" id='schematicLabel' fill-opacity='1' stroke='none' ><text x='0' y='3.75'>R1</text><text x='0' y='8.75'>150&#x3a9;</text></g></g></g><g partID='152020' id='partLabel'><g transform='translate(27.6759,105.66)' ><g font-size='9' font-style='normal' font-weight='normal' fill='#000000' font-family="'DroidSans'" id='schematicLabel' fill-opacity='1' stroke='none' ><text x='0' y='6.75'>LED1</text></g></g></g></svg>