<?xml version="1.0" encoding="UTF-8" standalone="no"?>
<svg
   xmlns:dc="http://purl.org/dc/elements/1.1/"
   xmlns:cc="http://creativecommons.org/ns#"
   xmlns:rdf="http://www.w3.org/1999/02/22-rdf-syntax-ns#"
   xmlns:svg="http://www.w3.org/2000/svg"
   xmlns="http://www.w3.org/2000/svg"
   xmlns:sodipodi="http://sodipodi.sourceforge.net/DTD/sodipodi-0.dtd"
   xmlns:inkscape="http://www.inkscape.org/namespaces/inkscape"
   version="1.1"
   viewBox="0 0 2317.165 2230.6807"
   stroke-miterlimit="10"
   id="svg2"
   inkscape:version="0.48.4 r9939"
   width="100%"
   height="100%"
   sodipodi:docname="LovelandCreatorSpace_Logo_Vertical_2col.svg"
   inkscape:export-filename="/home/swarren/git_wa/presentations/lcs-graphics/LovelandCreatorSpace_Logo_Vertical_2col.png"
   inkscape:export-xdpi="299.99951"
   inkscape:export-ydpi="299.99951"
   style="fill:none;stroke:none">
  <metadata
     id="metadata155">
    <rdf:RDF>
      <cc:Work
         rdf:about="">
        <dc:format>image/svg+xml</dc:format>
        <dc:type
           rdf:resource="http://purl.org/dc/dcmitype/StillImage" />
        <dc:title></dc:title>
      </cc:Work>
    </rdf:RDF>
  </metadata>
  <defs
     id="defs153" />
  <sodipodi:namedview
     pagecolor="#ffffff"
     bordercolor="#666666"
     borderopacity="1"
     objecttolerance="10"
     gridtolerance="10"
     guidetolerance="10"
     inkscape:pageopacity="0"
     inkscape:pageshadow="2"
     inkscape:window-width="1920"
     inkscape:window-height="1036"
     id="namedview151"
     showgrid="false"
     inkscape:zoom="0.29152413"
     inkscape:cx="140.73209"
     inkscape:cy="1049.7373"
     inkscape:window-x="0"
     inkscape:window-y="25"
     inkscape:window-maximized="1"
     inkscape:current-layer="svg2"
     fit-margin-top="0"
     fit-margin-left="0"
     fit-margin-right="0"
     fit-margin-bottom="0" />
  <clipPath
     id="p.0">
    <path
       d="m 0,0 5278,0 0,2644 L 0,2644 0,0 z"
       clip-rule="nonzero"
       id="path5"
       inkscape:connector-curvature="0" />
  </clipPath>
  <rect
     style="fill:#ffffff;fill-opacity:1"
     id="rect3054"
     width="2476.6389"
     height="2421.7549"
     x="-34.302483"
     y="-47.003864"
     transform="translate(-3.8196656e-5,0)" />
  <path
     style="fill:#000000;fill-opacity:0;fill-rule:nonzero"
     inkscape:connector-curvature="0"
     id="path9"
     d="m -1480.5604,-141.0566 5278.286,0 0,2644.8923 -5278.286,0 z" />
  <path
     style="fill:#000000;fill-opacity:0;fill-rule:nonzero"
     inkscape:connector-curvature="0"
     id="path11"
     d="m -419.7323,2009.1864 3156.63,0 0,355.3386 -3156.63,0 z" />
  <path
     style="fill:#000000;fill-rule:nonzero"
     inkscape:connector-curvature="0"
     id="path13"
     d="m 85.3952,2074.8682 0,-15.5625 50.625,0 50.625,0 0,15.5625 0,7.8125 7.8125,0 15.5625,0 0,15.5625 0,15.5625 -27.25,0 -27.25,0 0,-15.5625 0,-7.8125 -19.5,0 -19.5,0 0,7.8125 0,15.5625 -15.5625,0 -7.8125,0 0,31.1875 0,31.1875 7.8125,0 15.5625,0 0,15.5625 0,7.8125 19.5,0 19.5,0 0,-7.8125 0,-15.5625 27.25,0 27.25,0 0,15.5625 0,15.5625 -15.5625,0 -7.8125,0 0,7.8125 0,15.5625 -50.625,0 -50.625,0 0,-15.5625 0,-7.8125 -7.8125,0 -15.5625,0 0,-15.5625 0,-7.8125 -7.8125,0 -15.5625,0 0,-38.9375 0,-38.9375 15.5625,0 7.8125,0 0,-7.8125 0,-15.5625 15.5625,0 7.8125,0 0,-7.8125 z m 139.9063,70.125 0,-85.6875 74,0 74,0 0,15.5625 0,7.8125 7.8125,0 15.5625,0 0,38.9375 0,38.9375 -27.25,0 -19.5,0 0,7.8125 0,7.8125 7.8125,0 15.5625,0 0,15.5625 0,7.8125 7.8125,0 15.5625,0 0,15.5625 0,15.5625 -38.9375,0 -38.9375,0 0,-15.5625 0,-7.8125 -7.8125,0 -15.5625,0 0,-15.5625 0,-7.8125 -7.8125,0 -7.8125,0 0,19.5 0,27.25 -27.25,0 -27.25,0 0,-85.6875 z m 116.875,-35.0625 0,-19.5 -31.1875,0 -31.1875,0 0,31.1875 0,31.1875 19.5,0 19.5,0 0,-7.8125 0,-15.5625 15.5625,0 7.8125,0 0,-19.5 z m 69.7812,35.0625 0,-85.6875 85.6875,0 85.6875,0 0,15.5625 0,15.5625 -62.3125,0 -54.5625,0 0,19.5 0,19.5 42.875,0 50.625,0 0,15.5625 0,15.5625 -50.625,0 -42.875,0 0,19.5 0,19.5 54.5625,0 62.3125,0 0,15.5625 0,15.5625 -85.6875,0 -85.6875,0 0,-85.6875 z m 233.4063,-70.125 0,-15.5625 38.9375,0 38.9375,0 0,15.5625 0,7.8125 7.8125,0 15.5625,0 0,15.5625 0,7.8125 7.8125,0 15.5625,0 0,62.3125 0,62.3125 -27.25,0 -27.25,0 0,-27.25 0,-19.5 -31.1875,0 -31.1875,0 0,19.5 0,27.25 -27.25,0 -27.25,0 0,-62.3125 0,-62.3125 15.5625,0 7.8125,0 0,-7.8125 0,-15.5625 15.5625,0 7.8125,0 0,-7.8125 z m 46.75,23.375 0,-7.8125 -7.8125,0 -7.8125,0 0,7.8125 0,15.5625 -15.5625,0 -7.8125,0 0,19.5 0,19.5 31.1875,0 31.1875,0 0,-19.5 0,-19.5 -7.8125,0 -15.5625,0 0,-15.5625 z m 116.5312,-23.375 0,-15.5625 74,0 74,0 0,15.5625 0,15.5625 -27.25,0 -19.5,0 0,66.25 0,74 -27.25,0 -27.25,0 0,-74 0,-66.25 -19.5,0 -27.25,0 0,-15.5625 z m 186.6563,0 0,-15.5625 62.3125,0 62.3125,0 0,15.5625 0,7.8125 7.8125,0 15.5625,0 0,62.3125 0,62.3125 -15.5625,0 -7.8125,0 0,7.8125 0,15.5625 -62.3125,0 -62.3125,0 0,-15.5625 0,-7.8125 -7.8125,0 -15.5625,0 0,-62.3125 0,-62.3125 15.5625,0 7.8125,0 0,-7.8125 z m 93.5,70.125 0,-54.5625 -31.1875,0 -31.1875,0 0,54.5625 0,54.5625 31.1875,0 31.1875,0 0,-54.5625 z m 69.7812,0 0,-85.6875 74,0 74,0 0,15.5625 0,7.8125 7.8125,0 15.5625,0 0,38.9375 0,38.9375 -27.25,0 -19.5,0 0,7.8125 0,7.8125 7.8125,0 15.5625,0 0,15.5625 0,7.8125 7.8125,0 15.5625,0 0,15.5625 0,15.5625 -38.9375,0 -38.9375,0 0,-15.5625 0,-7.8125 -7.8125,0 -15.5625,0 0,-15.5625 0,-7.8125 -7.8125,0 -7.8125,0 0,19.5 0,27.25 -27.25,0 -27.25,0 0,-85.6875 z m 116.875,-35.0625 0,-19.5 -31.1875,0 -31.1875,0 0,31.1875 0,31.1875 19.5,0 19.5,0 0,-7.8125 0,-15.5625 15.5625,0 7.8125,0 0,-19.5 z m 93.1563,-35.0625 0,-15.5625 50.625,0 50.625,0 0,15.5625 0,7.8125 7.8125,0 15.5625,0 0,15.5625 0,15.5625 -27.25,0 -27.25,0 0,-15.5625 0,-7.8125 -19.5,0 -19.5,0 0,19.5 0,19.5 42.875,0 50.625,0 0,15.5625 0,7.8125 7.8125,0 15.5625,0 0,27.25 0,27.25 -15.5625,0 -7.8125,0 0,7.8125 0,15.5625 -62.3125,0 -62.3125,0 0,-15.5625 0,-7.8125 -7.8125,0 -15.5625,0 0,-15.5625 0,-15.5625 27.25,0 27.25,0 0,15.5625 0,7.8125 31.1875,0 31.1875,0 0,-19.5 0,-19.5 -42.875,0 -50.625,0 0,-15.5625 0,-7.8125 -7.8125,0 -15.5625,0 0,-27.25 0,-27.25 15.5625,0 7.8125,0 0,-7.8125 z m 163.2812,70.125 0,-85.6875 74,0 74,0 0,15.5625 0,7.8125 7.8125,0 15.5625,0 0,38.9375 0,38.9375 -15.5625,0 -7.8125,0 0,7.8125 0,15.5625 -50.625,0 -42.875,0 0,19.5 0,27.25 -27.25,0 -27.25,0 0,-85.6875 z m 116.875,-23.375 0,-31.1875 -31.1875,0 -31.1875,0 0,31.1875 0,31.1875 31.1875,0 31.1875,0 0,-31.1875 z m 116.5313,-46.75 0,-15.5625 38.9375,0 38.9375,0 0,15.5625 0,7.8125 7.8125,0 15.5625,0 0,15.5625 0,7.8125 7.8125,0 15.5625,0 0,62.3125 0,62.3125 -27.25,0 -27.25,0 0,-27.25 0,-19.5 -31.1875,0 -31.1875,0 0,19.5 0,27.25 -27.25,0 -27.25,0 0,-62.3125 0,-62.3125 15.5625,0 7.8125,0 0,-7.8125 0,-15.5625 15.5625,0 7.8125,0 0,-7.8125 z m 46.75,23.375 0,-7.8125 -7.8125,0 -7.8125,0 0,7.8125 0,15.5625 -15.5625,0 -7.8125,0 0,19.5 0,19.5 31.1875,0 31.1875,0 0,-19.5 0,-19.5 -7.8125,0 -15.5625,0 0,-15.5625 z m 139.9062,-23.375 0,-15.5625 50.625,0 50.625,0 0,15.5625 0,7.8125 7.8125,0 15.5625,0 0,15.5625 0,15.5625 -27.25,0 -27.25,0 0,-15.5625 0,-7.8125 -19.5,0 -19.5,0 0,7.8125 0,15.5625 -15.5625,0 -7.8125,0 0,31.1875 0,31.1875 7.8125,0 15.5625,0 0,15.5625 0,7.8125 19.5,0 19.5,0 0,-7.8125 0,-15.5625 27.25,0 27.25,0 0,15.5625 0,15.5625 -15.5625,0 -7.8125,0 0,7.8125 0,15.5625 -50.625,0 -50.625,0 0,-15.5625 0,-7.8125 -7.8125,0 -15.5625,0 0,-15.5625 0,-7.8125 -7.8125,0 -15.5625,0 0,-38.9375 0,-38.9375 15.5625,0 7.8125,0 0,-7.8125 0,-15.5625 15.5625,0 7.8125,0 0,-7.8125 z m 139.9063,70.125 0,-85.6875 85.6875,0 85.6875,0 0,15.5625 0,15.5625 -62.3125,0 -54.5625,0 0,19.5 0,19.5 42.875,0 50.625,0 0,15.5625 0,15.5625 -50.625,0 -42.875,0 0,19.5 0,19.5 54.5625,0 62.3125,0 0,15.5625 0,15.5625 -85.6875,0 -85.6875,0 0,-85.6875 z"
     inkscape:export-filename="/home/swarren/git_wa/presentations/lcs-graphics/LovelandCreatorSpace_Logo_Vertical_2col.png"
     inkscape:export-xdpi="300"
     inkscape:export-ydpi="300" />
  <path
     style="fill:#990000;fill-rule:nonzero"
     inkscape:connector-curvature="0"
     id="path15"
     d="m 1148.0066,578.3266 -6.4355,-25.74799 -30.344,-42.29925 -20.231,-34.94226 -16.551,-8.27558 -39.5408,-45.05774 -57.9319,-43.21783 -72.643,-40.45932 -80.9185,-37.70081 -70.8059,-19.30969 -78.1599,-2.75854 -89.197,16.55118 -67.126,16.55117 -71.7244,24.82679 -103.9081,56.09189 -77.2416,57.01312 -50.5747,56.09186 -50.5748,69.88452 -39.5381,89.19421 -26.6666,105.74805 -8.2756,128.73492 4.5958,106.6666 27.5879,111.2652 40.4593,114.0235 36.7821,66.2074 56.092,111.2625 37.7008,67.126 75.4014,63.4488 34.9423,22.0708 58.8505,57.9292 102.9895,109.4252 89.1941,59.7716 80,45.0577 34.0236,9.1942 2.7586,-17.4697 -9.1941,-27.588 -28.5066,-25.7454 -56.092,-48.7375 9.1943,-8.2756 4.5984,-15.6325 -18.3911,-12.874 -95.6326,-71.7218 -74.4828,-61.6116 -48.735,-44.1365 -46.8976,-46.8975 -116.7795,-166.4358 -48.7375,-79.0813 -18.3885,-57.9292 -14.714,-22.9895 -7.3569,-22.0683 11.9555,-1.8398 13.7926,19.3097 15.6325,36.7821 32.1837,55.1732 49.6536,52.4121 51.4961,85.5171 85.517,95.6326 38.6195,56.0918 86.4383,68.9659 74.4829,58.8503 77.2415,61.6091 45.0576,46.8975 23.9055,33.1025 34.9451,47.8161 39.5378,41.3806 44.1392,22.987 27.5854,8.2755 -35.861,-37.7008 -22.9895,-26.6667 -22.0682,-22.9868 4.5984,-22.9895 16.5513,-20.2284 16.551,-8.2782 11.0342,18.3912 -0.9187,19.3122 -8.2754,17.4699 19.3096,20.2309 55.1733,59.7691 36.782,42.2993 -11.9553,-31.2652 106.6667,114.0235 -62.5276,-111.2649 53.3333,47.8161 -49.656,-82.7585 -55.1733,-82.7585 -36.7823,-53.3333 -12.8713,-28.5066 7.3542,-10.1129 20.2312,14.7113 80.9185,92.874 40.4619,69.8845 18.3884,17.4725 -2.7583,-24.8294 -6.4358,-33.1024 29.4253,39.5408 24.8267,64.3673 22.9895,42.2993 29.4253,43.2178 -22.9895,-66.2073 12.874,8.2756 -11.0342,-39.5381 14.7139,9.1944 -48.7375,-102.0684 -57.9292,-92.874 -73.5643,-99.3097 -86.4357,-80 -2.7586,-5.5171 -5.5195,-7.3569 -154.4805,-158.1627 -105.748,-89.1943 -72.6429,-61.6088 -41.3807,-56.092 -46.895,-67.1259 -57.0131,-73.5644 -14.7113,-21.1495 -0.9212,-25.7455 -6.4357,-57.0131 -10.1155,-47.8162 0,-35.8609 -11.9528,45.9763 0,34.9423 13.7926,43.2178 2.7586,40.462 19.3097,20.2283 70.8058,104.8268 -117.7034,-121.378 -21.147,-76.3228 -8.2782,-68.9659 -2.7585,-62.52755 34.0235,-73.56427 34.0237,-69.88452 40.4593,-43.2179 51.4935,-49.65612 63.4487,-35.8609 82.7586,-17.47248 74.4829,-4.59576 77.2414,29.42517 97.4724,48.73492 46.8951,42.2992 49.6562,73.56171 33.1023,38.62207 31.2651,21.14959 -7.3569,-34.02362 -15.6326,-27.58532 -23.9082,-44.1391 -2.7583,-21.1496 -22.987,-30.34387 -25.7481,-39.54065 -29.425,-28.50659 -34.0237,-33.10236 -23.9082,-19.30969 45.979,23.90814 31.2624,18.39105 18.3912,22.98688 24.8293,29.42523 30.344,23.90814 15.6326,31.26508 34.9421,57.0105 23.9082,61.60888 26.6668,30.3465 24.8266,5.51703 -5.5171,-42.29919 -26.1811,-27.81366 -32.2757,-36.82679 7.0342,-32.27295 4.9658,7.03412 12.8269,-22.75854 -23.3806,-38.16797 -26.6667,-63.44617 -31.2649,-47.81628 -82.7586,-73.56433 -86.4357,-62.52753 -100.231,-29.4252 -79.0813,-11.95538 -120.4595,4.59841 -90.1153,27.5853 -77.2415,38.62204 -91.9527,49.65357 31.265,-26.66669 61.6089,-44.13648 72.643,-35.86349 77.2416,-29.4252 80.9185,-10.11548 80,-0.91864 89.197,10.11548 63.446,32.18371 57.9319,27.5853 57.0132,35.86356 57.929,48.73486 23.9082,31.26514 12.874,24.82672 13.7927,21.14966 20.231,47.81622 17.4697,14.7113 z"
     inkscape:export-filename="/home/swarren/git_wa/presentations/lcs-graphics/LovelandCreatorSpace_Logo_Vertical_2col.png"
     inkscape:export-xdpi="300"
     inkscape:export-ydpi="300" />
  <path
     style="fill:#000000;fill-opacity:1;fill-rule:nonzero"
     inkscape:connector-curvature="0"
     id="path17"
     d="m 1213.4456,929.2796 0,0 c -13.9546,-242.24329 171.1099,-449.93262 413.353,-463.8872 l 0,0 c 116.3294,-6.70123 230.5562,33.08368 317.5518,110.60242 86.9958,77.51874 139.634,186.42145 146.3354,302.75068 l 0,0 c 13.9546,242.2432 -171.1098,449.9325 -413.3532,463.8872 l 0,0 c -242.2432,13.9545 -449.9324,-171.1099 -463.887,-413.3531 z"
     inkscape:export-filename="/home/swarren/git_wa/presentations/lcs-graphics/LovelandCreatorSpace_Logo_Vertical_2col.png"
     inkscape:export-xdpi="300"
     inkscape:export-ydpi="300" />
  <path
     style="fill:#000000;fill-opacity:1;fill-rule:nonzero"
     inkscape:connector-curvature="0"
     id="path19"
     d="m 1533.1181,485.7048 38.2864,-131.27637 97.6301,-5.62405 53.1074,126.01156 z"
     inkscape:export-filename="/home/swarren/git_wa/presentations/lcs-graphics/LovelandCreatorSpace_Logo_Vertical_2col.png"
     inkscape:export-xdpi="300"
     inkscape:export-ydpi="300" />
  <path
     style="fill:#000000;fill-opacity:1;fill-rule:nonzero"
     inkscape:connector-curvature="0"
     id="path21"
     d="m 1232.245,1023.018 -131.2764,-38.2863 -5.624,-97.6301 126.0117,-53.10753 z"
     inkscape:export-filename="/home/swarren/git_wa/presentations/lcs-graphics/LovelandCreatorSpace_Logo_Vertical_2col.png"
     inkscape:export-xdpi="300"
     inkscape:export-ydpi="300" />
  <path
     style="fill:#000000;fill-opacity:1;fill-rule:nonzero"
     inkscape:connector-curvature="0"
     id="path23"
     d="m 2071.8197,785.00254 131.2764,38.28632 5.624,97.63014 -126.0115,53.1075 z"
     inkscape:export-filename="/home/swarren/git_wa/presentations/lcs-graphics/LovelandCreatorSpace_Logo_Vertical_2col.png"
     inkscape:export-xdpi="300"
     inkscape:export-ydpi="300" />
  <path
     style="fill:#000000;fill-opacity:1;fill-rule:nonzero"
     inkscape:connector-curvature="0"
     id="path25"
     d="m 1770.9628,1322.3149 -38.2864,131.2764 -97.6301,5.624 -53.1074,-126.0115 z"
     inkscape:export-filename="/home/swarren/git_wa/presentations/lcs-graphics/LovelandCreatorSpace_Logo_Vertical_2col.png"
     inkscape:export-xdpi="300"
     inkscape:export-ydpi="300" />
  <path
     style="fill:#000000;fill-opacity:1;fill-rule:nonzero"
     inkscape:connector-curvature="0"
     id="path27"
     d="m 1758.1544,482.2762 98.7939,-94.54218 87.3599,43.94458 -17.0146,135.67981 z"
     inkscape:export-filename="/home/swarren/git_wa/presentations/lcs-graphics/LovelandCreatorSpace_Logo_Vertical_2col.png"
     inkscape:export-xdpi="300"
     inkscape:export-ydpi="300" />
  <path
     style="fill:#000000;fill-opacity:1;fill-rule:nonzero"
     inkscape:connector-curvature="0"
     id="path29"
     d="m 1228.9418,797.153 -94.5422,-98.79413 43.9445,-87.35974 135.6797,17.01471 z"
     inkscape:export-filename="/home/swarren/git_wa/presentations/lcs-graphics/LovelandCreatorSpace_Logo_Vertical_2col.png"
     inkscape:export-xdpi="300"
     inkscape:export-ydpi="300" />
  <path
     style="fill:#000000;fill-opacity:1;fill-rule:nonzero"
     inkscape:connector-curvature="0"
     id="path31"
     d="m 2075.0211,1010.8189 94.5422,98.7941 -43.9448,87.3597 -135.6797,-17.0146 z"
     inkscape:export-filename="/home/swarren/git_wa/presentations/lcs-graphics/LovelandCreatorSpace_Logo_Vertical_2col.png"
     inkscape:export-xdpi="300"
     inkscape:export-ydpi="300" />
  <path
     style="fill:#000000;fill-opacity:1;fill-rule:nonzero"
     inkscape:connector-curvature="0"
     id="path33"
     d="m 1545.8229,1325.7029 -98.7942,94.5421 -87.3596,-43.9446 17.0146,-135.6798 z"
     inkscape:export-filename="/home/swarren/git_wa/presentations/lcs-graphics/LovelandCreatorSpace_Logo_Vertical_2col.png"
     inkscape:export-xdpi="300"
     inkscape:export-ydpi="300" />
  <path
     style="fill:#000000;fill-opacity:1;fill-rule:nonzero"
     inkscape:connector-curvature="0"
     id="path35"
     d="m 1954.8922,591.8244 132.8286,-32.48224 53.6853,81.73566 -82.572,108.99689 z"
     inkscape:export-filename="/home/swarren/git_wa/presentations/lcs-graphics/LovelandCreatorSpace_Logo_Vertical_2col.png"
     inkscape:export-xdpi="300"
     inkscape:export-ydpi="300" />
  <path
     style="fill:#000000;fill-opacity:1;fill-rule:nonzero"
     inkscape:connector-curvature="0"
     id="path37"
     d="m 1339.1426,599.925 -32.4822,-132.82849 81.7356,-53.68549 108.9971,82.57227 z"
     inkscape:export-filename="/home/swarren/git_wa/presentations/lcs-graphics/LovelandCreatorSpace_Logo_Vertical_2col.png"
     inkscape:export-xdpi="300"
     inkscape:export-ydpi="300" />
  <path
     style="fill:#000000;fill-opacity:1;fill-rule:nonzero"
     inkscape:connector-curvature="0"
     id="path39"
     d="m 1965.0512,1207.9889 32.4824,132.8284 -81.7356,53.6855 -108.997,-82.5722 z"
     inkscape:export-filename="/home/swarren/git_wa/presentations/lcs-graphics/LovelandCreatorSpace_Logo_Vertical_2col.png"
     inkscape:export-xdpi="300"
     inkscape:export-ydpi="300" />
  <path
     style="fill:#000000;fill-opacity:1;fill-rule:nonzero"
     inkscape:connector-curvature="0"
     id="path41"
     d="m 1349.3104,1216.1029 -132.8286,32.4823 -53.6856,-81.7357 82.5723,-108.997 z"
     inkscape:export-filename="/home/swarren/git_wa/presentations/lcs-graphics/LovelandCreatorSpace_Logo_Vertical_2col.png"
     inkscape:export-xdpi="300"
     inkscape:export-ydpi="300" />
  <path
     style="fill:#ffffff;fill-opacity:1;fill-rule:nonzero"
     inkscape:connector-curvature="0"
     id="path43"
     d="m 1498.8376,912.7911 0,0 c -4.8513,-84.21692 59.8315,-156.44092 144.4731,-161.31671 l 0,0 c 40.6465,-2.34149 80.5538,11.47864 110.9424,38.42004 30.3887,26.94147 48.7698,64.7973 51.0994,105.23967 l 0,0 c 4.8513,84.2169 -59.8316,156.4409 -144.4732,161.3168 l 0,0 c -84.6418,4.8758 -157.1904,-59.4428 -162.0417,-143.6598 z"
     inkscape:export-filename="/home/swarren/git_wa/presentations/lcs-graphics/LovelandCreatorSpace_Logo_Vertical_2col.png"
     inkscape:export-xdpi="300"
     inkscape:export-ydpi="300" />
  <path
     style="fill:#000000;fill-opacity:1;fill-rule:nonzero"
     inkscape:connector-curvature="0"
     id="path45"
     d="m 1133.1142,1406.7059 0,0 c 0,-54.6757 44.3235,-98.999 98.999,-98.999 l 0,0 c 26.2564,0 51.437,10.4303 70.003,28.9962 18.5659,18.5659 28.996,43.7467 28.996,70.0028 l 0,0 c 0,54.6757 -44.3232,98.9992 -98.999,98.9992 l 0,0 c -54.6755,0 -98.999,-44.3235 -98.999,-98.9992 z"
     inkscape:export-filename="/home/swarren/git_wa/presentations/lcs-graphics/LovelandCreatorSpace_Logo_Vertical_2col.png"
     inkscape:export-xdpi="300"
     inkscape:export-ydpi="300" />
  <path
     style="fill:#000000;fill-opacity:1;fill-rule:nonzero"
     inkscape:connector-curvature="0"
     id="path47"
     d="m 1210.6413,1310.5372 10.3738,-29.2039 22.2077,0 10.3738,29.2039 z"
     inkscape:export-filename="/home/swarren/git_wa/presentations/lcs-graphics/LovelandCreatorSpace_Logo_Vertical_2col.png"
     inkscape:export-xdpi="300"
     inkscape:export-ydpi="300" />
  <path
     style="fill:#000000;fill-opacity:1;fill-rule:nonzero"
     inkscape:connector-curvature="0"
     id="path49"
     d="m 1135.484,1428.1892 -29.2341,-10.3845 0,-22.1419 29.2341,-10.3845 z"
     inkscape:export-filename="/home/swarren/git_wa/presentations/lcs-graphics/LovelandCreatorSpace_Logo_Vertical_2col.png"
     inkscape:export-xdpi="300"
     inkscape:export-ydpi="300" />
  <path
     style="fill:#000000;fill-opacity:1;fill-rule:nonzero"
     inkscape:connector-curvature="0"
     id="path51"
     d="m 1328.7501,1385.2784 29.2341,10.3845 0,22.1419 -29.2341,10.3845 z"
     inkscape:export-filename="/home/swarren/git_wa/presentations/lcs-graphics/LovelandCreatorSpace_Logo_Vertical_2col.png"
     inkscape:export-xdpi="300"
     inkscape:export-ydpi="300" />
  <path
     style="fill:#000000;fill-opacity:1;fill-rule:nonzero"
     inkscape:connector-curvature="0"
     id="path53"
     d="m 1253.5966,1502.9304 -10.3738,29.2039 -22.2077,0 -10.3738,-29.2039 z"
     inkscape:export-filename="/home/swarren/git_wa/presentations/lcs-graphics/LovelandCreatorSpace_Logo_Vertical_2col.png"
     inkscape:export-xdpi="300"
     inkscape:export-ydpi="300" />
  <path
     style="fill:#000000;fill-opacity:1;fill-rule:nonzero"
     inkscape:connector-curvature="0"
     id="path55"
     d="m 1284.933,1323.4832 27.9858,-13.3149 15.7015,15.7015 -13.315,27.9857 z"
     inkscape:export-filename="/home/swarren/git_wa/presentations/lcs-graphics/LovelandCreatorSpace_Logo_Vertical_2col.png"
     inkscape:export-xdpi="300"
     inkscape:export-ydpi="300" />
  <path
     style="fill:#000000;fill-opacity:1;fill-rule:nonzero"
     inkscape:connector-curvature="0"
     id="path57"
     d="m 1148.5986,1353.5348 -13.3279,-28.0131 15.6575,-15.6576 28.0132,13.3279 z"
     inkscape:export-filename="/home/swarren/git_wa/presentations/lcs-graphics/LovelandCreatorSpace_Logo_Vertical_2col.png"
     inkscape:export-xdpi="300"
     inkscape:export-ydpi="300" />
  <path
     style="fill:#000000;fill-opacity:1;fill-rule:nonzero"
     inkscape:connector-curvature="0"
     id="path59"
     d="m 1315.5939,1459.8446 13.3279,28.0132 -15.6575,15.6576 -28.0132,-13.328 z"
     inkscape:export-filename="/home/swarren/git_wa/presentations/lcs-graphics/LovelandCreatorSpace_Logo_Vertical_2col.png"
     inkscape:export-xdpi="300"
     inkscape:export-ydpi="300" />
  <path
     style="fill:#000000;fill-opacity:1;fill-rule:nonzero"
     inkscape:connector-curvature="0"
     id="path61"
     d="m 1179.2621,1489.899 -27.9858,13.3149 -15.7017,-15.7015 13.3149,-27.9858 z"
     inkscape:export-filename="/home/swarren/git_wa/presentations/lcs-graphics/LovelandCreatorSpace_Logo_Vertical_2col.png"
     inkscape:export-xdpi="300"
     inkscape:export-ydpi="300" />
  <path
     style="fill:#ffffff;fill-opacity:1;fill-rule:nonzero"
     inkscape:connector-curvature="0"
     id="path63"
     d="m 1193.0912,1406.6804 0,0 c 0,-21.3252 17.4729,-38.6127 39.0269,-38.6127 l 0,0 c 10.3508,0 20.2773,4.0681 27.5964,11.3095 7.3188,7.2412 11.4307,17.0625 11.4307,27.3032 l 0,0 c 0,21.3252 -17.4729,38.6127 -39.0271,38.6127 l 0,0 c -21.554,0 -39.0269,-17.2875 -39.0269,-38.6127 z"
     inkscape:export-filename="/home/swarren/git_wa/presentations/lcs-graphics/LovelandCreatorSpace_Logo_Vertical_2col.png"
     inkscape:export-xdpi="300"
     inkscape:export-ydpi="300" />
  <path
     style="fill:#000000;fill-opacity:1;fill-rule:nonzero"
     inkscape:connector-curvature="0"
     id="path65"
     d="m 1353.9198,1554.4903 0,0 c 21.5835,-80.5724 104.1731,-128.4421 184.469,-106.9203 l 0,0 c 38.5593,10.3352 71.4221,35.6176 91.3586,70.2852 19.9366,34.6676 25.314,75.8807 14.9493,114.573 l 0,0 c -21.5838,80.5724 -104.1734,128.4421 -184.469,106.9203 l 0,0 c -80.2959,-21.522 -127.8916,-104.2858 -106.3079,-184.8582 z"
     inkscape:export-filename="/home/swarren/git_wa/presentations/lcs-graphics/LovelandCreatorSpace_Logo_Vertical_2col.png"
     inkscape:export-xdpi="300"
     inkscape:export-ydpi="300" />
  <path
     style="fill:#000000;fill-opacity:1;fill-rule:nonzero"
     inkscape:connector-curvature="0"
     id="path67"
     d="m 1505.7382,1443.2887 26.8149,-38.9387 32.5103,8.7138 3.7583,47.1333 z"
     inkscape:export-filename="/home/swarren/git_wa/presentations/lcs-graphics/LovelandCreatorSpace_Logo_Vertical_2col.png"
     inkscape:export-xdpi="300"
     inkscape:export-ydpi="300" />
  <path
     style="fill:#000000;fill-opacity:1;fill-rule:nonzero"
     inkscape:connector-curvature="0"
     id="path69"
     d="m 1348.9193,1587.0818 -38.8474,-26.7585 8.7685,-32.7331 47.0184,-3.7438 z"
     inkscape:export-filename="/home/swarren/git_wa/presentations/lcs-graphics/LovelandCreatorSpace_Logo_Vertical_2col.png"
     inkscape:export-xdpi="300"
     inkscape:export-ydpi="300" />
  <path
     style="fill:#000000;fill-opacity:1;fill-rule:nonzero"
     inkscape:connector-curvature="0"
     id="path71"
     d="m 1649.6864,1599.9217 38.8472,26.7585 -8.7683,32.7331 -47.0184,3.7438 z"
     inkscape:export-filename="/home/swarren/git_wa/presentations/lcs-graphics/LovelandCreatorSpace_Logo_Vertical_2col.png"
     inkscape:export-xdpi="300"
     inkscape:export-ydpi="300" />
  <path
     style="fill:#000000;fill-opacity:1;fill-rule:nonzero"
     inkscape:connector-curvature="0"
     id="path73"
     d="m 1492.8729,1743.7162 -26.8152,38.9386 -32.5102,-8.7137 -3.7581,-47.1335 z"
     inkscape:export-filename="/home/swarren/git_wa/presentations/lcs-graphics/LovelandCreatorSpace_Logo_Vertical_2col.png"
     inkscape:export-xdpi="300"
     inkscape:export-ydpi="300" />
  <path
     style="fill:#000000;fill-opacity:1;fill-rule:nonzero"
     inkscape:connector-curvature="0"
     id="path75"
     d="m 1609.7313,1491.61 46.3545,-8.6074 16.863,29.323 -30.603,35.9979 z"
     inkscape:export-filename="/home/swarren/git_wa/presentations/lcs-graphics/LovelandCreatorSpace_Logo_Vertical_2col.png"
     inkscape:export-xdpi="300"
     inkscape:export-ydpi="300" />
  <path
     style="fill:#000000;fill-opacity:1;fill-rule:nonzero"
     inkscape:connector-curvature="0"
     id="path77"
     d="m 1397.6496,1482.2303 -8.5129,-46.5287 29.1716,-16.9081 35.8801,30.6663 z"
     inkscape:export-filename="/home/swarren/git_wa/presentations/lcs-graphics/LovelandCreatorSpace_Logo_Vertical_2col.png"
     inkscape:export-xdpi="300"
     inkscape:export-ydpi="300" />
  <path
     style="fill:#000000;fill-opacity:1;fill-rule:nonzero"
     inkscape:connector-curvature="0"
     id="path79"
     d="m 1600.9296,1704.6271 8.5129,46.5287 -29.1716,16.9082 -35.8804,-30.6663 z"
     inkscape:export-filename="/home/swarren/git_wa/presentations/lcs-graphics/LovelandCreatorSpace_Logo_Vertical_2col.png"
     inkscape:export-xdpi="300"
     inkscape:export-ydpi="300" />
  <path
     style="fill:#000000;fill-opacity:1;fill-rule:nonzero"
     inkscape:connector-curvature="0"
     id="path81"
     d="m 1388.8506,1695.2522 -46.3545,8.6074 -16.863,-29.323 30.603,-35.9979 z"
     inkscape:export-filename="/home/swarren/git_wa/presentations/lcs-graphics/LovelandCreatorSpace_Logo_Vertical_2col.png"
     inkscape:export-xdpi="300"
     inkscape:export-ydpi="300" />
  <path
     style="fill:#ffffff;fill-opacity:1;fill-rule:nonzero"
     inkscape:connector-curvature="0"
     id="path83"
     d="m 1442.0109,1578.0614 0,0 c 8.4185,-31.4257 40.9033,-50.0233 72.5571,-41.5391 l 0,0 c 15.201,4.0744 28.1731,13.9767 36.063,27.5287 7.8902,13.552 10.0515,29.6436 6.0091,44.7348 l 0,0 c -8.4185,31.4256 -40.9034,50.0233 -72.5572,41.539 l 0,0 c -31.654,-8.4843 -50.4902,-40.8377 -42.072,-72.2634 z"
     inkscape:export-filename="/home/swarren/git_wa/presentations/lcs-graphics/LovelandCreatorSpace_Logo_Vertical_2col.png"
     inkscape:export-xdpi="300"
     inkscape:export-ydpi="300" />
  <path
     style="fill:#000000;fill-opacity:1;fill-rule:nonzero"
     inkscape:connector-curvature="0"
     id="path85"
     d="m 1222.7376,1629.2171 0,0 c 0,-23.7471 19.2507,-42.9978 42.9978,-42.9978 l 0,0 c 11.4036,0 22.3403,4.5301 30.4041,12.5937 8.0634,8.0638 12.5937,19.0004 12.5937,30.4041 l 0,0 c 0,23.7469 -19.2507,42.9977 -42.9978,42.9977 l 0,0 c -23.7471,0 -42.9978,-19.2508 -42.9978,-42.9977 z"
     inkscape:export-filename="/home/swarren/git_wa/presentations/lcs-graphics/LovelandCreatorSpace_Logo_Vertical_2col.png"
     inkscape:export-xdpi="300"
     inkscape:export-ydpi="300" />
  <path
     style="fill:#000000;fill-opacity:1;fill-rule:nonzero"
     inkscape:connector-curvature="0"
     id="path87"
     d="m 1256.4679,1587.6767 4.4797,-12.611 9.5706,0 4.4797,12.611 z"
     inkscape:export-filename="/home/swarren/git_wa/presentations/lcs-graphics/LovelandCreatorSpace_Logo_Vertical_2col.png"
     inkscape:export-xdpi="300"
     inkscape:export-ydpi="300" />
  <path
     style="fill:#000000;fill-opacity:1;fill-rule:nonzero"
     inkscape:connector-curvature="0"
     id="path89"
     d="m 1224.047,1638.4816 -12.6111,-4.4796 0,-9.5707 12.6111,-4.4796 z"
     inkscape:export-filename="/home/swarren/git_wa/presentations/lcs-graphics/LovelandCreatorSpace_Logo_Vertical_2col.png"
     inkscape:export-xdpi="300"
     inkscape:export-ydpi="300" />
  <path
     style="fill:#000000;fill-opacity:1;fill-rule:nonzero"
     inkscape:connector-curvature="0"
     id="path91"
     d="m 1307.4174,1619.9517 12.6111,4.4796 0,9.5707 -12.6111,4.4796 z"
     inkscape:export-filename="/home/swarren/git_wa/presentations/lcs-graphics/LovelandCreatorSpace_Logo_Vertical_2col.png"
     inkscape:export-xdpi="300"
     inkscape:export-ydpi="300" />
  <path
     style="fill:#000000;fill-opacity:1;fill-rule:nonzero"
     inkscape:connector-curvature="0"
     id="path93"
     d="m 1274.9979,1670.7566 -4.4797,12.611 -9.5706,0 -4.4797,-12.611 z"
     inkscape:export-filename="/home/swarren/git_wa/presentations/lcs-graphics/LovelandCreatorSpace_Logo_Vertical_2col.png"
     inkscape:export-xdpi="300"
     inkscape:export-ydpi="300" />
  <path
     style="fill:#000000;fill-opacity:1;fill-rule:nonzero"
     inkscape:connector-curvature="0"
     id="path95"
     d="m 1278.4746,1588.6083 10.1848,-8.6813 8.2883,4.7853 -2.4262,13.1609 z"
     inkscape:export-filename="/home/swarren/git_wa/presentations/lcs-graphics/LovelandCreatorSpace_Logo_Vertical_2col.png"
     inkscape:export-xdpi="300"
     inkscape:export-ydpi="300" />
  <path
     style="fill:#000000;fill-opacity:1;fill-rule:nonzero"
     inkscape:connector-curvature="0"
     id="path97"
     d="m 1224.9956,1616.3948 -8.6814,-10.1848 4.7854,-8.2882 13.1609,2.426 z"
     inkscape:export-filename="/home/swarren/git_wa/presentations/lcs-graphics/LovelandCreatorSpace_Logo_Vertical_2col.png"
     inkscape:export-xdpi="300"
     inkscape:export-ydpi="300" />
  <path
     style="fill:#000000;fill-opacity:1;fill-rule:nonzero"
     inkscape:connector-curvature="0"
     id="path99"
     d="m 1306.4594,1642.0331 8.6812,10.1848 -4.7854,8.2882 -13.1609,-2.426 z"
     inkscape:export-filename="/home/swarren/git_wa/presentations/lcs-graphics/LovelandCreatorSpace_Logo_Vertical_2col.png"
     inkscape:export-xdpi="300"
     inkscape:export-ydpi="300" />
  <path
     style="fill:#000000;fill-opacity:1;fill-rule:nonzero"
     inkscape:connector-curvature="0"
     id="path101"
     d="m 1252.9816,1669.8205 -10.1848,8.6813 -8.2883,-4.7854 2.426,-13.1609 z"
     inkscape:export-filename="/home/swarren/git_wa/presentations/lcs-graphics/LovelandCreatorSpace_Logo_Vertical_2col.png"
     inkscape:export-xdpi="300"
     inkscape:export-ydpi="300" />
  <path
     style="fill:#000000;fill-opacity:1;fill-rule:nonzero"
     inkscape:connector-curvature="0"
     id="path103"
     d="m 1297.0802,1600.419 13.1609,-2.426 4.7854,8.2882 -8.6812,10.1848 z"
     inkscape:export-filename="/home/swarren/git_wa/presentations/lcs-graphics/LovelandCreatorSpace_Logo_Vertical_2col.png"
     inkscape:export-xdpi="300"
     inkscape:export-ydpi="300" />
  <path
     style="fill:#000000;fill-opacity:1;fill-rule:nonzero"
     inkscape:connector-curvature="0"
     id="path105"
     d="m 1236.8726,1597.7448 -2.426,-13.1609 8.2881,-4.7853 10.1848,8.6813 z"
     inkscape:export-filename="/home/swarren/git_wa/presentations/lcs-graphics/LovelandCreatorSpace_Logo_Vertical_2col.png"
     inkscape:export-xdpi="300"
     inkscape:export-ydpi="300" />
  <path
     style="fill:#000000;fill-opacity:1;fill-rule:nonzero"
     inkscape:connector-curvature="0"
     id="path107"
     d="m 1294.6049,1660.6788 2.426,13.1609 -8.2881,4.7853 -10.1848,-8.6812 z"
     inkscape:export-filename="/home/swarren/git_wa/presentations/lcs-graphics/LovelandCreatorSpace_Logo_Vertical_2col.png"
     inkscape:export-xdpi="300"
     inkscape:export-ydpi="300" />
  <path
     style="fill:#000000;fill-opacity:1;fill-rule:nonzero"
     inkscape:connector-curvature="0"
     id="path109"
     d="m 1234.3981,1658.0059 -13.1609,2.4261 -4.7854,-8.2882 8.6814,-10.1848 z"
     inkscape:export-filename="/home/swarren/git_wa/presentations/lcs-graphics/LovelandCreatorSpace_Logo_Vertical_2col.png"
     inkscape:export-xdpi="300"
     inkscape:export-ydpi="300" />
  <path
     style="fill:#ffffff;fill-opacity:1;fill-rule:nonzero"
     inkscape:connector-curvature="0"
     id="path111"
     d="m 1252.9391,1629.2228 0,0 c 0,-7.043 5.7346,-12.7523 12.8088,-12.7523 l 0,0 c 3.397,0 6.6551,1.3435 9.0572,3.7351 2.4021,2.3915 3.7517,5.635 3.7517,9.0172 l 0,0 c 0,7.0428 -5.7349,12.7522 -12.8089,12.7522 l 0,0 c -7.0742,0 -12.8088,-5.7094 -12.8088,-12.7522 z"
     inkscape:export-filename="/home/swarren/git_wa/presentations/lcs-graphics/LovelandCreatorSpace_Logo_Vertical_2col.png"
     inkscape:export-xdpi="300"
     inkscape:export-ydpi="300" />
  <path
     style="fill:#000000;fill-opacity:1;fill-rule:nonzero"
     inkscape:connector-curvature="0"
     id="path113"
     d="m 1207.5266,1796.7865 0,0 c 0,-47.3798 38.4663,-85.7887 85.917,-85.7887 l 0,0 c 22.7866,0 44.6399,9.0385 60.7524,25.127 16.1126,16.0885 25.1646,37.9091 25.1646,60.6617 l 0,0 c 0,47.3798 -38.4663,85.7887 -85.917,85.7887 l 0,0 c -47.4507,0 -85.917,-38.4089 -85.917,-85.7887 z"
     inkscape:export-filename="/home/swarren/git_wa/presentations/lcs-graphics/LovelandCreatorSpace_Logo_Vertical_2col.png"
     inkscape:export-xdpi="300"
     inkscape:export-ydpi="300" />
  <path
     style="fill:#000000;fill-opacity:1;fill-rule:nonzero"
     inkscape:connector-curvature="0"
     id="path115"
     d="m 1274.809,1713.4504 8.9895,-25.3069 19.3001,0 8.9895,25.3069 z"
     inkscape:export-filename="/home/swarren/git_wa/presentations/lcs-graphics/LovelandCreatorSpace_Logo_Vertical_2col.png"
     inkscape:export-xdpi="300"
     inkscape:export-ydpi="300" />
  <path
     style="fill:#000000;fill-opacity:1;fill-rule:nonzero"
     inkscape:connector-curvature="0"
     id="path117"
     d="m 1209.5832,1815.4031 -25.3708,-9.0123 0,-19.1603 25.3708,-9.0123 z"
     inkscape:export-filename="/home/swarren/git_wa/presentations/lcs-graphics/LovelandCreatorSpace_Logo_Vertical_2col.png"
     inkscape:export-xdpi="300"
     inkscape:export-ydpi="300" />
  <path
     style="fill:#000000;fill-opacity:1;fill-rule:nonzero"
     inkscape:connector-curvature="0"
     id="path119"
     d="m 1377.3106,1778.2182 25.3708,9.0123 0,19.1603 -25.3708,9.0123 z"
     inkscape:export-filename="/home/swarren/git_wa/presentations/lcs-graphics/LovelandCreatorSpace_Logo_Vertical_2col.png"
     inkscape:export-xdpi="300"
     inkscape:export-ydpi="300" />
  <path
     style="fill:#000000;fill-opacity:1;fill-rule:nonzero"
     inkscape:connector-curvature="0"
     id="path121"
     d="m 1312.088,1880.1709 -8.9895,25.3069 -19.3001,0 -8.9895,-25.3069 z"
     inkscape:export-filename="/home/swarren/git_wa/presentations/lcs-graphics/LovelandCreatorSpace_Logo_Vertical_2col.png"
     inkscape:export-xdpi="300"
     inkscape:export-ydpi="300" />
  <path
     style="fill:#000000;fill-opacity:1;fill-rule:nonzero"
     inkscape:connector-curvature="0"
     id="path123"
     d="m 1339.2836,1724.669 24.2876,-11.5382 13.6267,13.6063 -11.5554,24.2514 z"
     inkscape:export-filename="/home/swarren/git_wa/presentations/lcs-graphics/LovelandCreatorSpace_Logo_Vertical_2col.png"
     inkscape:export-xdpi="300"
     inkscape:export-ydpi="300" />
  <path
     style="fill:#000000;fill-opacity:1;fill-rule:nonzero"
     inkscape:connector-curvature="0"
     id="path125"
     d="m 1220.9647,1750.7106 -11.5667,-24.275 13.5884,-13.5684 24.3116,11.5496 z"
     inkscape:export-filename="/home/swarren/git_wa/presentations/lcs-graphics/LovelandCreatorSpace_Logo_Vertical_2col.png"
     inkscape:export-xdpi="300"
     inkscape:export-ydpi="300" />
  <path
     style="fill:#000000;fill-opacity:1;fill-rule:nonzero"
     inkscape:connector-curvature="0"
     id="path127"
     d="m 1365.8927,1842.8345 11.5669,24.275 -13.5886,13.5683 -24.3113,-11.5495 z"
     inkscape:export-filename="/home/swarren/git_wa/presentations/lcs-graphics/LovelandCreatorSpace_Logo_Vertical_2col.png"
     inkscape:export-xdpi="300"
     inkscape:export-ydpi="300" />
  <path
     style="fill:#000000;fill-opacity:1;fill-rule:nonzero"
     inkscape:connector-curvature="0"
     id="path129"
     d="m 1247.5763,1868.8783 -24.2876,11.5382 -13.6267,-13.6063 11.5554,-24.2514 z"
     inkscape:export-filename="/home/swarren/git_wa/presentations/lcs-graphics/LovelandCreatorSpace_Logo_Vertical_2col.png"
     inkscape:export-xdpi="300"
     inkscape:export-ydpi="300" />
  <path
     style="fill:#ffffff;fill-opacity:1;fill-rule:nonzero"
     inkscape:connector-curvature="0"
     id="path131"
     d="m 1259.578,1796.7644 0,0 c 0,-18.4795 15.1641,-33.4602 33.8699,-33.4602 l 0,0 c 8.9826,0 17.5976,3.5253 23.9494,9.8003 6.3518,6.275 9.9204,14.7858 9.9204,23.6599 l 0,0 c 0,18.4796 -15.164,33.4602 -33.8698,33.4602 l 0,0 c -18.7058,0 -33.8699,-14.9806 -33.8699,-33.4602 z"
     inkscape:export-filename="/home/swarren/git_wa/presentations/lcs-graphics/LovelandCreatorSpace_Logo_Vertical_2col.png"
     inkscape:export-xdpi="300"
     inkscape:export-ydpi="300" />
  <path
     style="fill:#ffffff;fill-rule:nonzero"
     inkscape:connector-curvature="0"
     id="path133"
     d="m 209.1554,815.56694 4.5985,-42.29919 11.0341,78.16009 -0.9186,-57.92914 15.6326,-45.979 27.5852,-80 25.748,-44.13648 -9.1968,27.58527 29.4252,-43.21784 25.748,-54.25195 53.3333,-46.89764 40.4594,-41.37799 50.5748,-34.02362 21.1496,-14.71387 -37.7008,14.71387 -45.9764,17.46985 -61.6089,50.57476 22.0682,-27.58526 -50.5748,49.65619 -48.7348,57.92907 -35.8636,66.2074 -22.9869,49.65613 -23.9081,63.44886 z"
     inkscape:export-filename="/home/swarren/git_wa/presentations/lcs-graphics/LovelandCreatorSpace_Logo_Vertical_2col.png"
     inkscape:export-xdpi="300"
     inkscape:export-ydpi="300" />
  <path
     style="fill:#ffffff;fill-rule:nonzero"
     inkscape:connector-curvature="0"
     id="path135"
     d="m 328.6962,683.1522 -1.84,27.58795 14.714,-25.74805 11.0341,16.55121 -6.4357,25.74805 -16.5511,70.8031 -9.1969,9.1969 -0.9186,18.39105 9.1942,-10.11548 1.8398,66.20737 -16.5511,26.6667 -22.9895,-19.3124 0,-77.23885 7.3569,-34.02362 11.9528,11.95276 -3.6771,-33.10236 2.7585,-17.47247 8.2755,-11.9527 3.6773,11.9527 -1.8373,-31.26245 z"
     inkscape:export-filename="/home/swarren/git_wa/presentations/lcs-graphics/LovelandCreatorSpace_Logo_Vertical_2col.png"
     inkscape:export-xdpi="300"
     inkscape:export-ydpi="300" />
  <path
     style="fill:#ffffff;fill-rule:nonzero"
     inkscape:connector-curvature="0"
     id="path137"
     d="m 220.1896,902.9239 -13.7926,-25.748 0,43.2178 -8.2756,50.5749 5.5171,29.4251 2.7585,15.6326 3.6797,-28.5066 6.4358,48.7376 -3.6773,10.1128 -6.4382,-14.7113 8.2755,35.8609 19.3124,31.2652 28.5039,44.139 31.2651,40.4594 -35.8609,-59.7718 -11.9554,-53.3332 -8.2756,-33.1024 -16.5511,-104.8268"
     inkscape:export-filename="/home/swarren/git_wa/presentations/lcs-graphics/LovelandCreatorSpace_Logo_Vertical_2col.png"
     inkscape:export-xdpi="300"
     inkscape:export-ydpi="300" />
  <path
     style="fill:#000000;fill-opacity:0;fill-rule:nonzero"
     inkscape:connector-curvature="0"
     id="path139"
     d="m -1575.437,3374.8111 3156.63,0 0,355.3386 -3156.63,0 z" />
  <path
     style="fill:#000000;fill-rule:nonzero"
     inkscape:connector-curvature="0"
     id="path141"
     d="m -1362.096,3462.3736 36.625,0 0,18.3281 -36.625,0 0,-18.3281 z m 173.7511,-33.1406 q 0,-3.2969 1.25,-6.2344 1.2656,-2.9375 3.4531,-5.0938 2.2032,-2.1718 5.125,-3.4531 2.9375,-1.2969 6.25,-1.2969 l 50.5157,0 q 3.3125,0 6.25,1.2969 2.9375,1.2813 5.125,3.4531 2.1875,2.1563 3.4375,5.0938 1.2656,2.9375 1.2656,6.2344 l 0,14.7812 -18.8438,0 0,-12.0156 -44.9843,0 0,60.9687 44.9843,0 0,-11.9531 18.8438,0 0,14.7188 q 0,3.2968 -1.2656,6.2343 -1.25,2.9375 -3.4375,5.1407 -2.1875,2.1875 -5.1407,3.4531 -2.9375,1.25 -6.2343,1.25 l -50.5157,0 q -3.2968,0 -6.2343,-1.25 -2.9375,-1.2656 -5.1407,-3.4531 -2.1875,-2.2032 -3.4531,-5.1407 -1.25,-2.9375 -1.25,-6.2343 l 0,-66.5 z m 297.72066,19.9375 q 0,21.8281 -15.34375,24.3437 l 17.8125,38.2969 -20.82812,0 -17.28125,-37.2188 -24.625,0 0,37.2188 -18.84375,0 0,-98.6563 53.73437,0 q 25.375,0 25.375,25.4219 l 0,10.5938 z m -60.26562,6.5781 34.1875,0 q 4.1875,0 5.70312,-1.5156 1.53125,-1.5313 1.53125,-5.7188 l 0,-9.2812 q 0,-4.1875 -1.53125,-5.7032 -1.51562,-1.5312 -5.70312,-1.5312 l -34.1875,0 0,23.75 z m 197.09839,-42.5938 73.39062,0 0,18.8438 -54.54687,0 0,21.0937 46.5625,0 0,18.8438 -46.5625,0 0,21.0312 54.54687,0 0,18.8438 -73.39062,0 0,-98.6563 z m 253.84088,0 38.03129,98.6563 -19.25004,0 -8.23438,-21.4375 -38.21875,0 -8.23437,21.4375 -19.25,0 38.03125,-98.6563 17.125,0 z m -20.45313,58.375 23.73438,0 -11.82813,-30.6093 -11.90625,30.6093 z m 179.83552,-58.375 80.0156,0 0,18.8438 -30.5937,0 0,79.8125 -18.8438,0 0,-79.8125 -30.5781,0 0,-18.8438 z m 295.9244,82.5782 q 0,3.2968 -1.2656,6.2343 -1.25,2.9375 -3.4531,5.1407 -2.1875,2.1875 -5.1406,3.4531 -2.9375,1.25 -6.2188,1.25 l -53.1875,0 q -3.2969,0 -6.2344,-1.25 -2.9375,-1.2656 -5.1406,-3.4531 -2.1875,-2.2032 -3.4531,-5.1407 -1.25,-2.9375 -1.25,-6.2343 l 0,-66.5 q 0,-3.2969 1.25,-6.2344 1.2656,-2.9375 3.4531,-5.0938 2.2031,-2.1718 5.125,-3.4531 2.9375,-1.2969 6.25,-1.2969 l 53.1875,0 q 3.2969,0 6.2344,1.2969 2.9375,1.2813 5.125,3.4375 2.2031,2.1563 3.4531,5.1094 1.2656,2.9375 1.2656,6.2344 l 0,66.5 z m -66.5,-63.7344 0,60.9687 47.6563,0 0,-60.9687 -47.6563,0 z m 284.1502,17.1719 q 0,21.8281 -15.3438,24.3437 l 17.8125,38.2969 -20.8281,0 -17.2812,-37.2188 -24.625,0 0,37.2188 -18.8438,0 0,-98.6563 53.7344,0 q 25.375,0 25.375,25.4219 l 0,10.5938 z m -60.2656,6.5781 34.1875,0 q 4.1875,0 5.7031,-1.5156 1.5312,-1.5313 1.5312,-5.7188 l 0,-9.2812 q 0,-4.1875 -1.5312,-5.7032 -1.5156,-1.5312 -5.7031,-1.5312 l -34.1875,0 0,23.75 z m 213.1765,16.1875 q -3.3125,0 -6.25,-1.2813 -2.9219,-1.2968 -5.125,-3.4531 -2.1875,-2.1562 -3.4532,-5.0937 -1.25,-2.9532 -1.25,-6.25 l 0,-26.625 q 0,-3.2969 1.25,-6.2344 1.2657,-2.9375 3.4532,-5.0938 2.2031,-2.1718 5.125,-3.4531 2.9375,-1.2969 6.25,-1.2969 l 45.2031,0 q 3.2969,0 6.2344,1.2969 2.9375,1.2813 5.125,3.4375 2.2031,2.1563 3.4531,5.1094 1.2656,2.9375 1.2656,6.2344 l 0,14.7812 -18.8437,0 0,-12.0156 -39.6719,0 0,21.0937 42.4375,0 q 3.2812,0 6.2187,1.2657 2.9532,1.25 5.1407,3.4531 2.2031,2.1875 3.4531,5.125 1.2656,2.9375 1.2656,6.2344 l 0,26.5625 q 0,3.2968 -1.2656,6.2343 -1.25,2.9375 -3.4531,5.1407 -2.1875,2.1875 -5.1407,3.4531 -2.9375,1.25 -6.2187,1.25 l -46.5,0 q -3.2969,0 -6.25,-1.25 -2.9375,-1.2656 -5.125,-3.4531 -2.1875,-2.2032 -3.4531,-5.1407 -1.25,-2.9375 -1.25,-6.2343 l 0,-14.7188 18.8437,0 0,11.9531 40.9688,0 0,-21.0312 -42.4375,0 z m 199.864,39.875 0,-98.6563 53.7342,0 q 25.375,0 25.375,25.4219 l 0,13.25 q 0,25.4375 -25.375,25.4375 l -34.8905,0 0,34.5469 -18.8437,0 z m 18.8437,-53.3906 34.1874,0 q 4.1875,0 5.7031,-1.5157 1.5313,-1.5312 1.5313,-5.7187 l 0,-11.9531 q 0,-4.1875 -1.5313,-5.7032 -1.5156,-1.5312 -5.7031,-1.5312 l -34.1874,0 0,26.4219 z m 239.3588,-45.2657 38.0312,98.6563 -19.25,0 -8.2343,-21.4375 -38.2188,0 -8.2344,21.4375 -19.25,0 38.0313,-98.6563 17.125,0 z m -20.4531,58.375 23.7343,0 -11.8281,-30.6093 -11.9062,30.6093 z m 187.8198,-42.2968 q 0,-3.2969 1.25,-6.2344 1.2656,-2.9375 3.4531,-5.0938 2.2031,-2.1718 5.125,-3.4531 2.9375,-1.2969 6.25,-1.2969 l 50.5156,0 q 3.3125,0 6.25,1.2969 2.9375,1.2813 5.125,3.4531 2.1875,2.1563 3.4375,5.0938 1.2657,2.9375 1.2657,6.2344 l 0,14.7812 -18.8438,0 0,-12.0156 -44.9844,0 0,60.9687 44.9844,0 0,-11.9531 18.8438,0 0,14.7188 q 0,3.2968 -1.2657,6.2343 -1.25,2.9375 -3.4375,5.1407 -2.1875,2.1875 -5.1406,3.4531 -2.9375,1.25 -6.2344,1.25 l -50.5156,0 q -3.2969,0 -6.2344,-1.25 -2.9375,-1.2656 -5.1406,-3.4531 -2.1875,-2.2032 -3.4531,-5.1407 -1.25,-2.9375 -1.25,-6.2343 l 0,-66.5 z m 218.6113,-16.0782 73.3906,0 0,18.8438 -54.5468,0 0,21.0937 46.5625,0 0,18.8438 -46.5625,0 0,21.0312 54.5468,0 0,18.8438 -73.3906,0 0,-98.6563 z m 166.6653,49.2188 36.625,0 0,18.3281 -36.625,0 0,-18.3281 z" />
  <path
     style="fill:#000000;fill-opacity:0;fill-rule:nonzero"
     inkscape:connector-curvature="0"
     id="path143"
     d="m -1155.7048,3116.0708 2317.1654,0 0,314.9607 -2317.1654,0 z" />
  <path
     style="fill:#000000;fill-rule:nonzero"
     inkscape:connector-curvature="0"
     id="path145"
     d="m -830.1221,3203.1604 q 0,-0.5781 0.78125,-1.1562 0.78125,-0.5938 1.84375,-1.1719 1.07813,-0.5938 2.25,-0.8906 1.17188,-0.2969 1.95313,-0.094 0.78125,0.1875 1.95312,1.0781 1.17188,0.875 2.25,1.8594 1.07813,0.9688 1.85938,2.0469 0.78125,1.0625 0.78125,1.6562 l 0,108.3907 q 2.34375,-2.9219 7.90625,-4 5.5625,-1.0782 13.17187,-1.4688 7.625,-0.3906 16.70313,-0.4844 9.09375,-0.094 18.46875,-0.9687 9.375,-0.8906 18.45312,-3.125 9.07813,-2.25 16.70313,-6.75 7.21875,-4.2969 9.85937,-4.3906 2.64063,-0.094 1.85938,2.4531 -0.78125,2.5312 -4.6875,6.6406 -3.90625,4.0938 -9.67188,8.2031 -5.76562,4.0938 -13,7.2188 -7.21875,3.125 -14.82812,3.5156 -1.95313,0.1875 -5.85938,0.1875 -3.90625,0 -8.98437,0.1094 -5.07813,0.094 -10.54688,0 -5.46875,-0.1094 -10.54687,-0.1094 l -8.98438,0 q -3.90625,0 -5.85937,-0.1875 -2.34375,1.75 -4.79688,5.9531 -2.4375,4.2032 -5.26562,8.1094 -2.82813,3.9063 -6.15625,6.25 -3.3125,2.3438 -7.60938,0.1875 l 0,-139.0625 z m 242.38281,135.5469 q -9.76562,-9.7656 -12.21875,-21.6719 -2.4375,-11.9219 -1.17187,-24.5156 1.28125,-12.5938 4.6875,-25.0938 3.42187,-12.5 5.375,-23.4375 0.78125,-4.2968 1.17187,-10.3437 0.39063,-6.0625 0.96875,-12.7031 0.59375,-6.6407 1.5625,-13.0782 0.98438,-6.4531 3.14063,-11.5312 0.1875,-0.3906 1.35937,-1.6563 1.17188,-1.2812 1.95313,-1.6718 13.48437,-8 24.21875,-6.1407 10.75,1.8438 18.5625,10.5469 7.8125,8.6875 12.59375,22.6563 4.78125,13.9531 6.34375,29.875 1.5625,15.9218 -0.0937,32.2343 -1.65625,16.2969 -6.73438,29.875 -5.07812,13.5782 -13.78125,22.7657 -8.6875,9.1718 -20.98437,10.7343 -4.6875,0.5938 -8.20313,0.7813 -3.51562,0.2031 -6.64062,-0.3906 -3.125,-0.5938 -5.96875,-2.25 -2.82813,-1.6563 -6.14063,-4.9844 z m 10.15625,-6.8281 q 9.76563,6.6406 17.28125,5.7656 7.51563,-0.8906 12.98438,-6.9375 5.46875,-6.0625 8.98437,-16.2188 3.51563,-10.1562 5.375,-22.1562 1.85938,-12.0156 2.04688,-24.9063 0.20312,-12.8906 -0.78125,-24.2187 -0.96875,-11.3281 -3.21875,-20.2188 -2.25,-8.8906 -5.375,-12.9843 -7.21875,-9.5782 -12.59375,-12.7032 -5.375,-3.125 -9.375,-1.8437 -4,1.2656 -6.64063,6.25 -2.64062,4.9687 -4.10937,11.9062 -1.45313,6.9375 -1.95313,14.8438 -0.48437,7.9062 -0.0937,15.0469 0.39063,7.125 1.5625,12.7968 1.17188,5.6563 2.73438,7.7969 0.59375,0.7813 2.9375,2.5469 2.34375,1.75 5.26562,4 2.9375,2.25 5.76563,4.9844 2.82812,2.7343 4.48437,5.5625 1.67188,2.8281 1.5625,5.375 -0.0937,2.5312 -3.21875,4.6875 -2.53125,1.75 -5.5625,0.9687 -3.03125,-0.7812 -6.15625,-2.9219 -3.125,-2.1562 -6.0625,-5.4687 -2.92187,-3.3281 -5.46875,-6.4531 -2.53125,-3.125 -4.39062,-5.8594 -1.84375,-2.7344 -2.625,-3.9063 l -3.51563,6.6407 0,40.625 q 0,1.1718 0.96875,3.5156 0.98438,2.3437 2.4375,4.9844 1.46875,2.6406 3.21875,4.9843 1.76563,2.3438 3.53125,3.5157 z m 176.16404,-91.4063 q -0.5782,-0.7812 -2.5313,-3.125 -1.9531,-2.3437 -3.2344,-4.9844 -1.2656,-2.6406 -1.1718,-5.1718 0.1093,-2.5469 3.625,-3.7188 1.3593,-0.5781 4,-0.5781 2.6406,0 2.8281,0.5781 l 33.7969,81.4531 q 1.5625,-12.8906 4.1875,-26.1718 2.6406,-13.2813 6.9375,-26.0782 4.2968,-12.7968 10.6406,-24.6093 6.3594,-11.8125 15.5312,-21.5782 2.7344,-3.125 7.2188,-7.7187 4.5,-4.5938 8.8906,-8.8906 4.4063,-4.2969 7.625,-7.4219 3.2188,-3.125 3.4219,-3.125 l 10.1562,0 q 1.5625,2.3437 -0.6875,5.0781 -2.25,2.7344 -5.6718,5.1875 -3.4063,2.4375 -6.7344,4.2969 -3.3125,1.8437 -3.9063,2.4375 -15.625,15.625 -24.6093,32.2344 -8.9844,16.5937 -13.875,34.6562 -4.875,18.0625 -6.5313,37.7031 -1.6562,19.625 -2.4375,41.2969 l -1.375,0.7813 q -0.9687,0.3906 -2.0469,0.9843 -1.0781,0.5782 -2.0625,0.9688 -0.9687,0.3906 -1.3593,0.5937 -0.5782,0.3907 -1.8594,0.3907 -1.2656,0 -1.4531,-0.3907 l -37.3125,-105.0781 z m 233.9922,101.75 q -7.625,-5.6562 -10.0625,-13.4687 -2.4375,-7.8125 -3.6094,-17 0.3906,-2.7344 0.9687,-8.5938 0.5938,-5.8594 1.375,-13.1719 0.7813,-7.3281 1.4532,-15.5312 0.6875,-8.2031 1.375,-15.5313 0.6875,-7.3281 1.0781,-13.1875 0.3906,-5.8593 0.5781,-8.5937 0.2031,-1.5625 0.2031,-5.4688 l 0,-16.2031 q 0,-3.9062 -0.2031,-5.4687 l 3.5156,-3.5157 60.9375,-20.3125 6.8438,0 q 0.9687,2.7344 0.2812,5.8594 -0.6718,3.125 -3.7968,4.2969 l -50.7813,20.5 -3.3281,3.3281 q -0.1875,0.1875 -0.5781,4.0938 -0.3907,3.9062 -0.9844,9.2812 -0.5781,5.375 -1.1719,11.0469 -0.5781,5.6562 -0.7812,9.3594 0,0.9843 -0.094,3.4218 -0.094,2.4375 -0.094,5.0782 0,2.6406 0.094,5.0781 0.094,2.4375 0.094,3.4219 l 57.625,-30.4688 q 1.3593,-0.7812 2.0468,0.3906 0.6875,1.1719 0.6875,3.125 0,1.9532 -0.6875,3.9063 -0.6875,1.9531 -2.0468,2.7344 -3.3282,2.1406 -8.1094,4.875 -4.7813,2.7343 -9.9688,5.7656 -5.1718,3.0312 -10.3437,5.9687 -5.1719,2.9219 -9.2813,5.2657 -4.0937,2.3437 -6.7343,3.8125 -2.6407,1.4531 -2.8282,1.4531 l -13.6718,0 0,43.9531 q 0,8.9844 4,11.5313 4,2.5312 10.1562,1.0625 6.1563,-1.4688 13.375,-5.7657 7.2344,-4.2968 13.5781,-9.1718 6.3438,-4.8907 10.9375,-9.0782 4.5938,-4.2031 5.5625,-5.375 0.7813,-4.8906 2.1563,-8.0156 1.1719,-2.7344 3.125,-3.9062 1.9531,-1.1719 4.875,1.7656 1.1719,6.0469 -1.8594,13.0781 -3.0156,7.0313 -8.6875,13.6719 -5.6562,6.6406 -13.375,12.2187 -7.7187,5.5625 -15.625,8.7969 -7.9062,3.2188 -15.3281,3.5 -7.4219,0.2969 -12.8906,-3.8125 z M 12.0653,3203.1604 q 0,-0.5781 0.7813,-1.1562 0.7812,-0.5938 1.8437,-1.1719 1.0782,-0.5938 2.25,-0.8906 1.1719,-0.2969 1.9532,-0.094 0.7812,0.1875 1.9531,1.0781 1.1719,0.875 2.25,1.8594 1.0781,0.9688 1.8594,2.0469 0.7812,1.0625 0.7812,1.6562 l 0,108.3907 q 2.3438,-2.9219 7.9063,-4 5.5625,-1.0782 13.1718,-1.4688 7.625,-0.3906 16.7032,-0.4844 9.0937,-0.094 18.4687,-0.9687 9.375,-0.8906 18.4531,-3.125 9.0782,-2.25 16.7032,-6.75 7.2187,-4.2969 9.8593,-4.3906 2.6407,-0.094 1.8594,2.4531 -0.7812,2.5312 -4.6875,6.6406 -3.9062,4.0938 -9.6719,8.2031 -5.7656,4.0938 -13,7.2188 -7.2187,3.125 -14.8281,3.5156 -1.9531,0.1875 -5.8594,0.1875 -3.9062,0 -8.9843,0.1094 -5.0782,0.094 -10.5469,0 -5.4688,-0.1094 -10.5469,-0.1094 l -8.9844,0 q -3.9062,0 -5.8593,-0.1875 -2.3438,1.75 -4.7969,5.9531 -2.4375,4.2032 -5.2656,8.1094 -2.8282,3.9063 -6.1563,6.25 -3.3125,2.3438 -7.6094,0.1875 l 0,-139.0625 z m 339.4453,105.0781 q -0.1875,-0.9687 -1.4687,-3.5 -1.2656,-2.5468 -2.0469,-3.3281 -2.1406,-0.7812 -7.9062,-2.6406 -5.7657,-1.8594 -12.2188,-4.0938 -6.4375,-2.25 -12.2031,-4.2031 -5.75,-1.9531 -8.0938,-2.7344 -0.5937,-0.2031 -2.5468,-1.2656 -1.9532,-1.0781 -4.2969,-2.3437 -2.3438,-1.2813 -4.2969,-2.25 -1.9531,-0.9844 -2.5312,-0.9844 -3.7188,0 -7.0469,4.5 -3.3125,4.4844 -6.6406,11.125 -3.3125,6.6406 -7.0313,14.1719 -3.7031,7.5156 -8.2031,13.5781 -4.4844,6.0469 -9.8594,9.4687 -5.3594,3.4063 -12,1.6563 l 0,-6.8438 q 1.3594,-1.75 4.3906,-5.4531 3.0313,-3.7187 6.6407,-8.4062 3.6093,-4.6875 7.7031,-9.8594 4.1094,-5.1875 7.7187,-9.875 3.625,-4.6875 6.4532,-8.3906 2.8281,-3.7188 4.2031,-5.6719 2.5312,-3.3125 0.875,-9.2656 -1.6563,-5.9688 -4.8906,-12.7969 -3.2188,-6.8438 -6.9375,-13.6719 -3.7032,-6.8437 -5.2657,-11.7187 -1.5625,-4.8907 0.1875,-7.0313 1.7657,-2.1562 9.5782,0.3906 2.7343,8.2032 7.6093,16.7969 4.8907,8.5938 12.5157,13.6719 6.25,-4.1094 11.8125,-11.1406 5.5625,-7.0313 10.3437,-15.8125 4.7969,-8.7969 8.7969,-18.6563 4,-9.8594 7.2187,-19.5312 3.2344,-9.6719 5.5782,-18.2657 2.3437,-8.5937 3.9062,-14.8437 1.5625,-2.7344 4.3906,-4.2969 2.8282,-1.5625 5.5625,-2.5312 1.375,1.75 1.7657,8.5937 0.3906,6.8281 0.3906,16.7031 0,9.8594 -0.2969,21.875 -0.2969,12 -0.3906,24.2188 -0.094,12.2031 0.094,23.8281 0.2032,11.6094 1.0782,20.5 0.875,8.8906 2.625,14.3594 1.7656,5.4687 4.8906,5.4687 l 20.5156,0 0,12.1094 -17,0 q -3.5156,0 -2.7344,4.3906 0.7813,4.3907 3.6094,11.2344 2.8438,6.8281 6.6406,15.1406 3.8125,8.2969 6.4532,15.9063 2.6406,7.625 3.0312,13.875 0.3906,6.25 -3.5156,8.7969 -0.7813,0.3906 -3.4219,0.3906 -2.6406,0 -3.4219,-0.3906 -0.9687,-3.5157 -3.9062,-12.1094 -2.9219,-8.5938 -6.1563,-18.3594 -3.2187,-9.7812 -6.1562,-18.375 -2.9219,-8.5937 -4.0938,-12.1094 z m -33.7812,-30.6562 q 1.1719,0.5781 4.3906,2.0469 3.2188,1.4687 7.0313,3.125 3.8125,1.6562 7.3281,3.0312 3.5156,1.3594 5.0781,1.9531 0.3906,0.1875 1.5625,0.1875 1.1719,0 1.5625,-0.1875 0.7813,-8.0156 0,-20.125 -0.7812,-12.1093 -2.0625,-24.7968 -1.2656,-12.7032 -2.6406,-24.3125 -1.3594,-11.625 -1.9375,-18.6563 l -37.3125,67.7656 q 0.7812,0.5938 3.2187,2.0625 2.4532,1.4532 5.0782,3.125 2.6406,1.6563 5.0781,3.0313 2.4531,1.3594 3.625,1.75 z m 174.2187,64.6406 q -2.7343,-29.6875 -3.625,-59.375 -0.875,-29.6875 0.1094,-59.375 0.3906,-0.9687 1.6563,-3.6094 1.2656,-2.6406 3.125,-4.875 1.8593,-2.25 4.2031,-3.125 2.3437,-0.8906 4.6875,1.4532 l 16.9844,17 47.4687,78.125 0.9688,1.3593 q 1.1718,1.375 2.7343,2.8438 1.5625,1.4531 3.2188,2.3437 1.6719,0.875 3.2344,-0.1093 -0.2032,-3.125 -0.7969,-9.7657 -0.5781,-6.6406 -1.2656,-14.9375 -0.6719,-8.2968 -1.4532,-17.4687 -0.7812,-9.1875 -1.4687,-17.5781 -0.6875,-8.4063 -1.1719,-15.0469 -0.4844,-6.6406 -0.6875,-9.7656 -0.1875,-2.5469 -0.1875,-8.5 0,-5.9532 0.6719,-13.375 0.6875,-7.4219 2.1562,-15.2344 1.4688,-7.8125 4.2032,-13.7656 2.7343,-5.9688 6.8281,-8.9844 4.1094,-3.0313 9.9687,-1.0781 0.7813,0 2.0469,1.2656 1.2656,1.2656 1.2656,2.0469 -1.3593,1.7656 -3.3125,4.2031 -1.9531,2.4375 -3.8125,5.1719 -1.8593,2.7343 -3.625,5.5781 -1.75,2.8281 -2.5312,5.3594 -0.1875,2.5468 -0.1875,7.8281 0,5.2656 -0.1094,12 -0.094,6.7344 0,14.0625 0.1094,7.3281 0.1094,14.1562 l 0,11.9219 q 0,5.2656 0.1875,7.8125 0,1.5625 0.4844,7.5156 0.5,5.9532 1.0781,12.7969 0.5937,6.8281 1.1719,12.8906 0.5937,6.0469 0.5937,7.6094 0,1.9531 0.094,6.0625 0.094,4.0938 0.094,8.3906 0,4.2969 -0.094,7.9219 -0.094,3.6094 -0.094,4.5781 -0.2031,0.9844 -0.9844,2.9375 -0.7812,1.9532 -2.1562,3.5157 -1.3594,1.5625 -3.125,2.0468 -1.75,0.4844 -3.8906,-1.6562 l -23.8282,-23.6406 -43.9531,-71.2813 -5.2656,-3.3281 0,105.0781 q 0,2.7344 -1.6719,3.4219 -1.6562,0.6875 -3.7031,0.1875 -2.0469,-0.4844 -4,-1.5469 -1.9531,-1.0781 -2.3438,-2.0625 z m 263.8672,-12.2969 q 0.3907,-0.2031 0.875,-4.9843 0.4844,-4.7813 1.0625,-11.2188 0.5938,-6.4531 0.9844,-13.2812 0.3906,-6.8438 0.5938,-11.3438 0,-2.5312 0.094,-7.2187 0.094,-4.6875 0.094,-10.4532 0,-5.7656 0.094,-12.0156 0.1094,-6.25 0,-11.8125 -0.094,-5.5625 -0.1875,-9.8594 -0.094,-4.2968 -0.094,-6.25 0,-0.7812 -0.5,-2.7343 -0.4844,-1.9532 -0.9688,-4.0938 -0.4844,-2.1562 -1.0781,-4.0156 -0.5781,-1.8594 -0.9688,-2.6406 -6.8437,-0.5782 -13.875,0.7968 -7.0312,1.3594 -13.875,3.125 -6.8281,1.75 -13.5625,2.9219 -6.7343,1.1719 -12.7968,0 -1.5625,-3.3281 3.0312,-6.7344 4.5938,-3.4218 13.375,-6.0625 8.7969,-2.6406 20.5156,-4.2968 11.7188,-1.6563 24.2188,-1.4532 12.5,0.1875 24.6094,2.625 12.1093,2.4375 21.6718,7.8125 9.5782,5.375 15.4375,13.9688 5.8594,8.5937 5.8594,21.2812 0,4.5 -1.5625,9.5782 -1.5625,5.0781 -4.0156,10.1562 -2.4375,5.0781 -5.4688,9.6719 -3.0156,4.5781 -5.9531,7.7031 -1.3594,1.5625 -4.4844,4.7969 -3.125,3.2187 -7.1406,7.3281 -4,4.0938 -8.5,8.4844 -4.4844,4.3906 -8.4844,8.4062 -4,4 -7.2343,7.125 -3.2188,3.125 -4.7813,4.6875 -0.5781,4.6875 -1.5625,8.5938 -0.9687,3.9062 -2.9219,6.0625 -1.9531,2.1406 -4.9843,2.0469 -3.0313,-0.094 -7.5157,-3.2344 -4.2968,2.9375 -9.0937,8.3125 -4.7813,5.375 -9.8594,10.3437 -5.0781,4.9844 -10.5469,7.9063 -5.4687,2.9375 -10.9375,0.5937 l 0,-6.8281 40.4375,-33.7969 z m 16.9844,-13.6718 q 12.3125,-5.0782 21.7813,-14.9375 9.4687,-9.875 15.0312,-21.5938 5.5781,-11.7187 6.75,-23.7187 1.1719,-12.0157 -2.9375,-21.1875 -4.0937,-9.1875 -13.9687,-14.1719 -9.8594,-4.9844 -26.6563,-2.6406 l 0,98.25 z" />
  <path
     style="fill:#000000;fill-opacity:0;fill-rule:nonzero"
     inkscape:connector-curvature="0"
     id="path147"
     d="m 0,0 2317.165,0 0,314.96063 -2317.165,0 z"
     inkscape:export-filename="/home/swarren/git_wa/presentations/lcs-graphics/LovelandCreatorSpace_Logo_Vertical_2col.png"
     inkscape:export-xdpi="300"
     inkscape:export-ydpi="300" />
  <path
     style="fill:#000000;fill-rule:nonzero"
     inkscape:connector-curvature="0"
     id="path149"
     d="m 325.5827,82.93344 q 0,-2.65625 1.7188,-3.95313 1.7343,-1.29687 3.1718,-2.07812 1.4375,-0.78125 3.375,-1.28125 1.9532,-0.5 3.7344,-0.0312 1.5781,0.375 3.1563,1.57812 1.5937,1.20313 2.8906,2.39063 1.3125,1.17187 2.625,2.96875 1.3125,1.78125 1.3125,3.73437 l 0,96.56249 q -4.0938,5.125 2.3594,3.875 6.4531,-1.26563 14.25,-1.65625 7.8125,-0.40625 16.8437,-0.5 9.0469,-0.0937 18.1719,-0.95313 9.1406,-0.85937 17.7656,-2.98437 8.6406,-2.14063 15.7344,-6.32813 8.125,-4.84375 14.2187,-5.04687 6.0938,-0.21875 4.3125,5.57812 -1.7812,5.79688 -6.1718,10.40625 -4.375,4.59375 -10.4844,8.9375 -6.1094,4.34375 -13.8906,7.70313 -7.7657,3.35937 -16.0157,3.78125 -2.0625,0.20312 -6.0468,0.20312 -3.9844,0 -9.0938,0.10938 -5.0937,0.0937 -10.5781,0 -5.4844,-0.10938 -10.5313,-0.10938 l -8.9843,0 q -4.1094,0 -4.6563,-0.0625 -0.3906,0.28125 -2.6719,4.21875 -2.2812,3.92188 -5.375,8.20313 -3.0781,4.26562 -7.7031,7.53125 -4.625,3.25 -13.4375,-1.17188 l 0,-141.62498 z M 569.1843,221.4178 q -10.6563,-10.64063 -13.2969,-23.46875 -2.625,-12.84375 -1.3125,-25.92188 1.3281,-13.09375 4.7656,-25.65625 3.4531,-12.57812 5.3594,-23.34375 0.75,-4.0625 1.125,-10.01561 0.3906,-5.96875 0.9844,-12.70312 0.5937,-6.73438 1.6093,-13.5 1.0313,-6.76563 3.4375,-12.42188 0.4844,-1.03125 2.125,-2.8125 1.6563,-1.78125 2.9844,-2.4375 14.6719,-8.70312 26.875,-6.60937 12.2031,2.09375 20.7813,11.65625 8.5781,9.54687 13.5781,24.14062 5,14.57813 6.5937,30.95311 1.6094,16.35938 -0.094,33.14063 -1.7031,16.78125 -7.0313,31.01562 -5.3125,14.21875 -14.8125,24.23438 -9.4843,10.01562 -23.2656,11.78125 -4.8281,0.60937 -8.6719,0.8125 -3.8437,0.21875 -7.5781,-0.48438 -3.7187,-0.70312 -7.0937,-2.67187 -3.375,-1.98438 -7.0625,-5.6875 z m 15.4062,-13.21875 q 8.5156,5.78125 14.4844,5.09375 5.9687,-0.70313 10.625,-5.85938 4.6719,-5.17187 7.9844,-14.75 3.3125,-9.57812 5.1093,-21.26562 1.8125,-11.6875 2,-24.32813 0.2032,-12.64062 -0.75,-23.6875 -0.9531,-11.06248 -3.0625,-19.37498 -2.1093,-8.3125 -4.7187,-11.73438 -6.7188,-8.92187 -10.9375,-11.375 -4.2188,-2.45312 -6.5313,-1.71875 -2.3125,0.73438 -4.4218,4.71875 -2.0938,3.96875 -3.4688,10.46875 -1.3594,6.5 -1.8437,14.14063 -0.4844,7.62498 -0.1094,14.48436 0.3906,6.85937 1.4375,11.9375 1.0469,5.0625 2.0469,6.4375 0.2343,0.28125 2.3437,1.875 2.125,1.59375 5.1563,3.9375 3.0312,2.32812 6.1406,5.34375 3.125,3 5.2344,6.60937 2.125,3.59375 1.9531,7.78125 -0.1719,4.17188 -5,7.51563 -4.0938,2.8125 -8.4063,1.71875 -4.2968,-1.10938 -7.9375,-3.60938 -3.6406,-2.5 -6.7656,-6.04687 -3.125,-3.54688 -5.75,-6.76563 -2.625,-3.23437 -4.5312,-6.04687 -1.9063,-2.82813 1.1718,1.79687 l 0.2344,-0.4375 0,39.59375 q 0,0.34375 0.7656,2.20313 0.7813,1.84375 2.1094,4.26562 1.3438,2.40625 2.7969,4.35938 1.4531,1.9375 2.6406,2.71875 z m 170.1484,-85.98438 q -0.1406,-0.1875 -2.2187,-2.67187 -2.0781,-2.5 -3.6875,-5.82811 -1.6094,-3.34375 -1.4375,-7.82812 0.1875,-4.5 6.2656,-6.53125 1.9844,-0.84375 6.5469,-0.84375 4.5781,0 5.6562,3.29687 l 27.6719,66.68749 q -0.3281,2.65625 2.3438,-10.82813 2.6718,-13.5 7.0625,-26.57812 4.4062,-13.09375 10.9687,-25.29686 6.5625,-12.21875 16.0625,-22.32813 2.7656,-3.15625 7.3125,-7.79687 4.5469,-4.65625 8.9531,-8.96875 4.4219,-4.32813 8.25,-8.03125 3.8282,-3.71875 5.7188,-3.71875 l 12.3906,0 q 4.5,6.76562 1.0938,10.90625 -3.4063,4.125 -7.1407,6.79687 -3.7343,2.67188 -6.9062,4.45313 -3.1563,1.76562 -3.3438,1.9375 -15.1875,15.20312 -23.9218,31.32812 -8.7188,16.10936 -13.5,33.76561 -4.7657,17.64063 -6.4063,37.04688 -1.625,19.39062 -2.4844,43.28125 l -3.6406,2.0625 q -1.0156,0.40625 -2.0937,1 -1.0782,0.57812 -2.0782,0.98437 -0.9843,0.39063 -0.9843,0.39063 -1.4375,0.96875 -4.6563,0.96875 -3.2031,0 -4.625,-2.95313 L 754.7389,122.21468 z m 235.211,103.10938 q -8.7031,-6.45313 -11.4063,-15.07813 -2.6875,-8.64062 -3.9687,-18.75 0.4531,-3.20312 1.0312,-9.01562 0.5782,-5.82813 1.3594,-13.125 0.7813,-7.3125 1.4531,-15.5 0.6875,-8.1875 1.375,-15.5 0.6875,-7.3125 1.0782,-13.14063 0.3906,-5.84375 0.5781,-8.70312 0.1875,-1.42188 0.1875,-5.06248 l 0,-16.20313 q 0,-3.64062 -0.4219,-6.95312 l 5.6406,-5.65625 62.5157,-20.84375 10.4531,0 q 2.3437,6.625 1.2969,11.4375 -1.0469,4.79687 -6.25,6.75 l -49.9375,20.15625 -2.7344,2.73437 q 0.8594,-0.85937 0.5469,2.32813 -0.3125,3.17187 -0.9063,8.54687 -0.5781,5.37498 -1.1719,10.98436 -0.5781,5.60938 -0.7656,9.09375 0,0.95313 -0.094,3.39063 -0.094,2.4375 -0.094,5 0,2.5625 0.094,5 0.094,2.4375 0.094,-3.39063 l 51.4688,-27.21875 q 4.8593,-2.79686 6.875,0.64063 2.0156,3.4375 2.0156,6.3125 0,2.85937 -1.0625,5.89062 -1.0625,3.01563 -3.6719,4.5 -3.3281,2.14063 -8.1562,4.90625 -4.8125,2.75 -10,5.79688 -5.1719,3.03125 -10.3594,5.96875 -5.1719,2.92187 -9.2969,5.28125 -4.1094,2.34375 -7.2344,4.07812 -3.1093,1.71875 -4.375,1.71875 l -9.5156,0 0,39.79688 q 0,6.70312 2.2969,8.15625 2.2969,1.45312 7.2812,0.26562 5,-1.1875 11.8438,-5.25 6.8594,-4.07812 13.0312,-8.82812 6.1719,-4.76563 10.5938,-8.79688 4.4219,-4.04687 4.4844,-4.125 0.6875,-4.29687 2.2656,-7.89062 1.6875,-3.95313 5.6094,-6.29688 3.9375,-2.35937 10.0468,3.78125 1.6407,8.54688 -1.7656,16.45313 -3.3906,7.90625 -9.4219,14.98437 -6.0156,7.0625 -14.1406,12.92188 -8.125,5.85937 -16.6094,9.32812 -8.4687,3.45313 -17,3.78125 -8.5156,0.32813 -15.1562,-4.65625 z M 1167.7702,82.93344 q 0,-2.65625 1.7187,-3.95313 1.7344,-1.29687 3.1719,-2.07812 1.4375,-0.78125 3.375,-1.28125 1.9531,-0.5 3.7344,-0.0312 1.5781,0.375 3.1562,1.57812 1.5938,1.20313 2.8907,2.39063 1.3125,1.17187 2.625,2.96875 1.3125,1.78125 1.3125,3.73437 l 0,96.56249 q -4.0938,5.125 2.3593,3.875 6.4532,-1.26563 14.25,-1.65625 7.8125,-0.40625 16.8438,-0.5 9.0469,-0.0937 18.1719,-0.95313 9.1406,-0.85937 17.7656,-2.98437 8.6406,-2.14063 15.7344,-6.32813 8.125,-4.84375 14.2187,-5.04687 6.0938,-0.21875 4.3125,5.57812 -1.7812,5.79688 -6.1719,10.40625 -4.375,4.59375 -10.4843,8.9375 -6.1094,4.34375 -13.8907,7.70313 -7.7656,3.35937 -16.0156,3.78125 -2.0625,0.20312 -6.0469,0.20312 -3.9843,0 -9.0937,0.10938 -5.0938,0.0937 -10.5781,0 -5.4844,-0.10938 -10.5313,-0.10938 l -8.9844,0 q -4.1093,0 -4.6562,-0.0625 -0.3906,0.28125 -2.6719,4.21875 -2.2812,3.92188 -5.375,8.20313 -3.0781,4.26562 -7.7031,7.53125 -4.625,3.25 -13.4375,-1.17188 l 0,-141.62498 z m 339.5703,106.14061 q -0.1406,-0.67188 -1.125,-2.65625 -0.9844,-2 -0.6406,-1.65625 -1.2032,-0.42188 -6.9688,-2.28125 -5.75,-1.85938 -12.2031,-4.09375 -6.4531,-2.25 -12.2031,-4.20313 -5.75,-1.95312 -8.0938,-2.73437 -0.9531,-0.32813 -3.0625,-1.48438 -2.0937,-1.15625 -4.4062,-2.40625 -2.3125,-1.25 -3.7969,-1.98437 -1.4844,-0.75 -1.0781,-0.75 -1.625,0 -4.2188,3.51562 -2.5781,3.5 -5.8281,9.96875 -3.2344,6.46875 -7.0313,14.15625 -3.7812,7.6875 -8.6093,14.20313 -4.8282,6.51562 -11.2969,10.625 -6.4531,4.10937 -17.9531,1.07812 l 0,-11.46875 q 2.2656,-2.92187 5.2968,-6.625 3.0313,-3.70312 6.625,-8.375 3.5938,-4.6875 7.6875,-9.85937 4.1094,-5.1875 7.7188,-9.85938 3.6094,-4.67187 6.4062,-8.34375 2.7969,-3.67187 4.1875,-5.625 1.3125,-1.73437 -0.016,-6.53125 -1.3281,-4.79687 -4.4531,-11.42187 -3.125,-6.625 -6.9063,-13.57813 -3.7812,-6.95312 -5.75,-13.09373 -1.9687,-6.15625 1.4063,-10.26563 3.375,-4.125 15.8906,-0.0469 3.2656,9.79687 7.7969,17.79686 4.5469,7.98437 9.0625,10.98437 3.3906,-2.21875 8.625,-8.84375 5.25,-6.64062 9.9062,-15.17186 4.6563,-8.53125 8.5782,-18.21875 3.9218,-9.6875 7.1093,-19.23437 3.1875,-9.5625 5.5157,-18.07813 2.3281,-8.51562 4,-15.28125 2.4375,-4.25 5.9218,-6.17187 3.4844,-1.9375 9.3594,-4 4.0313,5.10937 4.4531,12.65625 0.4375,7.54687 0.4375,17.5 0,9.95312 -0.2968,21.96875 -0.2969,12.01562 -0.3907,24.1875 -0.094,12.17186 0.094,23.68748 0.2031,11.5 1.0469,20.09375 0.8437,8.57813 2.0625,12.39063 1.2343,3.8125 1.3281,3.8125 l 24.6719,0 0,20.42187 -21.1563,0 q 1.4375,0 1.75,1.73438 0.3125,1.71875 3.0469,8.3125 2.7344,6.59375 6.5625,14.95312 3.8281,8.35938 6.5937,16.34375 2.7657,7.96875 3.25,15.70313 0.4844,7.75 -5.6562,11.75 -1.8594,0.9375 -5.4844,0.9375 -3.625,0 -6.9375,-1.65625 -1.4219,-5.1875 -4.3437,-13.73438 -2.9063,-8.53125 -6.1407,-18.29687 -3.2187,-9.78125 -6.1562,-18.375 -2.9219,-8.59375 -4.1875,-12.375 z m -28.1563,-35.57813 q 1.3594,0.6875 4.5313,2.14063 3.1719,1.4375 6.9219,3.07812 3.7656,1.625 7.2343,2.98438 3.4688,1.34375 5.1875,2 -0.2968,-0.15625 -0.078,-0.15625 0.2188,0 -2.3437,1.23437 0.5156,-5.34375 -0.25,-17.25 -0.7657,-11.90625 -2.0313,-24.54687 -1.2656,-12.64061 -2.6406,-24.28124 -1.375,-11.64062 -0.8281,-4.98437 l -28.9375,52.53123 q -2.25,-1.70312 0.1093,-0.29687 2.375,1.40625 4.9844,3.0625 2.6094,1.64062 4.8281,2.89062 2.2344,1.25 3.3125,1.59375 z m 168.5313,69.48438 q -2.7969,-30.42188 -3.6875,-60.23438 -0.875,-29.8125 0.1406,-60.37498 0.7188,-1.76563 2.1094,-4.70313 1.4062,-2.9375 3.7812,-5.79687 2.375,-2.85938 6.4844,-4.40625 4.125,-1.5625 8.3594,2.6875 l 17.3437,17.35937 47.6407,78.42186 0.7812,1.07813 q 0.8906,1.0625 2.1719,2.26562 1.2812,1.1875 1.6406,1.375 0.3594,0.1875 -2.2187,1.79688 -0.031,-0.60938 -0.625,-7.21875 -0.5782,-6.625 -1.2657,-14.92188 -0.6718,-8.3125 -1.4531,-17.48437 -0.7812,-9.1875 -1.4687,-17.59375 -0.6875,-8.40625 -1.1719,-15.0625 -0.4844,-6.67186 -0.6875,-9.79686 -0.2031,-2.67188 -0.2031,-8.79688 0,-6.125 0.7031,-13.73437 0.7031,-7.625 2.2344,-15.78125 1.5312,-8.15625 4.5937,-14.84375 3.0625,-6.6875 8.4531,-10.65625 5.4063,-3.98438 12.6719,-1.5625 1.8281,0 4.3125,2.48437 2.4844,2.48438 2.4844,6.40625 -2.25,2.90625 -4.1719,5.29688 -1.9062,2.39062 -3.7031,5.03125 -1.7813,2.625 -3.375,5.20312 -1.5938,2.5625 -2.0781,4.14063 -0.1407,1.92187 -0.1407,7.14062 0,5.20313 -0.1093,11.92188 -0.094,6.71875 0,14.03125 0.1093,7.3125 0.1093,14.17186 l 0,11.92187 q 0,5.10938 0.1875,7.65625 0,1.54688 0.4844,7.42188 0.4844,5.85937 1.0625,12.6875 0.5938,6.8125 1.1875,12.95312 0.5938,6.14063 0.5938,7.90625 0,1.90625 0.094,6.01563 0.094,4.09375 0.094,8.4375 0,4.34375 -0.094,7.96875 -0.094,3.60937 -0.094,4.95312 -0.3594,1.76563 -1.3438,4.21875 -0.9844,2.45313 -3,4.75 -2,2.29688 -5.5312,3.28125 -3.5313,0.96875 -7.375,-2.89062 l -24.1719,-23.96875 -43.7031,-70.89063 1.9218,1.21875 0,97.53125 q 0,5.51563 -3.5781,7 -3.5625,1.46875 -6.5469,0.75 -2.9687,-0.71875 -5.8281,-2.28125 -2.8437,-1.5625 -4.0156,-4.48437 z m 265.6328,-16.76563 q -1.1875,0.625 -0.8281,-3.01562 0.375,-3.65625 0.9531,-10.0625 0.5937,-6.40625 0.9687,-13.1875 0.3907,-6.79688 0.5938,-11.17188 0,-2.48437 0.094,-7.17187 0.094,-4.6875 0.094,-10.4375 0,-5.76563 0.094,-12 0.1094,-6.23438 0,-11.75 -0.094,-5.53125 -0.1875,-9.84375 -0.094,-4.31248 -0.094,-6.31248 0,-0.26563 -0.4375,-1.98438 -0.4375,-1.73437 -0.9063,-3.82812 -0.4687,-2.09375 -0.9843,-3.70313 -0.5157,-1.625 0.2968,-0.0312 -3.9531,-0.3125 -10.6406,0.98438 -6.6719,1.28125 -13.5312,3.04687 -6.8594,1.76563 -14.0625,3.01563 -7.1875,1.25 -16.0625,-0.46875 -3.9219,-8.3125 2.3281,-12.95313 6.2656,-4.64062 15.5469,-7.4375 9.2968,-2.79687 21.3281,-4.48437 12.0312,-1.70313 24.8906,-1.5 12.8594,0.20312 25.4688,2.75 12.625,2.53125 22.8906,8.3125 10.2812,5.76562 16.7812,15.29687 6.5,9.51561 6.5,23.48436 0,5.125 -1.7031,10.65625 -1.6875,5.51563 -4.2656,10.875 -2.5781,5.34375 -5.7813,10.20313 -3.2031,4.84375 -6.3281,8.15625 -1.375,1.59375 -4.5469,4.85937 -3.1562,3.26563 -7.1875,7.39063 -4.0312,4.125 -8.5312,8.53125 -4.5,4.39062 -8.5,8.40625 -4,4 -7.2344,7.14062 -3.2187,3.125 -3.75,3.64063 -0.4219,3.53125 -1.5625,8.0625 -1.1406,4.53125 -4.0937,7.78125 -2.9532,3.25 -7.5625,3.10937 -4.6094,-0.14062 -7.75,-2.35937 -1.5,1.03125 -6.1719,6.26562 -4.6563,5.25 -10,10.48438 -5.3438,5.23437 -11.9531,8.76562 -6.6094,3.54688 -16.4375,-0.65625 l 0,-11.53125 42.2656,-35.32812 z m 23.4687,-16.39062 q 5.7657,-2.39063 14.7032,-11.6875 8.9375,-9.3125 14.2031,-20.39063 5.2656,-11.09375 6.3437,-22.1875 1.0938,-11.10937 -2.4843,-19.10937 -3.5782,-7.99998 -12.2188,-12.35936 -8.625,-4.35938 -20.5469,-2.6875 l 0,88.42186 z"
     inkscape:export-filename="/home/swarren/git_wa/presentations/lcs-graphics/LovelandCreatorSpace_Logo_Vertical_2col.png"
     inkscape:export-xdpi="300"
     inkscape:export-ydpi="300" />
</svg>
