<?xml version="1.0" standalone="yes"?>

<svg version="1.1" viewBox="0.0 0.0 5278.0 2644.0" fill="none" stroke="none" stroke-linecap="square" stroke-miterlimit="10" xmlns="http://www.w3.org/2000/svg" xmlns:xlink="http://www.w3.org/1999/xlink"><clipPath id="p.0"><path d="m0 0l5278.0 0l0 2644.0l-5278.0 0l0 -2644.0z" clip-rule="nonzero"></path></clipPath><g clip-path="url(#p.0)"><path fill="#000000" fill-opacity="0.0" d="m0 0l5278.286 0l0 2644.8923l-5278.286 0z" fill-rule="nonzero"></path><path fill="#000000" fill-opacity="0.0" d="m1060.8281 2150.243l3156.63 0l0 355.33862l-3156.63 0z" fill-rule="nonzero"></path><path fill="#000000" d="m1565.9556 2215.9248l0 -15.5625l50.625 0l50.625 0l0 15.5625l0 7.8125l7.8125 0l15.5625 0l0 15.5625l0 15.5625l-27.25 0l-27.25 0l0 -15.5625l0 -7.8125l-19.5 0l-19.5 0l0 7.8125l0 15.5625l-15.5625 0l-7.8125 0l0 31.1875l0 31.1875l7.8125 0l15.5625 0l0 15.5625l0 7.8125l19.5 0l19.5 0l0 -7.8125l0 -15.5625l27.25 0l27.25 0l0 15.5625l0 15.5625l-15.5625 0l-7.8125 0l0 7.8125l0 15.5625l-50.625 0l-50.625 0l0 -15.5625l0 -7.8125l-7.8125 0l-15.5625 0l0 -15.5625l0 -7.8125l-7.8125 0l-15.5625 0l0 -38.9375l0 -38.9375l15.5625 0l7.8125 0l0 -7.8125l0 -15.5625l15.5625 0l7.8125 0l0 -7.8125zm139.90625 70.125l0 -85.6875l74.0 0l74.0 0l0 15.5625l0 7.8125l7.8125 0l15.5625 0l0 38.9375l0 38.9375l-27.25 0l-19.5 0l0 7.8125l0 7.8125l7.8125 0l15.5625 0l0 15.5625l0 7.8125l7.8125 0l15.5625 0l0 15.5625l0 15.5625l-38.9375 0l-38.9375 0l0 -15.5625l0 -7.8125l-7.8125 0l-15.5625 0l0 -15.5625l0 -7.8125l-7.8125 0l-7.8125 0l0 19.5l0 27.25l-27.25 0l-27.25 0l0 -85.6875zm116.875 -35.0625l0 -19.5l-31.1875 0l-31.1875 0l0 31.1875l0 31.1875l19.5 0l19.5 0l0 -7.8125l0 -15.5625l15.5625 0l7.8125 0l0 -19.5zm69.78125 35.0625l0 -85.6875l85.6875 0l85.6875 0l0 15.5625l0 15.5625l-62.3125 0l-54.5625 0l0 19.5l0 19.5l42.875 0l50.625 0l0 15.5625l0 15.5625l-50.625 0l-42.875 0l0 19.5l0 19.5l54.5625 0l62.3125 0l0 15.5625l0 15.5625l-85.6875 0l-85.6875 0l0 -85.6875zm233.40625 -70.125l0 -15.5625l38.9375 0l38.9375 0l0 15.5625l0 7.8125l7.8125 0l15.5625 0l0 15.5625l0 7.8125l7.8125 0l15.5625 0l0 62.3125l0 62.3125l-27.25 0l-27.25 0l0 -27.25l0 -19.5l-31.1875 0l-31.1875 0l0 19.5l0 27.25l-27.25 0l-27.25 0l0 -62.3125l0 -62.3125l15.5625 0l7.8125 0l0 -7.8125l0 -15.5625l15.5625 0l7.8125 0l0 -7.8125zm46.75 23.375l0 -7.8125l-7.8125 0l-7.8125 0l0 7.8125l0 15.5625l-15.5625 0l-7.8125 0l0 19.5l0 19.5l31.1875 0l31.1875 0l0 -19.5l0 -19.5l-7.8125 0l-15.5625 0l0 -15.5625zm116.53125 -23.375l0 -15.5625l74.0 0l74.0 0l0 15.5625l0 15.5625l-27.25 0l-19.5 0l0 66.25l0 74.0l-27.25 0l-27.25 0l0 -74.0l0 -66.25l-19.5 0l-27.25 0l0 -15.5625zm186.65625 0l0 -15.5625l62.3125 0l62.3125 0l0 15.5625l0 7.8125l7.8125 0l15.5625 0l0 62.3125l0 62.3125l-15.5625 0l-7.8125 0l0 7.8125l0 15.5625l-62.3125 0l-62.3125 0l0 -15.5625l0 -7.8125l-7.8125 0l-15.5625 0l0 -62.3125l0 -62.3125l15.5625 0l7.8125 0l0 -7.8125zm93.5 70.125l0 -54.5625l-31.1875 0l-31.1875 0l0 54.5625l0 54.5625l31.1875 0l31.1875 0l0 -54.5625zm69.78125 0l0 -85.6875l74.0 0l74.0 0l0 15.5625l0 7.8125l7.8125 0l15.5625 0l0 38.9375l0 38.9375l-27.25 0l-19.5 0l0 7.8125l0 7.8125l7.8125 0l15.5625 0l0 15.5625l0 7.8125l7.8125 0l15.5625 0l0 15.5625l0 15.5625l-38.9375 0l-38.9375 0l0 -15.5625l0 -7.8125l-7.8125 0l-15.5625 0l0 -15.5625l0 -7.8125l-7.8125 0l-7.8125 0l0 19.5l0 27.25l-27.25 0l-27.25 0l0 -85.6875zm116.875 -35.0625l0 -19.5l-31.1875 0l-31.1875 0l0 31.1875l0 31.1875l19.5 0l19.5 0l0 -7.8125l0 -15.5625l15.5625 0l7.8125 0l0 -19.5zm93.15625 -35.0625l0 -15.5625l50.625 0l50.625 0l0 15.5625l0 7.8125l7.8125 0l15.5625 0l0 15.5625l0 15.5625l-27.25 0l-27.25 0l0 -15.5625l0 -7.8125l-19.5 0l-19.5 0l0 19.5l0 19.5l42.875 0l50.625 0l0 15.5625l0 7.8125l7.8125 0l15.5625 0l0 27.25l0 27.25l-15.5625 0l-7.8125 0l0 7.8125l0 15.5625l-62.3125 0l-62.3125 0l0 -15.5625l0 -7.8125l-7.8125 0l-15.5625 0l0 -15.5625l0 -15.5625l27.25 0l27.25 0l0 15.5625l0 7.8125l31.1875 0l31.1875 0l0 -19.5l0 -19.5l-42.875 0l-50.625 0l0 -15.5625l0 -7.8125l-7.8125 0l-15.5625 0l0 -27.25l0 -27.25l15.5625 0l7.8125 0l0 -7.8125zm163.28125 70.125l0 -85.6875l74.0 0l74.0 0l0 15.5625l0 7.8125l7.8125 0l15.5625 0l0 38.9375l0 38.9375l-15.5625 0l-7.8125 0l0 7.8125l0 15.5625l-50.625 0l-42.875 0l0 19.5l0 27.25l-27.25 0l-27.25 0l0 -85.6875zm116.875 -23.375l0 -31.1875l-31.1875 0l-31.1875 0l0 31.1875l0 31.1875l31.1875 0l31.1875 0l0 -31.1875zm116.53125 -46.75l0 -15.5625l38.9375 0l38.9375 0l0 15.5625l0 7.8125l7.8125 0l15.5625 0l0 15.5625l0 7.8125l7.8125 0l15.5625 0l0 62.3125l0 62.3125l-27.25 0l-27.25 0l0 -27.25l0 -19.5l-31.1875 0l-31.1875 0l0 19.5l0 27.25l-27.25 0l-27.25 0l0 -62.3125l0 -62.3125l15.5625 0l7.8125 0l0 -7.8125l0 -15.5625l15.5625 0l7.8125 0l0 -7.8125zm46.75 23.375l0 -7.8125l-7.8125 0l-7.8125 0l0 7.8125l0 15.5625l-15.5625 0l-7.8125 0l0 19.5l0 19.5l31.1875 0l31.1875 0l0 -19.5l0 -19.5l-7.8125 0l-15.5625 0l0 -15.5625zm139.90625 -23.375l0 -15.5625l50.625 0l50.625 0l0 15.5625l0 7.8125l7.8125 0l15.5625 0l0 15.5625l0 15.5625l-27.25 0l-27.25 0l0 -15.5625l0 -7.8125l-19.5 0l-19.5 0l0 7.8125l0 15.5625l-15.5625 0l-7.8125 0l0 31.1875l0 31.1875l7.8125 0l15.5625 0l0 15.5625l0 7.8125l19.5 0l19.5 0l0 -7.8125l0 -15.5625l27.25 0l27.25 0l0 15.5625l0 15.5625l-15.5625 0l-7.8125 0l0 7.8125l0 15.5625l-50.625 0l-50.625 0l0 -15.5625l0 -7.8125l-7.8125 0l-15.5625 0l0 -15.5625l0 -7.8125l-7.8125 0l-15.5625 0l0 -38.9375l0 -38.9375l15.5625 0l7.8125 0l0 -7.8125l0 -15.5625l15.5625 0l7.8125 0l0 -7.8125zm139.90625 70.125l0 -85.6875l85.6875 0l85.6875 0l0 15.5625l0 15.5625l-62.3125 0l-54.5625 0l0 19.5l0 19.5l42.875 0l50.625 0l0 15.5625l0 15.5625l-50.625 0l-42.875 0l0 19.5l0 19.5l54.5625 0l62.3125 0l0 15.5625l0 15.5625l-85.6875 0l-85.6875 0l0 -85.6875z" fill-rule="nonzero"></path><path fill="#990000" d="m2628.567 719.3832l-6.435547 -25.747986l-30.343994 -42.299255l-20.230957 -34.94226l-16.551025 -8.275574l-39.54077 -45.05774l-57.931885 -43.217834l-72.64307 -40.45932l-80.91846 -37.700806l-70.80591 -19.309692l-78.15991 -2.758545l-89.19702 16.551178l-67.12598 16.551178l-71.724365 24.826782l-103.90808 56.09189l-77.24158 57.013123l-50.574707 56.091858l-50.57483 69.88452l-39.538086 89.194214l-26.666626 105.74805l-8.275635 128.73492l4.595825 106.666626l27.58789 111.26514l40.45935 114.02356l36.782104 66.2074l56.09192 111.26245l37.700806 67.12598l75.40149 63.448853l34.94226 22.0708l58.850464 57.9292l102.9895 109.42517l89.19409 59.771606l80.0 45.05774l34.02368 9.194214l2.758545 -17.469727l-9.194092 -27.588013l-28.506592 -25.745361l-56.09204 -48.73755l9.194336 -8.275635l4.5983887 -15.632446l-18.391113 -12.874023l-95.63257 -71.7218l-74.48279 -61.611572l-48.734985 -44.136475l-46.897583 -46.897583l-116.77954 -166.43579l-48.73755 -79.0813l-18.388428 -57.9292l-14.713989 -22.989502l-7.3569336 -22.068237l11.955444 -1.8398438l13.792603 19.309692l15.632568 36.782104l32.183716 55.173218l49.653564 52.41211l51.496094 85.51709l85.51697 95.63257l38.619507 56.091797l86.438354 68.96594l74.48291 58.85034l77.241455 61.60901l45.057617 46.897583l23.905518 33.102417l34.94507 47.816162l39.53784 41.380615l44.13916 22.986938l27.58545 8.275513l-35.861084 -37.700806l-22.989502 -26.666626l-22.068115 -22.986816l4.5983887 -22.989502l16.55127 -20.228394l16.551025 -8.278198l11.03418 18.391113l-0.9187012 19.312256l-8.275391 17.469849l19.30957 20.230957l55.17334 59.769043l36.781982 42.299316l-11.955322 -31.265137l106.66675 114.02344l-62.527588 -111.26489l53.333252 47.816162l-49.656006 -82.758545l-55.17334 -82.758545l-36.782227 -53.333252l-12.871338 -28.506592l7.354248 -10.112915l20.231201 14.711304l80.91846 92.87402l40.461914 69.88452l18.388428 17.472412l-2.7583008 -24.829346l-6.435791 -33.102417l29.425293 39.54077l24.82666 64.36731l22.989502 42.299316l29.425293 43.217773l-22.989502 -66.207275l12.874023 8.275635l-11.03418 -39.538086l14.713867 9.194336l-48.73755 -102.06836l-57.9292 -92.87402l-73.56421 -99.30969l-86.43579 -80.0l-2.758545 -5.51709l-5.5195312 -7.3569336l-154.48047 -158.16272l-105.74805 -89.194214l-72.64282 -61.608887l-41.380737 -56.09192l-46.89502 -67.12598l-57.01306 -73.56433l-14.711304 -21.149536l-0.92126465 -25.745483l-6.435669 -57.01306l-10.1154785 -47.816284l0 -35.8609l-11.952759 45.97638l0 34.94226l13.792603 43.217773l2.758545 40.462036l19.309692 20.228271l70.805786 104.82678l-117.70337 -121.37793l-21.146973 -76.322876l-8.278198 -68.96582l-2.758545 -62.527588l34.02356 -73.56427l34.02368 -69.88452l40.45923 -43.217896l51.49353 -49.656128l63.44873 -35.8609l82.758545 -17.472473l74.48291 -4.595764l77.241455 29.42517l97.47241 48.734924l46.89502 42.299194l49.65625 73.56171l33.102295 38.62207l31.265137 21.149597l-7.3569336 -34.02362l-15.632568 -27.585327l-23.908203 -44.1391l-2.7583008 -21.149597l-22.98706 -30.343872l-25.748047 -39.54065l-29.425049 -28.506592l-34.02368 -33.102356l-23.908203 -19.309692l45.979004 23.908142l31.262451 18.391052l18.391113 22.986877l24.829346 29.425232l30.343994 23.908142l15.632568 31.265076l34.94214 57.010498l23.908203 61.608887l26.666748 30.346497l24.82666 5.517029l-5.51709 -42.299194l-26.181152 -27.81366l-32.275635 -36.826782l7.0341797 -32.27295l4.9658203 7.0341187l12.826904 -22.758545l-23.380615 -38.16797l-26.666748 -63.446167l-31.264893 -47.816284l-82.758545 -73.56433l-86.43579 -62.527527l-100.23096 -29.425201l-79.0813 -11.955383l-120.45947 4.598419l-90.11536 27.585297l-77.241455 38.62204l-91.95276 49.653564l31.265015 -26.666687l61.608887 -44.136475l72.64307 -35.863495l77.24158 -29.425201l80.91846 -10.1154785l80.0 -0.91864014l89.19702 10.1154785l63.446045 32.183716l57.931885 27.585297l57.013184 35.863556l57.928955 48.734863l23.908203 31.265137l12.874023 24.826721l13.792725 21.149658l20.230957 47.816223l17.469727 14.711304z" fill-rule="nonzero"></path><path fill="#262626" d="m2694.006 1070.3362l0 0c-13.95459 -242.24329 171.10986 -449.93262 413.35303 -463.8872l0 0c116.329346 -6.701233 230.55615 33.08368 317.55176 110.60242c86.99585 77.51874 139.63403 186.42145 146.33545 302.75073l0 0c13.95459 242.24316 -171.10986 449.9325 -413.35327 463.8871l0 0c-242.24316 13.95459 -449.93237 -171.10986 -463.88696 -413.35303z" fill-rule="nonzero"></path><path fill="#262626" d="m3013.6785 626.7614l38.286377 -131.27637l97.63013 -5.624054l53.10742 126.011566z" fill-rule="nonzero"></path><path fill="#262626" d="m2712.8054 1164.0746l-131.27637 -38.286255l-5.6240234 -97.63013l126.01172 -53.107544z" fill-rule="nonzero"></path><path fill="#262626" d="m3552.3801 926.05914l131.27637 38.286316l5.6240234 97.63013l-126.011475 53.107544z" fill-rule="nonzero"></path><path fill="#262626" d="m3251.5232 1463.3715l-38.286377 131.27637l-97.63013 5.6240234l-53.10742 -126.011475z" fill-rule="nonzero"></path><path fill="#262626" d="m3238.7148 623.3328l98.793945 -94.542175l87.35986 43.94458l-17.014648 135.67981z" fill-rule="nonzero"></path><path fill="#262626" d="m2709.5022 938.2096l-94.54224 -98.79413l43.94458 -87.35974l135.67969 17.01471z" fill-rule="nonzero"></path><path fill="#262626" d="m3555.5815 1151.8755l94.54224 98.79407l-43.944824 87.35974l-135.67969 -17.014648z" fill-rule="nonzero"></path><path fill="#262626" d="m3026.3833 1466.7595l-98.79419 94.542114l-87.35962 -43.94458l17.014648 -135.67981z" fill-rule="nonzero"></path><path fill="#262626" d="m3435.4526 732.881l132.82861 -32.48224l53.685303 81.73566l-82.57202 108.99689z" fill-rule="nonzero"></path><path fill="#262626" d="m2819.703 740.9816l-32.482178 -132.82849l81.735596 -53.685486l108.99707 82.572266z" fill-rule="nonzero"></path><path fill="#262626" d="m3445.6116 1349.0455l32.48242 132.82837l-81.735596 53.685547l-108.99707 -82.572266z" fill-rule="nonzero"></path><path fill="#262626" d="m2829.8708 1357.1595l-132.82861 32.4823l-53.685547 -81.73572l82.572266 -108.99695z" fill-rule="nonzero"></path><path fill="#ffffff" d="m2979.398 1053.8477l0 0c-4.8513184 -84.21692 59.831543 -156.44092 144.47314 -161.31671l0 0c40.646484 -2.3414917 80.55371 11.478638 110.94238 38.420044c30.388672 26.941467 48.769775 64.7973 51.099365 105.239685l0 0c4.8513184 84.21692 -59.831543 156.44092 -144.47314 161.31677l0 0c-84.641846 4.8758545 -157.19043 -59.44275 -162.04175 -143.65979z" fill-rule="nonzero"></path><path fill="#666666" d="m2613.6746 1547.7625l0 0c0 -54.67566 44.323486 -98.99902 98.99902 -98.99902l0 0c26.256348 0 51.43701 10.430298 70.00293 28.996216c18.565918 18.565918 28.996094 43.746704 28.996094 70.00281l0 0c0 54.67566 -44.323242 98.999146 -98.99902 98.999146l0 0c-54.675537 0 -98.99902 -44.323486 -98.99902 -98.999146z" fill-rule="nonzero"></path><path fill="#666666" d="m2691.2017 1451.5938l10.373779 -29.203857l22.207764 0l10.373779 29.203857z" fill-rule="nonzero"></path><path fill="#666666" d="m2616.0444 1569.2458l-29.23413 -10.3845215l0 -22.141846l29.23413 -10.3845215z" fill-rule="nonzero"></path><path fill="#666666" d="m2809.3105 1526.335l29.23413 10.3845215l0 22.141846l-29.23413 10.3845215z" fill-rule="nonzero"></path><path fill="#666666" d="m2734.157 1643.987l-10.373779 29.203857l-22.207764 0l-10.373779 -29.203857z" fill-rule="nonzero"></path><path fill="#666666" d="m2765.4934 1464.5398l27.98584 -13.314941l15.701416 15.701538l-13.314941 27.985718z" fill-rule="nonzero"></path><path fill="#666666" d="m2629.159 1494.5914l-13.327881 -28.013062l15.657471 -15.657593l28.013184 13.327881z" fill-rule="nonzero"></path><path fill="#666666" d="m2796.1543 1600.9012l13.327881 28.013184l-15.657471 15.657593l-28.013184 -13.328003z" fill-rule="nonzero"></path><path fill="#666666" d="m2659.8225 1630.9556l-27.98584 13.314941l-15.70166 -15.701538l13.314941 -27.98584z" fill-rule="nonzero"></path><path fill="#ffffff" d="m2673.6516 1547.737l0 0c0 -21.325195 17.4729 -38.61267 39.026855 -38.61267l0 0c10.35083 0 20.277344 4.068115 27.596436 11.309448c7.3188477 7.241211 11.430664 17.0625 11.430664 27.303223l0 0c0 21.325195 -17.4729 38.61267 -39.0271 38.61267l0 0c-21.553955 0 -39.026855 -17.287476 -39.026855 -38.61267z" fill-rule="nonzero"></path><path fill="#434343" d="m2834.4802 1695.5469l0 0c21.583496 -80.57239 104.173096 -128.44214 184.469 -106.92029l0 0c38.559326 10.335205 71.42212 35.617554 91.35864 70.28516c19.936523 34.667603 25.313965 75.88074 14.949219 114.573l0 0c-21.58374 80.57239 -104.17334 128.44214 -184.469 106.92029l0 0c-80.2959 -21.521973 -127.8916 -104.28577 -106.30786 -184.85815z" fill-rule="nonzero"></path><path fill="#434343" d="m2986.2986 1584.3453l26.814941 -38.93872l32.510254 8.713867l3.7583008 47.1333z" fill-rule="nonzero"></path><path fill="#434343" d="m2829.4797 1728.1384l-38.847412 -26.758545l8.768555 -32.733032l47.01831 -3.7437744z" fill-rule="nonzero"></path><path fill="#434343" d="m3130.2468 1740.9783l38.847168 26.758545l-8.768311 32.733032l-47.01831 3.7437744z" fill-rule="nonzero"></path><path fill="#434343" d="m2973.4333 1884.7728l-26.815186 38.9386l-32.510254 -8.713745l-3.7580566 -47.133423z" fill-rule="nonzero"></path><path fill="#434343" d="m3090.2917 1632.6666l46.354492 -8.607422l16.863037 29.322998l-30.603027 35.997925z" fill-rule="nonzero"></path><path fill="#434343" d="m2878.21 1623.2869l-8.512939 -46.528687l29.17163 -16.908081l35.880127 30.66626z" fill-rule="nonzero"></path><path fill="#434343" d="m3081.49 1845.6837l8.512939 46.528687l-29.17163 16.908203l-35.88037 -30.66626z" fill-rule="nonzero"></path><path fill="#434343" d="m2869.411 1836.3088l-46.354492 8.607422l-16.863037 -29.322998l30.603027 -35.997925z" fill-rule="nonzero"></path><path fill="#ffffff" d="m2922.5713 1719.118l0 0c8.418457 -31.42566 40.90332 -50.023315 72.55713 -41.539062l0 0c15.200928 4.074341 28.173096 13.976685 36.06299 27.528687c7.8901367 13.552002 10.051514 29.643555 6.009033 44.73474l0 0c-8.418457 31.42566 -40.90332 50.023315 -72.55713 41.539062l0 0c-31.654053 -8.484375 -50.490234 -40.83777 -42.07202 -72.26343z" fill-rule="nonzero"></path><path fill="#262626" d="m2703.298 1770.2737l0 0c0 -23.74707 19.250732 -42.997803 42.997803 -42.997803l0 0c11.403564 0 22.340332 4.5301514 30.404053 12.59375c8.063477 8.063721 12.59375 19.000366 12.59375 30.404053l0 0c0 23.746948 -19.250732 42.99768 -42.997803 42.99768l0 0c-23.74707 0 -42.997803 -19.250732 -42.997803 -42.99768z" fill-rule="nonzero"></path><path fill="#262626" d="m2737.0283 1728.7333l4.4797363 -12.610962l9.570557 0l4.4797363 12.610962z" fill-rule="nonzero"></path><path fill="#262626" d="m2704.6074 1779.5382l-12.611084 -4.4796143l0 -9.570679l12.611084 -4.4796143z" fill-rule="nonzero"></path><path fill="#262626" d="m2787.9778 1761.0083l12.611084 4.4796143l0 9.570679l-12.611084 4.4796143z" fill-rule="nonzero"></path><path fill="#262626" d="m2755.5583 1811.8132l-4.4797363 12.610962l-9.570557 0l-4.4797363 -12.610962z" fill-rule="nonzero"></path><path fill="#262626" d="m2759.035 1729.6649l10.184814 -8.681274l8.28833 4.7852783l-2.4262695 13.160889z" fill-rule="nonzero"></path><path fill="#262626" d="m2705.556 1757.4514l-8.6813965 -10.184814l4.7854004 -8.288208l13.160889 2.4260254z" fill-rule="nonzero"></path><path fill="#262626" d="m2787.0198 1783.0897l8.681152 10.184814l-4.7854004 8.288208l-13.160889 -2.4260254z" fill-rule="nonzero"></path><path fill="#262626" d="m2733.542 1810.8771l-10.184814 8.681274l-8.28833 -4.7854004l2.4260254 -13.160889z" fill-rule="nonzero"></path><path fill="#262626" d="m2777.6406 1741.4756l13.160889 -2.4260254l4.7854004 8.288208l-8.681152 10.184814z" fill-rule="nonzero"></path><path fill="#262626" d="m2717.433 1738.8014l-2.4260254 -13.160889l8.288086 -4.7852783l10.184814 8.681274z" fill-rule="nonzero"></path><path fill="#262626" d="m2775.1653 1801.7354l2.4260254 13.160889l-8.288086 4.7852783l-10.184814 -8.681152z" fill-rule="nonzero"></path><path fill="#262626" d="m2714.9585 1799.0625l-13.160889 2.4261475l-4.7854004 -8.288208l8.6813965 -10.184814z" fill-rule="nonzero"></path><path fill="#ffffff" d="m2733.4995 1770.2794l0 0c0 -7.0429688 5.734619 -12.752319 12.808838 -12.752319l0 0c3.3969727 0 6.6550293 1.3435059 9.057129 3.7351074c2.4020996 2.3914795 3.751709 5.63501 3.751709 9.017212l0 0c0 7.0428467 -5.7348633 12.752197 -12.808838 12.752197l0 0c-7.0742188 0 -12.808838 -5.7093506 -12.808838 -12.752197z" fill-rule="nonzero"></path><path fill="#666666" d="m2688.087 1937.8431l0 0c0 -47.37976 38.46631 -85.7887 85.91699 -85.7887l0 0c22.786621 0 44.639893 9.038452 60.75244 25.126953c16.112549 16.088501 25.16455 37.90918 25.16455 60.661743l0 0c0 47.37976 -38.46631 85.7887 -85.91699 85.7887l0 0c-47.450684 0 -85.91699 -38.408936 -85.91699 -85.7887z" fill-rule="nonzero"></path><path fill="#666666" d="m2755.3694 1854.507l8.989502 -25.306885l19.300049 0l8.989502 25.306885z" fill-rule="nonzero"></path><path fill="#666666" d="m2690.1436 1956.4597l-25.37085 -9.012329l0 -19.160278l25.37085 -9.012329z" fill-rule="nonzero"></path><path fill="#666666" d="m2857.871 1919.2748l25.37085 9.012329l0 19.160278l-25.37085 9.012329z" fill-rule="nonzero"></path><path fill="#666666" d="m2792.6484 2021.2275l-8.989502 25.306885l-19.300049 0l-8.989502 -25.306885z" fill-rule="nonzero"></path><path fill="#666666" d="m2819.844 1865.7256l24.287598 -11.538208l13.626709 13.606323l-11.55542 24.251343z" fill-rule="nonzero"></path><path fill="#666666" d="m2701.5251 1891.7672l-11.56665 -24.275024l13.588379 -13.568359l24.311523 11.549561z" fill-rule="nonzero"></path><path fill="#666666" d="m2846.4531 1983.8911l11.566895 24.275024l-13.588623 13.568237l-24.31128 -11.549438z" fill-rule="nonzero"></path><path fill="#666666" d="m2728.1367 2009.9349l-24.287598 11.538208l-13.626709 -13.606323l11.55542 -24.251343z" fill-rule="nonzero"></path><path fill="#ffffff" d="m2740.1384 1937.821l0 0c0 -18.479492 15.1640625 -33.460205 33.869873 -33.460205l0 0c8.982666 0 17.597656 3.5252686 23.949463 9.800293c6.3518066 6.2750244 9.92041 14.785767 9.92041 23.659912l0 0c0 18.479614 -15.1640625 33.460205 -33.869873 33.460205l0 0c-18.70581 0 -33.869873 -14.980591 -33.869873 -33.460205z" fill-rule="nonzero"></path><path fill="#ffffff" d="m1689.7158 956.62354l4.5985107 -42.299194l11.034058 78.160095l-0.9185791 -57.92914l15.632568 -45.979004l27.585205 -80.0l25.748047 -44.136475l-9.196777 27.585266l29.42517 -43.217834l25.748047 -54.251953l53.333252 -46.897644l40.45935 -41.37799l50.57483 -34.02362l21.149658 -14.713867l-37.700806 14.713867l-45.97644 17.469849l-61.608887 50.574768l22.068237 -27.585266l-50.57483 49.65619l-48.734863 57.929077l-35.863525 66.2074l-22.986938 49.656128l-23.908081 63.448853z" fill-rule="nonzero"></path><path fill="#ffffff" d="m1809.2566 824.2088l-1.8399658 27.587952l14.713989 -25.748047l11.034058 16.551208l-6.435669 25.748047l-16.551147 70.8031l-9.196899 9.196899l-0.9185791 18.391052l9.194214 -10.1154785l1.8398438 66.20734l-16.551147 26.666687l-22.989502 -19.312378l0 -77.23883l7.3569336 -34.02362l11.952759 11.952759l-3.677124 -33.102356l2.758545 -17.472473l8.275513 -11.952698l3.677246 11.952698l-1.8372803 -31.262451z" fill-rule="nonzero"></path><path fill="#ffffff" d="m1700.75 1043.9805l-13.792603 -25.748047l0 43.217896l-8.275635 50.57483l5.51709 29.42517l2.758545 15.632568l3.6796875 -28.506592l6.435791 48.73755l-3.677246 10.112793l-6.4382324 -14.711304l8.275513 35.860962l19.312378 31.265137l28.503906 44.139038l31.265137 40.45935l-35.860962 -59.77173l-11.955322 -53.333252l-8.275635 -33.102417l-16.551147 -104.82678" fill-rule="nonzero"></path><path fill="#000000" fill-opacity="0.0" d="m-94.87664 3515.8677l3156.63 0l0 355.33862l-3156.63 0z" fill-rule="nonzero"></path><path fill="#000000" d="m118.464424 3603.4302l36.624992 0l0 18.328125l-36.624992 0l0 -18.328125zm173.7511 -33.140625q0 -3.296875 1.25 -6.234375q1.265625 -2.9375 3.453125 -5.09375q2.203125 -2.171875 5.125 -3.453125q2.9375 -1.296875 6.25 -1.296875l50.515625 0q3.3125 0 6.25 1.296875q2.9375 1.28125 5.125 3.453125q2.1875 2.15625 3.4375 5.09375q1.265625 2.9375 1.265625 6.234375l0 14.78125l-18.84375 0l0 -12.015625l-44.984375 0l0 60.96875l44.984375 0l0 -11.953125l18.84375 0l0 14.71875q0 3.296875 -1.265625 6.234375q-1.25 2.9375 -3.4375 5.140625q-2.1875 2.1875 -5.140625 3.453125q-2.9375 1.25 -6.234375 1.25l-50.515625 0q-3.296875 0 -6.234375 -1.25q-2.9375 -1.265625 -5.140625 -3.453125q-2.1875 -2.203125 -3.453125 -5.140625q-1.25 -2.9375 -1.25 -6.234375l0 -66.5zm297.72064 19.9375q0 21.828125 -15.34375 24.34375l17.8125 38.296875l-20.828125 0l-17.28125 -37.21875l-24.625 0l0 37.21875l-18.84375 0l0 -98.65625l53.734375 0q25.375 0 25.375 25.421875l0 10.59375zm-60.265625 6.578125l34.1875 0q4.1875 0 5.703125 -1.515625q1.53125 -1.53125 1.53125 -5.71875l0 -9.28125q0 -4.1875 -1.53125 -5.703125q-1.515625 -1.53125 -5.703125 -1.53125l-34.1875 0l0 23.75zm197.09839 -42.59375l73.390625 0l0 18.84375l-54.546875 0l0 21.09375l46.5625 0l0 18.84375l-46.5625 0l0 21.03125l54.546875 0l0 18.84375l-73.390625 0l0 -98.65625zm253.84088 0l38.03125 98.65625l-19.25 0l-8.234375 -21.4375l-38.21875 0l-8.234375 21.4375l-19.25 0l38.03125 -98.65625l17.125 0zm-20.453125 58.375l23.734375 0l-11.828125 -30.609375l-11.90625 30.609375zm179.83551 -58.375l80.015625 0l0 18.84375l-30.59375 0l0 79.8125l-18.84375 0l0 -79.8125l-30.578125 0l0 -18.84375zm295.92444 82.578125q0 3.296875 -1.265625 6.234375q-1.25 2.9375 -3.453125 5.140625q-2.1875 2.1875 -5.140625 3.453125q-2.9375 1.25 -6.21875 1.25l-53.1875 0q-3.296875 0 -6.234375 -1.25q-2.9375 -1.265625 -5.140625 -3.453125q-2.1875 -2.203125 -3.453125 -5.140625q-1.25 -2.9375 -1.25 -6.234375l0 -66.5q0 -3.296875 1.25 -6.234375q1.265625 -2.9375 3.453125 -5.09375q2.203125 -2.171875 5.125 -3.453125q2.9375 -1.296875 6.25 -1.296875l53.1875 0q3.296875 0 6.234375 1.296875q2.9375 1.28125 5.125 3.4375q2.203125 2.15625 3.453125 5.109375q1.265625 2.9375 1.265625 6.234375l0 66.5zm-66.5 -63.734375l0 60.96875l47.65625 0l0 -60.96875l-47.65625 0zm284.15015 17.171875q0 21.828125 -15.34375 24.34375l17.8125 38.296875l-20.828125 0l-17.28125 -37.21875l-24.625 0l0 37.21875l-18.84375 0l0 -98.65625l53.734375 0q25.375 0 25.375 25.421875l0 10.59375zm-60.265625 6.578125l34.1875 0q4.1875 0 5.703125 -1.515625q1.53125 -1.53125 1.53125 -5.71875l0 -9.28125q0 -4.1875 -1.53125 -5.703125q-1.515625 -1.53125 -5.703125 -1.53125l-34.1875 0l0 23.75zm213.17651 16.1875q-3.3125 0 -6.25 -1.28125q-2.921875 -1.296875 -5.125 -3.453125q-2.1875 -2.15625 -3.453125 -5.09375q-1.25 -2.953125 -1.25 -6.25l0 -26.625q0 -3.296875 1.25 -6.234375q1.265625 -2.9375 3.453125 -5.09375q2.203125 -2.171875 5.125 -3.453125q2.9375 -1.296875 6.25 -1.296875l45.203125 0q3.296875 0 6.234375 1.296875q2.9375 1.28125 5.125 3.4375q2.203125 2.15625 3.453125 5.109375q1.265625 2.9375 1.265625 6.234375l0 14.78125l-18.84375 0l0 -12.015625l-39.671875 0l0 21.09375l42.4375 0q3.28125 0 6.21875 1.265625q2.953125 1.25 5.140625 3.453125q2.203125 2.1875 3.453125 5.125q1.265625 2.9375 1.265625 6.234375l0 26.5625q0 3.296875 -1.265625 6.234375q-1.25 2.9375 -3.453125 5.140625q-2.1875 2.1875 -5.140625 3.453125q-2.9375 1.25 -6.21875 1.25l-46.5 0q-3.296875 0 -6.25 -1.25q-2.9375 -1.265625 -5.125 -3.453125q-2.1875 -2.203125 -3.453125 -5.140625q-1.25 -2.9375 -1.25 -6.234375l0 -14.71875l18.84375 0l0 11.953125l40.96875 0l0 -21.03125l-42.4375 0zm199.86401 39.875l0 -98.65625l53.734253 0q25.375 0 25.375 25.421875l0 13.25q0 25.4375 -25.375 25.4375l-34.890503 0l0 34.546875l-18.84375 0zm18.84375 -53.390625l34.187378 0q4.1875 0 5.703125 -1.515625q1.53125 -1.53125 1.53125 -5.71875l0 -11.953125q0 -4.1875 -1.53125 -5.703125q-1.515625 -1.53125 -5.703125 -1.53125l-34.187378 0l0 26.421875zm239.35876 -45.265625l38.03125 98.65625l-19.25 0l-8.234375 -21.4375l-38.21875 0l-8.234375 21.4375l-19.25 0l38.03125 -98.65625l17.125 0zm-20.453125 58.375l23.734375 0l-11.828125 -30.609375l-11.90625 30.609375zm187.81982 -42.296875q0 -3.296875 1.25 -6.234375q1.265625 -2.9375 3.453125 -5.09375q2.203125 -2.171875 5.125 -3.453125q2.9375 -1.296875 6.25 -1.296875l50.515625 0q3.3125 0 6.25 1.296875q2.9375 1.28125 5.125 3.453125q2.1875 2.15625 3.4375 5.09375q1.265625 2.9375 1.265625 6.234375l0 14.78125l-18.84375 0l0 -12.015625l-44.984375 0l0 60.96875l44.984375 0l0 -11.953125l18.84375 0l0 14.71875q0 3.296875 -1.265625 6.234375q-1.25 2.9375 -3.4375 5.140625q-2.1875 2.1875 -5.140625 3.453125q-2.9375 1.25 -6.234375 1.25l-50.515625 0q-3.296875 0 -6.234375 -1.25q-2.9375 -1.265625 -5.140625 -3.453125q-2.1875 -2.203125 -3.453125 -5.140625q-1.25 -2.9375 -1.25 -6.234375l0 -66.5zm218.61133 -16.078125l73.390625 0l0 18.84375l-54.546875 0l0 21.09375l46.5625 0l0 18.84375l-46.5625 0l0 21.03125l54.546875 0l0 18.84375l-73.390625 0l0 -98.65625zm166.66528 49.21875l36.625 0l0 18.328125l-36.625 0l0 -18.328125z" fill-rule="nonzero"></path><path fill="#000000" fill-opacity="0.0" d="m324.85565 3257.1274l2317.1653 0l0 314.9607l-2317.1653 0z" fill-rule="nonzero"></path><path fill="#000000" d="m650.4383 3344.217q0 -0.578125 0.78125 -1.15625q0.78125 -0.59375 1.84375 -1.171875q1.078125 -0.59375 2.25 -0.890625q1.171875 -0.296875 1.953125 -0.09375q0.78125 0.1875 1.953125 1.078125q1.171875 0.875 2.25 1.859375q1.078125 0.96875 1.859375 2.046875q0.78125 1.0625 0.78125 1.65625l0 108.390625q2.34375 -2.921875 7.90625 -4.0q5.5625 -1.078125 13.171875 -1.46875q7.625 -0.390625 16.703125 -0.484375q9.09375 -0.09375 18.46875 -0.96875q9.375 -0.890625 18.453125 -3.125q9.078125 -2.25 16.703125 -6.75q7.21875 -4.296875 9.859375 -4.390625q2.640625 -0.09375 1.859375 2.453125q-0.78125 2.53125 -4.6875 6.640625q-3.90625 4.09375 -9.671875 8.203125q-5.765625 4.09375 -13.0 7.21875q-7.21875 3.125 -14.828125 3.515625q-1.953125 0.1875 -5.859375 0.1875q-3.90625 0 -8.984375 0.109375q-5.078125 0.09375 -10.546875 0q-5.46875 -0.109375 -10.546875 -0.109375l-8.984375 0q-3.90625 0 -5.859375 -0.1875q-2.34375 1.75 -4.796875 5.953125q-2.4375 4.203125 -5.265625 8.109375q-2.828125 3.90625 -6.15625 6.25q-3.3125 2.34375 -7.609375 0.1875l0 -139.0625zm242.38281 135.54688q-9.765625 -9.765625 -12.21875 -21.671875q-2.4375 -11.921875 -1.171875 -24.515625q1.28125 -12.59375 4.6875 -25.09375q3.421875 -12.5 5.375 -23.4375q0.78125 -4.296875 1.171875 -10.34375q0.390625 -6.0625 0.96875 -12.703125q0.59375 -6.640625 1.5625 -13.078125q0.984375 -6.453125 3.140625 -11.53125q0.1875 -0.390625 1.359375 -1.65625q1.171875 -1.28125 1.953125 -1.671875q13.484375 -8.0 24.21875 -6.140625q10.75 1.84375 18.5625 10.546875q7.8125 8.6875 12.59375 22.65625q4.78125 13.953125 6.34375 29.875q1.5625 15.921875 -0.09375 32.234375q-1.65625 16.296875 -6.734375 29.875q-5.078125 13.578125 -13.78125 22.765625q-8.6875 9.171875 -20.984375 10.734375q-4.6875 0.59375 -8.203125 0.78125q-3.515625 0.203125 -6.640625 -0.390625q-3.125 -0.59375 -5.96875 -2.25q-2.828125 -1.65625 -6.140625 -4.984375zm10.15625 -6.828125q9.765625 6.640625 17.28125 5.765625q7.515625 -0.890625 12.984375 -6.9375q5.46875 -6.0625 8.984375 -16.21875q3.515625 -10.15625 5.375 -22.15625q1.859375 -12.015625 2.046875 -24.90625q0.203125 -12.890625 -0.78125 -24.21875q-0.96875 -11.328125 -3.21875 -20.21875q-2.25 -8.890625 -5.375 -12.984375q-7.21875 -9.578125 -12.59375 -12.703125q-5.375 -3.125 -9.375 -1.84375q-4.0 1.265625 -6.640625 6.25q-2.640625 4.96875 -4.109375 11.90625q-1.453125 6.9375 -1.953125 14.84375q-0.484375 7.90625 -0.09375 15.046875q0.390625 7.125 1.5625 12.796875q1.171875 5.65625 2.734375 7.796875q0.59375 0.78125 2.9375 2.546875q2.34375 1.75 5.265625 4.0q2.9375 2.25 5.765625 4.984375q2.828125 2.734375 4.484375 5.5625q1.671875 2.828125 1.5625 5.375q-0.09375 2.53125 -3.21875 4.6875q-2.53125 1.75 -5.5625 0.96875q-3.03125 -0.78125 -6.15625 -2.921875q-3.125 -2.15625 -6.0625 -5.46875q-2.921875 -3.328125 -5.46875 -6.453125q-2.53125 -3.125 -4.390625 -5.859375q-1.84375 -2.734375 -2.625 -3.90625l-3.515625 6.640625l0 40.625q0 1.171875 0.96875 3.515625q0.984375 2.34375 2.4375 4.984375q1.46875 2.640625 3.21875 4.984375q1.765625 2.34375 3.53125 3.515625zm176.164 -91.40625q-0.578125 -0.78125 -2.53125 -3.125q-1.953125 -2.34375 -3.234375 -4.984375q-1.265625 -2.640625 -1.171875 -5.171875q0.109375 -2.546875 3.625 -3.71875q1.359375 -0.578125 4.0 -0.578125q2.640625 0 2.828125 0.578125l33.796875 81.453125q1.5625 -12.890625 4.1875 -26.171875q2.640625 -13.28125 6.9375 -26.078125q4.296875 -12.796875 10.640625 -24.609375q6.359375 -11.8125 15.53125 -21.578125q2.734375 -3.125 7.21875 -7.71875q4.5 -4.59375 8.890625 -8.890625q4.40625 -4.296875 7.625 -7.421875q3.21875 -3.125 3.421875 -3.125l10.15625 0q1.5625 2.34375 -0.6875 5.078125q-2.25 2.734375 -5.671875 5.1875q-3.40625 2.4375 -6.734375 4.296875q-3.3125 1.84375 -3.90625 2.4375q-15.625 15.625 -24.609375 32.234375q-8.984375 16.59375 -13.875 34.65625q-4.875 18.0625 -6.53125 37.703125q-1.65625 19.625 -2.4375 41.296875l-1.375 0.78125q-0.96875 0.390625 -2.046875 0.984375q-1.078125 0.578125 -2.0625 0.96875q-0.96875 0.390625 -1.359375 0.59375q-0.578125 0.390625 -1.859375 0.390625q-1.265625 0 -1.453125 -0.390625l-37.3125 -105.078125zm233.99219 101.75q-7.625 -5.65625 -10.0625 -13.46875q-2.4375 -7.8125 -3.609375 -17.0q0.390625 -2.734375 0.96875 -8.59375q0.59375 -5.859375 1.375 -13.171875q0.78125 -7.328125 1.453125 -15.53125q0.6875 -8.203125 1.375 -15.53125q0.6875 -7.328125 1.078125 -13.1875q0.390625 -5.859375 0.578125 -8.59375q0.203125 -1.5625 0.203125 -5.46875l0 -16.203125q0 -3.90625 -0.203125 -5.46875l3.515625 -3.515625l60.9375 -20.3125l6.84375 0q0.96875 2.734375 0.28125 5.859375q-0.671875 3.125 -3.796875 4.296875l-50.78125 20.5l-3.328125 3.328125q-0.1875 0.1875 -0.578125 4.09375q-0.390625 3.90625 -0.984375 9.28125q-0.578125 5.375 -1.171875 11.046875q-0.578125 5.65625 -0.78125 9.359375q0 0.984375 -0.09375 3.421875q-0.09375 2.4375 -0.09375 5.078125q0 2.640625 0.09375 5.078125q0.09375 2.4375 0.09375 3.421875l57.625 -30.46875q1.359375 -0.78125 2.046875 0.390625q0.6875 1.171875 0.6875 3.125q0 1.953125 -0.6875 3.90625q-0.6875 1.953125 -2.046875 2.734375q-3.328125 2.140625 -8.109375 4.875q-4.78125 2.734375 -9.96875 5.765625q-5.171875 3.03125 -10.34375 5.96875q-5.171875 2.921875 -9.28125 5.265625q-4.09375 2.34375 -6.734375 3.8125q-2.640625 1.453125 -2.828125 1.453125l-13.671875 0l0 43.953125q0 8.984375 4.0 11.53125q4.0 2.53125 10.15625 1.0625q6.15625 -1.46875 13.375 -5.765625q7.234375 -4.296875 13.578125 -9.171875q6.34375 -4.890625 10.9375 -9.078125q4.59375 -4.203125 5.5625 -5.375q0.78125 -4.890625 2.15625 -8.015625q1.171875 -2.734375 3.125 -3.90625q1.953125 -1.171875 4.875 1.765625q1.171875 6.046875 -1.859375 13.078125q-3.015625 7.03125 -8.6875 13.671875q-5.65625 6.640625 -13.375 12.21875q-7.71875 5.5625 -15.625 8.796875q-7.90625 3.21875 -15.328125 3.5q-7.421875 0.296875 -12.890625 -3.8125zm179.49219 -139.0625q0 -0.578125 0.78125 -1.15625q0.78125 -0.59375 1.84375 -1.171875q1.078125 -0.59375 2.25 -0.890625q1.171875 -0.296875 1.953125 -0.09375q0.78125 0.1875 1.953125 1.078125q1.171875 0.875 2.25 1.859375q1.078125 0.96875 1.859375 2.046875q0.78125 1.0625 0.78125 1.65625l0 108.390625q2.34375 -2.921875 7.90625 -4.0q5.5625 -1.078125 13.171875 -1.46875q7.625 -0.390625 16.703125 -0.484375q9.09375 -0.09375 18.46875 -0.96875q9.375 -0.890625 18.453125 -3.125q9.078125 -2.25 16.703125 -6.75q7.21875 -4.296875 9.859375 -4.390625q2.640625 -0.09375 1.859375 2.453125q-0.78125 2.53125 -4.6875 6.640625q-3.90625 4.09375 -9.671875 8.203125q-5.765625 4.09375 -13.0 7.21875q-7.21875 3.125 -14.828125 3.515625q-1.953125 0.1875 -5.859375 0.1875q-3.90625 0 -8.984375 0.109375q-5.078125 0.09375 -10.546875 0q-5.46875 -0.109375 -10.546875 -0.109375l-8.984375 0q-3.90625 0 -5.859375 -0.1875q-2.34375 1.75 -4.796875 5.953125q-2.4375 4.203125 -5.265625 8.109375q-2.828125 3.90625 -6.15625 6.25q-3.3125 2.34375 -7.609375 0.1875l0 -139.0625zm339.4453 105.078125q-0.1875 -0.96875 -1.46875 -3.5q-1.265625 -2.546875 -2.046875 -3.328125q-2.140625 -0.78125 -7.90625 -2.640625q-5.765625 -1.859375 -12.21875 -4.09375q-6.4375 -2.25 -12.203125 -4.203125q-5.75 -1.953125 -8.09375 -2.734375q-0.59375 -0.203125 -2.546875 -1.265625q-1.953125 -1.078125 -4.296875 -2.34375q-2.34375 -1.28125 -4.296875 -2.25q-1.953125 -0.984375 -2.53125 -0.984375q-3.71875 0 -7.046875 4.5q-3.3125 4.484375 -6.640625 11.125q-3.3125 6.640625 -7.03125 14.171875q-3.703125 7.515625 -8.203125 13.578125q-4.484375 6.046875 -9.859375 9.46875q-5.359375 3.40625 -12.0 1.65625l0 -6.84375q1.359375 -1.75 4.390625 -5.453125q3.03125 -3.71875 6.640625 -8.40625q3.609375 -4.6875 7.703125 -9.859375q4.109375 -5.1875 7.71875 -9.875q3.625 -4.6875 6.453125 -8.390625q2.828125 -3.71875 4.203125 -5.671875q2.53125 -3.3125 0.875 -9.265625q-1.65625 -5.96875 -4.890625 -12.796875q-3.21875 -6.84375 -6.9375 -13.671875q-3.703125 -6.84375 -5.265625 -11.71875q-1.5625 -4.890625 0.1875 -7.03125q1.765625 -2.15625 9.578125 0.390625q2.734375 8.203125 7.609375 16.796875q4.890625 8.59375 12.515625 13.671875q6.25 -4.109375 11.8125 -11.140625q5.5625 -7.03125 10.34375 -15.8125q4.796875 -8.796875 8.796875 -18.65625q4.0 -9.859375 7.21875 -19.53125q3.234375 -9.671875 5.578125 -18.265625q2.34375 -8.59375 3.90625 -14.84375q1.5625 -2.734375 4.390625 -4.296875q2.828125 -1.5625 5.5625 -2.53125q1.375 1.75 1.765625 8.59375q0.390625 6.828125 0.390625 16.703125q0 9.859375 -0.296875 21.875q-0.296875 12.0 -0.390625 24.21875q-0.09375 12.203125 0.09375 23.828125q0.203125 11.609375 1.078125 20.5q0.875 8.890625 2.625 14.359375q1.765625 5.46875 4.890625 5.46875l20.515625 0l0 12.109375l-17.0 0q-3.515625 0 -2.734375 4.390625q0.78125 4.390625 3.609375 11.234375q2.84375 6.828125 6.640625 15.140625q3.8125 8.296875 6.453125 15.90625q2.640625 7.625 3.03125 13.875q0.390625 6.25 -3.515625 8.796875q-0.78125 0.390625 -3.421875 0.390625q-2.640625 0 -3.421875 -0.390625q-0.96875 -3.515625 -3.90625 -12.109375q-2.921875 -8.59375 -6.15625 -18.359375q-3.21875 -9.78125 -6.15625 -18.375q-2.921875 -8.59375 -4.09375 -12.109375zm-33.78125 -30.65625q1.171875 0.578125 4.390625 2.046875q3.21875 1.46875 7.03125 3.125q3.8125 1.65625 7.328125 3.03125q3.515625 1.359375 5.078125 1.953125q0.390625 0.1875 1.5625 0.1875q1.171875 0 1.5625 -0.1875q0.78125 -8.015625 0 -20.125q-0.78125 -12.109375 -2.0625 -24.796875q-1.265625 -12.703125 -2.640625 -24.3125q-1.359375 -11.625 -1.9375 -18.65625l-37.3125 67.765625q0.78125 0.59375 3.21875 2.0625q2.453125 1.453125 5.078125 3.125q2.640625 1.65625 5.078125 3.03125q2.453125 1.359375 3.625 1.75zm174.21875 64.640625q-2.734375 -29.6875 -3.625 -59.375q-0.875 -29.6875 0.109375 -59.375q0.390625 -0.96875 1.65625 -3.609375q1.265625 -2.640625 3.125 -4.875q1.859375 -2.25 4.203125 -3.125q2.34375 -0.890625 4.6875 1.453125l16.984375 17.0l47.46875 78.125l0.96875 1.359375q1.171875 1.375 2.734375 2.84375q1.5625 1.453125 3.21875 2.34375q1.671875 0.875 3.234375 -0.109375q-0.203125 -3.125 -0.796875 -9.765625q-0.578125 -6.640625 -1.265625 -14.9375q-0.671875 -8.296875 -1.453125 -17.46875q-0.78125 -9.1875 -1.46875 -17.578125q-0.6875 -8.40625 -1.171875 -15.046875q-0.484375 -6.640625 -0.6875 -9.765625q-0.1875 -2.546875 -0.1875 -8.5q0 -5.953125 0.671875 -13.375q0.6875 -7.421875 2.15625 -15.234375q1.46875 -7.8125 4.203125 -13.765625q2.734375 -5.96875 6.828125 -8.984375q4.109375 -3.03125 9.96875 -1.078125q0.78125 0 2.046875 1.265625q1.265625 1.265625 1.265625 2.046875q-1.359375 1.765625 -3.3125 4.203125q-1.953125 2.4375 -3.8125 5.171875q-1.859375 2.734375 -3.625 5.578125q-1.75 2.828125 -2.53125 5.359375q-0.1875 2.546875 -0.1875 7.828125q0 5.265625 -0.109375 12.0q-0.09375 6.734375 0 14.0625q0.109375 7.328125 0.109375 14.15625l0 11.921875q0 5.265625 0.1875 7.8125q0 1.5625 0.484375 7.515625q0.5 5.953125 1.078125 12.796875q0.59375 6.828125 1.171875 12.890625q0.59375 6.046875 0.59375 7.609375q0 1.953125 0.09375 6.0625q0.09375 4.09375 0.09375 8.390625q0 4.296875 -0.09375 7.921875q-0.09375 3.609375 -0.09375 4.578125q-0.203125 0.984375 -0.984375 2.9375q-0.78125 1.953125 -2.15625 3.515625q-1.359375 1.5625 -3.125 2.046875q-1.75 0.484375 -3.890625 -1.65625l-23.828125 -23.640625l-43.953125 -71.28125l-5.265625 -3.328125l0 105.078125q0 2.734375 -1.671875 3.421875q-1.65625 0.6875 -3.703125 0.1875q-2.046875 -0.484375 -4.0 -1.546875q-1.953125 -1.078125 -2.34375 -2.0625zm263.8672 -12.296875q0.390625 -0.203125 0.875 -4.984375q0.484375 -4.78125 1.0625 -11.21875q0.59375 -6.453125 0.984375 -13.28125q0.390625 -6.84375 0.59375 -11.34375q0 -2.53125 0.09375 -7.21875q0.09375 -4.6875 0.09375 -10.453125q0 -5.765625 0.09375 -12.015625q0.109375 -6.25 0 -11.8125q-0.09375 -5.5625 -0.1875 -9.859375q-0.09375 -4.296875 -0.09375 -6.25q0 -0.78125 -0.5 -2.734375q-0.484375 -1.953125 -0.96875 -4.09375q-0.484375 -2.15625 -1.078125 -4.015625q-0.578125 -1.859375 -0.96875 -2.640625q-6.84375 -0.578125 -13.875 0.796875q-7.03125 1.359375 -13.875 3.125q-6.828125 1.75 -13.5625 2.921875q-6.734375 1.171875 -12.796875 0q-1.5625 -3.328125 3.03125 -6.734375q4.59375 -3.421875 13.375 -6.0625q8.796875 -2.640625 20.515625 -4.296875q11.71875 -1.65625 24.21875 -1.453125q12.5 0.1875 24.609375 2.625q12.109375 2.4375 21.671875 7.8125q9.578125 5.375 15.4375 13.96875q5.859375 8.59375 5.859375 21.28125q0 4.5 -1.5625 9.578125q-1.5625 5.078125 -4.015625 10.15625q-2.4375 5.078125 -5.46875 9.671875q-3.015625 4.578125 -5.953125 7.703125q-1.359375 1.5625 -4.484375 4.796875q-3.125 3.21875 -7.140625 7.328125q-4.0 4.09375 -8.5 8.484375q-4.484375 4.390625 -8.484375 8.40625q-4.0 4.0 -7.234375 7.125q-3.21875 3.125 -4.78125 4.6875q-0.578125 4.6875 -1.5625 8.59375q-0.96875 3.90625 -2.921875 6.0625q-1.953125 2.140625 -4.984375 2.046875q-3.03125 -0.09375 -7.515625 -3.234375q-4.296875 2.9375 -9.09375 8.3125q-4.78125 5.375 -9.859375 10.34375q-5.078125 4.984375 -10.546875 7.90625q-5.46875 2.9375 -10.9375 0.59375l0 -6.828125l40.4375 -33.796875zm16.984375 -13.671875q12.3125 -5.078125 21.78125 -14.9375q9.46875 -9.875 15.03125 -21.59375q5.578125 -11.71875 6.75 -23.71875q1.171875 -12.015625 -2.9375 -21.1875q-4.09375 -9.1875 -13.96875 -14.171875q-9.859375 -4.984375 -26.65625 -2.640625l0 98.25z" fill-rule="nonzero"></path><path fill="#000000" fill-opacity="0.0" d="m1480.5604 141.0566l2317.165 0l0 314.96063l-2317.165 0z" fill-rule="nonzero"></path><path fill="#000000" d="m1806.1431 223.99004q0 -2.65625 1.71875 -3.953125q1.734375 -1.296875 3.171875 -2.078125q1.4375 -0.78125 3.375 -1.28125q1.953125 -0.5 3.734375 -0.03125q1.578125 0.375 3.15625 1.578125q1.59375 1.203125 2.890625 2.390625q1.3125 1.171875 2.625 2.96875q1.3125 1.78125 1.3125 3.734375l0 96.562485q-4.09375 5.125 2.359375 3.875q6.453125 -1.265625 14.25 -1.65625q7.8125 -0.40625 16.84375 -0.5q9.046875 -0.09375 18.171875 -0.953125q9.140625 -0.859375 17.765625 -2.984375q8.640625 -2.140625 15.734375 -6.328125q8.125 -4.84375 14.21875 -5.046875q6.09375 -0.21875 4.3125 5.578125q-1.78125 5.796875 -6.171875 10.40625q-4.375 4.59375 -10.484375 8.9375q-6.109375 4.34375 -13.890625 7.703125q-7.765625 3.359375 -16.015625 3.78125q-2.0625 0.203125 -6.046875 0.203125q-3.984375 0 -9.09375 0.109375q-5.09375 0.09375 -10.578125 0q-5.484375 -0.109375 -10.53125 -0.109375l-8.984375 0q-4.109375 0 -4.65625 -0.0625q-0.390625 0.28125 -2.671875 4.21875q-2.28125 3.921875 -5.375 8.203125q-3.078125 4.265625 -7.703125 7.53125q-4.625 3.25 -13.4375 -1.171875l0 -141.62498zm243.60156 138.48436q-10.65625 -10.640625 -13.296875 -23.46875q-2.625 -12.84375 -1.3125 -25.921875q1.328125 -13.09375 4.765625 -25.65625q3.453125 -12.578125 5.359375 -23.34375q0.75 -4.0625 1.125 -10.01561q0.390625 -5.96875 0.984375 -12.703125q0.59375 -6.734375 1.609375 -13.5q1.03125 -6.765625 3.4375 -12.421875q0.484375 -1.03125 2.125 -2.8125q1.65625 -1.78125 2.984375 -2.4375q14.671875 -8.703125 26.875 -6.609375q12.203125 2.09375 20.78125 11.65625q8.578125 9.546875 13.578125 24.140625q5.0 14.578125 6.59375 30.95311q1.609375 16.359375 -0.09375 33.140625q-1.703125 16.78125 -7.03125 31.015625q-5.3125 14.21875 -14.8125 24.234375q-9.484375 10.015625 -23.265625 11.78125q-4.828125 0.609375 -8.671875 0.8125q-3.84375 0.21875 -7.578125 -0.484375q-3.71875 -0.703125 -7.09375 -2.671875q-3.375 -1.984375 -7.0625 -5.6875zm15.40625 -13.21875q8.515625 5.78125 14.484375 5.09375q5.96875 -0.703125 10.625 -5.859375q4.671875 -5.171875 7.984375 -14.75q3.3125 -9.578125 5.109375 -21.265625q1.8125 -11.6875 2.0 -24.328125q0.203125 -12.640625 -0.75 -23.6875q-0.953125 -11.062485 -3.0625 -19.374985q-2.109375 -8.3125 -4.71875 -11.734375q-6.71875 -8.921875 -10.9375 -11.375q-4.21875 -2.453125 -6.53125 -1.71875q-2.3125 0.734375 -4.421875 4.71875q-2.09375 3.96875 -3.46875 10.46875q-1.359375 6.5 -1.84375 14.140625q-0.484375 7.6249847 -0.109375 14.48436q0.390625 6.859375 1.4375 11.9375q1.046875 5.0625 2.046875 6.4375q0.234375 0.28125 2.34375 1.875q2.125 1.59375 5.15625 3.9375q3.03125 2.328125 6.140625 5.34375q3.125 3.0 5.234375 6.609375q2.125 3.59375 1.953125 7.78125q-0.171875 4.171875 -5.0 7.515625q-4.09375 2.8125 -8.40625 1.71875q-4.296875 -1.109375 -7.9375 -3.609375q-3.640625 -2.5 -6.765625 -6.046875q-3.125 -3.546875 -5.75 -6.765625q-2.625 -3.234375 -4.53125 -6.046875q-1.90625 -2.828125 1.171875 1.796875l0.234375 -0.4375l0 39.59375q0 0.34375 0.765625 2.203125q0.78125 1.84375 2.109375 4.265625q1.34375 2.40625 2.796875 4.359375q1.453125 1.9375 2.640625 2.71875zm170.14844 -85.984375q-0.140625 -0.1875 -2.21875 -2.671875q-2.078125 -2.5 -3.6875 -5.8281097q-1.609375 -3.34375 -1.4375 -7.828125q0.1875 -4.5 6.265625 -6.53125q1.984375 -0.84375 6.546875 -0.84375q4.578125 0 5.65625 3.296875l27.671875 66.687485q-0.328125 2.65625 2.34375 -10.828125q2.671875 -13.5 7.0625 -26.578125q4.40625 -13.09375 10.96875 -25.29686q6.5625 -12.21875 16.0625 -22.328125q2.765625 -3.15625 7.3125 -7.796875q4.546875 -4.65625 8.953125 -8.96875q4.421875 -4.328125 8.25 -8.03125q3.828125 -3.71875 5.71875 -3.71875l12.390625 0q4.5 6.765625 1.09375 10.90625q-3.40625 4.125 -7.140625 6.796875q-3.734375 2.671875 -6.90625 4.453125q-3.15625 1.765625 -3.34375 1.9375q-15.1875 15.203125 -23.921875 31.328125q-8.71875 16.10936 -13.5 33.76561q-4.765625 17.640625 -6.40625 37.046875q-1.625 19.390625 -2.484375 43.28125l-3.640625 2.0625q-1.015625 0.40625 -2.09375 1.0q-1.078125 0.578125 -2.078125 0.984375q-0.984375 0.390625 -0.984375 0.390625q-1.4375 0.96875 -4.65625 0.96875q-3.203125 0 -4.625 -2.953125l-37.171875 -104.703125zm235.21094 103.109375q-8.703125 -6.453125 -11.40625 -15.078125q-2.6875 -8.640625 -3.96875 -18.75q0.453125 -3.203125 1.03125 -9.015625q0.578125 -5.828125 1.359375 -13.125q0.78125 -7.3125 1.453125 -15.5q0.6875 -8.1875 1.375 -15.5q0.6875 -7.3125 1.078125 -13.140625q0.390625 -5.84375 0.578125 -8.703125q0.1875 -1.421875 0.1875 -5.0624847l0 -16.203125q0 -3.640625 -0.421875 -6.953125l5.640625 -5.65625l62.515625 -20.84375l10.453125 0q2.34375 6.625 1.296875 11.4375q-1.046875 4.796875 -6.25 6.75l-49.9375 20.15625l-2.734375 2.734375q0.859375 -0.859375 0.546875 2.328125q-0.3125 3.171875 -0.90625 8.546875q-0.578125 5.3749847 -1.171875 10.98436q-0.578125 5.609375 -0.765625 9.09375q0 0.953125 -0.09375 3.390625q-0.09375 2.4375 -0.09375 5.0q0 2.5625 0.09375 5.0q0.09375 2.4375 0.09375 -3.390625l51.46875 -27.21875q4.859375 -2.7968597 6.875 0.640625q2.015625 3.4375 2.015625 6.3125q0 2.859375 -1.0625 5.890625q-1.0625 3.015625 -3.671875 4.5q-3.328125 2.140625 -8.15625 4.90625q-4.8125 2.75 -10.0 5.796875q-5.171875 3.03125 -10.359375 5.96875q-5.171875 2.921875 -9.296875 5.28125q-4.109375 2.34375 -7.234375 4.078125q-3.109375 1.71875 -4.375 1.71875l-9.515625 0l0 39.796875q0 6.703125 2.296875 8.15625q2.296875 1.453125 7.28125 0.265625q5.0 -1.1875 11.84375 -5.25q6.859375 -4.078125 13.03125 -8.828125q6.171875 -4.765625 10.59375 -8.796875q4.421875 -4.046875 4.484375 -4.125q0.6875 -4.296875 2.265625 -7.890625q1.6875 -3.953125 5.609375 -6.296875q3.9375 -2.359375 10.046875 3.78125q1.640625 8.546875 -1.765625 16.453125q-3.390625 7.90625 -9.421875 14.984375q-6.015625 7.0625 -14.140625 12.921875q-8.125 5.859375 -16.609375 9.328125q-8.46875 3.453125 -17.0 3.78125q-8.515625 0.328125 -15.15625 -4.65625zm177.82031 -142.39061q0 -2.65625 1.71875 -3.953125q1.734375 -1.296875 3.171875 -2.078125q1.4375 -0.78125 3.375 -1.28125q1.953125 -0.5 3.734375 -0.03125q1.578125 0.375 3.15625 1.578125q1.59375 1.203125 2.890625 2.390625q1.3125 1.171875 2.625 2.96875q1.3125 1.78125 1.3125 3.734375l0 96.562485q-4.09375 5.125 2.359375 3.875q6.453125 -1.265625 14.25 -1.65625q7.8125 -0.40625 16.84375 -0.5q9.046875 -0.09375 18.171875 -0.953125q9.140625 -0.859375 17.765625 -2.984375q8.640625 -2.140625 15.734375 -6.328125q8.125 -4.84375 14.21875 -5.046875q6.09375 -0.21875 4.3125 5.578125q-1.78125 5.796875 -6.171875 10.40625q-4.375 4.59375 -10.484375 8.9375q-6.109375 4.34375 -13.890625 7.703125q-7.765625 3.359375 -16.015625 3.78125q-2.0625 0.203125 -6.046875 0.203125q-3.984375 0 -9.09375 0.109375q-5.09375 0.09375 -10.578125 0q-5.484375 -0.109375 -10.53125 -0.109375l-8.984375 0q-4.109375 0 -4.65625 -0.0625q-0.390625 0.28125 -2.671875 4.21875q-2.28125 3.921875 -5.375 8.203125q-3.078125 4.265625 -7.703125 7.53125q-4.625 3.25 -13.4375 -1.171875l0 -141.62498zm339.5703 106.14061q-0.140625 -0.671875 -1.125 -2.65625q-0.984375 -2.0 -0.640625 -1.65625q-1.203125 -0.421875 -6.96875 -2.28125q-5.75 -1.859375 -12.203125 -4.09375q-6.453125 -2.25 -12.203125 -4.203125q-5.75 -1.953125 -8.09375 -2.734375q-0.953125 -0.328125 -3.0625 -1.484375q-2.09375 -1.15625 -4.40625 -2.40625q-2.3125 -1.25 -3.796875 -1.984375q-1.484375 -0.75 -1.078125 -0.75q-1.625 0 -4.21875 3.515625q-2.578125 3.5 -5.828125 9.96875q-3.234375 6.46875 -7.03125 14.15625q-3.78125 7.6875 -8.609375 14.203125q-4.828125 6.515625 -11.296875 10.625q-6.453125 4.109375 -17.953125 1.078125l0 -11.46875q2.265625 -2.921875 5.296875 -6.625q3.03125 -3.703125 6.625 -8.375q3.59375 -4.6875 7.6875 -9.859375q4.109375 -5.1875 7.71875 -9.859375q3.609375 -4.671875 6.40625 -8.34375q2.796875 -3.671875 4.1875 -5.625q1.3125 -1.734375 -0.015625 -6.53125q-1.328125 -4.796875 -4.453125 -11.421875q-3.125 -6.625 -6.90625 -13.578125q-3.78125 -6.953125 -5.75 -13.093735q-1.96875 -6.15625 1.40625 -10.265625q3.375 -4.125 15.890625 -0.046875q3.265625 9.796875 7.796875 17.79686q4.546875 7.984375 9.0625 10.984375q3.390625 -2.21875 8.625 -8.84375q5.25 -6.640625 9.90625 -15.17186q4.65625 -8.53125 8.578125 -18.21875q3.921875 -9.6875 7.109375 -19.234375q3.1875 -9.5625 5.515625 -18.078125q2.328125 -8.515625 4.0 -15.28125q2.4375 -4.25 5.921875 -6.171875q3.484375 -1.9375 9.359375 -4.0q4.03125 5.109375 4.453125 12.65625q0.4375 7.546875 0.4375 17.5q0 9.953125 -0.296875 21.96875q-0.296875 12.015625 -0.390625 24.1875q-0.09375 12.17186 0.09375 23.687485q0.203125 11.5 1.046875 20.09375q0.84375 8.578125 2.0625 12.390625q1.234375 3.8125 1.328125 3.8125l24.671875 0l0 20.421875l-21.15625 0q1.4375 0 1.75 1.734375q0.3125 1.71875 3.046875 8.3125q2.734375 6.59375 6.5625 14.953125q3.828125 8.359375 6.59375 16.34375q2.765625 7.96875 3.25 15.703125q0.484375 7.75 -5.65625 11.75q-1.859375 0.9375 -5.484375 0.9375q-3.625 0 -6.9375 -1.65625q-1.421875 -5.1875 -4.34375 -13.734375q-2.90625 -8.53125 -6.140625 -18.296875q-3.21875 -9.78125 -6.15625 -18.375q-2.921875 -8.59375 -4.1875 -12.375zm-28.15625 -35.578125q1.359375 0.6875 4.53125 2.140625q3.171875 1.4375 6.921875 3.078125q3.765625 1.625 7.234375 2.984375q3.46875 1.34375 5.1875 2.0q-0.296875 -0.15625 -0.078125 -0.15625q0.21875 0 -2.34375 1.234375q0.515625 -5.34375 -0.25 -17.25q-0.765625 -11.90625 -2.03125 -24.546875q-1.265625 -12.64061 -2.640625 -24.281235q-1.375 -11.640625 -0.828125 -4.984375l-28.9375 52.531235q-2.25 -1.703125 0.109375 -0.296875q2.375 1.40625 4.984375 3.0625q2.609375 1.640625 4.828125 2.890625q2.234375 1.25 3.3125 1.59375zm168.53125 69.484375q-2.796875 -30.421875 -3.6875 -60.234375q-0.875 -29.8125 0.140625 -60.374985q0.71875 -1.765625 2.109375 -4.703125q1.40625 -2.9375 3.78125 -5.796875q2.375 -2.859375 6.484375 -4.40625q4.125 -1.5625 8.359375 2.6875l17.34375 17.359375l47.640625 78.42186l0.78125 1.078125q0.890625 1.0625 2.171875 2.265625q1.28125 1.1875 1.640625 1.375q0.359375 0.1875 -2.21875 1.796875q-0.03125 -0.609375 -0.625 -7.21875q-0.578125 -6.625 -1.265625 -14.921875q-0.671875 -8.3125 -1.453125 -17.484375q-0.78125 -9.1875 -1.46875 -17.59375q-0.6875 -8.40625 -1.171875 -15.0625q-0.484375 -6.6718597 -0.6875 -9.79686q-0.203125 -2.671875 -0.203125 -8.796875q0 -6.125 0.703125 -13.734375q0.703125 -7.625 2.234375 -15.78125q1.53125 -8.15625 4.59375 -14.84375q3.0625 -6.6875 8.453125 -10.65625q5.40625 -3.984375 12.671875 -1.5625q1.828125 0 4.3125 2.484375q2.484375 2.484375 2.484375 6.40625q-2.25 2.90625 -4.171875 5.296875q-1.90625 2.390625 -3.703125 5.03125q-1.78125 2.625 -3.375 5.203125q-1.59375 2.5625 -2.078125 4.140625q-0.140625 1.921875 -0.140625 7.140625q0 5.203125 -0.109375 11.921875q-0.09375 6.71875 0 14.03125q0.109375 7.3125 0.109375 14.17186l0 11.921875q0 5.109375 0.1875 7.65625q0 1.546875 0.484375 7.421875q0.484375 5.859375 1.0625 12.6875q0.59375 6.8125 1.1875 12.953125q0.59375 6.140625 0.59375 7.90625q0 1.90625 0.09375 6.015625q0.09375 4.09375 0.09375 8.4375q0 4.34375 -0.09375 7.96875q-0.09375 3.609375 -0.09375 4.953125q-0.359375 1.765625 -1.34375 4.21875q-0.984375 2.453125 -3.0 4.75q-2.0 2.296875 -5.53125 3.28125q-3.53125 0.96875 -7.375 -2.890625l-24.171875 -23.96875l-43.703125 -70.890625l1.921875 1.21875l0 97.53125q0 5.515625 -3.578125 7.0q-3.5625 1.46875 -6.546875 0.75q-2.96875 -0.71875 -5.828125 -2.28125q-2.84375 -1.5625 -4.015625 -4.484375zm265.6328 -16.765625q-1.1875 0.625 -0.828125 -3.015625q0.375 -3.65625 0.953125 -10.0625q0.59375 -6.40625 0.96875 -13.1875q0.390625 -6.796875 0.59375 -11.171875q0 -2.484375 0.09375 -7.171875q0.09375 -4.6875 0.09375 -10.4375q0 -5.765625 0.09375 -12.0q0.109375 -6.234375 0 -11.75q-0.09375 -5.53125 -0.1875 -9.84375q-0.09375 -4.3124847 -0.09375 -6.3124847q0 -0.265625 -0.4375 -1.984375q-0.4375 -1.734375 -0.90625 -3.828125q-0.46875 -2.09375 -0.984375 -3.703125q-0.515625 -1.625 0.296875 -0.03125q-3.953125 -0.3125 -10.640625 0.984375q-6.671875 1.28125 -13.53125 3.046875q-6.859375 1.765625 -14.0625 3.015625q-7.1875 1.25 -16.0625 -0.46875q-3.921875 -8.3125 2.328125 -12.953125q6.265625 -4.640625 15.546875 -7.4375q9.296875 -2.796875 21.328125 -4.484375q12.03125 -1.703125 24.890625 -1.5q12.859375 0.203125 25.46875 2.75q12.625 2.53125 22.890625 8.3125q10.28125 5.765625 16.78125 15.296875q6.5 9.51561 6.5 23.48436q0 5.125 -1.703125 10.65625q-1.6875 5.515625 -4.265625 10.875q-2.578125 5.34375 -5.78125 10.203125q-3.203125 4.84375 -6.328125 8.15625q-1.375 1.59375 -4.546875 4.859375q-3.15625 3.265625 -7.1875 7.390625q-4.03125 4.125 -8.53125 8.53125q-4.5 4.390625 -8.5 8.40625q-4.0 4.0 -7.234375 7.140625q-3.21875 3.125 -3.75 3.640625q-0.421875 3.53125 -1.5625 8.0625q-1.140625 4.53125 -4.09375 7.78125q-2.953125 3.25 -7.5625 3.109375q-4.609375 -0.140625 -7.75 -2.359375q-1.5 1.03125 -6.171875 6.265625q-4.65625 5.25 -10.0 10.484375q-5.34375 5.234375 -11.953125 8.765625q-6.609375 3.546875 -16.4375 -0.65625l0 -11.53125l42.265625 -35.328125zm23.46875 -16.390625q5.765625 -2.390625 14.703125 -11.6875q8.9375 -9.3125 14.203125 -20.390625q5.265625 -11.09375 6.34375 -22.1875q1.09375 -11.109375 -2.484375 -19.109375q-3.578125 -7.9999847 -12.21875 -12.35936q-8.625 -4.359375 -20.546875 -2.6875l0 88.42186z" fill-rule="nonzero"></path></g></svg>

