<?xml version="1.0" standalone="no"?>
<!DOCTYPE svg PUBLIC "-//W3C//DTD SVG 1.1//EN" "http://www.w3.org/Graphics/SVG/1.1/DTD/svg11.dtd">
<!-- Created with WaveDrom -->
<svg id="svgcontent_0" xmlns="http://www.w3.org/2000/svg" xmlns:xlink="http://www.w3.org/1999/xlink" height="90" viewBox="0 0 900 90" width="900" overflow="hidden"><style type="text/css">text{font-size:11pt;font-style:normal;font-variant:normal;font-weight:normal;font-stretch:normal;text-align:center;fill-opacity:1;font-family:Helvetica}.muted{fill:#aaa}.warning{fill:#f6b900}.error{fill:#f60000}.info{fill:#0041c4}.success{fill:#00ab00}.h1{font-size:33pt;font-weight:bold}.h2{font-size:27pt;font-weight:bold}.h3{font-size:20pt;font-weight:bold}.h4{font-size:14pt;font-weight:bold}.h5{font-size:11pt;font-weight:bold}.h6{font-size:8pt;font-weight:bold}.s10{color:#000000;display:inline;enable-background:accumulate;fill-opacity:1;fill-rule:nonzero;fill:#ffffff;marker:none;overflow:visible;stroke-width:1px;stroke:none;visibility:visible}.s5{fill:#ffffff;stroke:none}.s1{fill:none;stroke-dasharray:none;stroke-linecap:round;stroke-linejoin:miter;stroke-miterlimit:4;stroke-opacity:1;stroke-width:1;stroke:#000000}.s2{fill:none;stroke-dasharray:none;stroke-linecap:round;stroke-linejoin:miter;stroke-miterlimit:4;stroke-opacity:1;stroke-width:0.5;stroke:#000000}.s6{color:#000000;display:inline;enable-background:accumulate;fill-opacity:1;fill-rule:nonzero;fill:#ffffb4;marker:none;overflow:visible;stroke-width:1px;stroke:none;visibility:visible}.s7{color:#000000;display:inline;enable-background:accumulate;fill-opacity:1;fill-rule:nonzero;fill:#ffe0b9;marker:none;overflow:visible;stroke-width:1px;stroke:none;visibility:visible}.s8{color:#000000;display:inline;enable-background:accumulate;fill-opacity:1;fill-rule:nonzero;fill:#b9e0ff;marker:none;overflow:visible;stroke-width:1px;stroke:none;visibility:visible}.s4{color:#000000;display:inline;fill:none;marker:none;overflow:visible;stroke-dasharray:none;stroke-dashoffset:0;stroke-linecap:round;stroke-linejoin:miter;stroke-miterlimit:4;stroke-opacity:1;stroke-width:1;stroke:#000000;visibility:visible}.s9{fill-opacity:1;fill:#000000;stroke:none}.s3{color:#000000;display:inline;enable-background:accumulate;fill:none;marker:none;overflow:visible;stroke-dasharray:1, 3;stroke-dashoffset:0;stroke-linecap:round;stroke-linejoin:miter;stroke-miterlimit:4;stroke-opacity:1;stroke-width:1;stroke:#000000;visibility:visible}</style><defs><g id="socket"><rect height="20" width="10" x="4" y="15"/></g><g id="pclk"><path class="s1" d="M 0,20 0,0 10,0"/></g><g id="nclk"><path class="s1" d="m 0,0 0,20 10,0"/></g><g id="000"><path class="s1" d="m 0,20 10,0"/></g><g id="0m0"><path class="s1" d="m 0,20 1,0 3,-10 3,10 3,0"/></g><g id="0m1"><path class="s1" d="M 0,20 1,20 7,0 10,0"/></g><g id="0mx"><path class="s1" d="M 1,20 7,0 10,0"/><path class="s2" d="M 10,15 5,20"/><path class="s2" d="M 10,10 2,18"/><path class="s2" d="M 10,5 4,11"/><path class="s2" d="M 10,0 6,4"/><path class="s1" d="m 0,20 10,0"/></g><g id="0md"><path class="s3" d="m 1,20 9,0"/><path class="s1" d="m 0,20 1,0"/></g><g id="0mu"><path class="s1" d="m 0,20 1,0 C 2,13 5,0 10,0"/></g><g id="0mz"><path class="s1" d="m 0,20 1,0 C 3,14 7,10 10,10"/></g><g id="111"><path class="s1" d="M 0,0 10,0"/></g><g id="1m0"><path class="s1" d="m 0,0 1,0 6,20 3,0"/></g><g id="1m1"><path class="s1" d="M 0,0 1,0 4,10 7,0 10,0"/></g><g id="1mx"><path class="s1" d="m 1,0 6,20 3,0"/><path class="s1" d="M 0,0 10,0"/><path class="s2" d="M 10,15 6.5,18.5"/><path class="s2" d="M 10,10 5.5,14.5"/><path class="s2" d="M 10,5 4.5,10.5"/><path class="s2" d="M 10,0 3,7"/><path class="s2" d="M 2,3 5,0"/></g><g id="1md"><path class="s1" d="m 0,0 1,0 c 1,7 4,20 9,20"/></g><g id="1mu"><path class="s1" d="M 0,0 1,0"/><path class="s3" d="m 1,0 9,0"/></g><g id="1mz"><path class="s1" d="m 0,0 1,0 c 2,4 6,10 9,10"/></g><g id="xxx"><path class="s1" d="m 0,20 10,0"/><path class="s1" d="M 0,0 10,0"/><path class="s2" d="M 0,5 5,0"/><path class="s2" d="M 0,10 10,0"/><path class="s2" d="M 0,15 10,5"/><path class="s2" d="M 0,20 10,10"/><path class="s2" d="m 5,20 5,-5"/></g><g id="xm0"><path class="s1" d="M 0,0 1,0 7,20"/><path class="s1" d="m 0,20 10,0"/><path class="s2" d="M 0,5 2,3"/><path class="s2" d="M 0,10 3,7"/><path class="s2" d="M 0,15 4,11"/><path class="s2" d="M 0,20 5,15"/><path class="s2" d="M 5,20 6,19"/></g><g id="xm1"><path class="s1" d="M 0,0 10,0"/><path class="s1" d="M 0,20 1,20 7,0"/><path class="s2" d="M 0,5 5,0"/><path class="s2" d="M 0,10 6,4"/><path class="s2" d="M 0,15 3,12"/><path class="s2" d="M 0,20 1,19"/></g><g id="xmx"><path class="s1" d="m 0,20 10,0"/><path class="s1" d="M 0,0 10,0"/><path class="s2" d="M 0,5 5,0"/><path class="s2" d="M 0,10 10,0"/><path class="s2" d="M 0,15 10,5"/><path class="s2" d="M 0,20 10,10"/><path class="s2" d="m 5,20 5,-5"/></g><g id="xmd"><path class="s1" d="m 0,0 1,0 c 1,7 4,20 9,20"/><path class="s1" d="m 0,20 10,0"/><path class="s2" d="M 0,5 1.5,3.5"/><path class="s2" d="M 0,10 2.5,7.5"/><path class="s2" d="M 0,15 3.5,11.5"/><path class="s2" d="M 0,20 5,15"/><path class="s2" d="M 5,20 7,18"/></g><g id="xmu"><path class="s1" d="M 0,0 10,0"/><path class="s1" d="m 0,20 1,0 C 2,13 5,0 10,0"/><path class="s2" d="M 0,5 5,0"/><path class="s2" d="M 0,10 5,5"/><path class="s2" d="M 0,15 2,13"/><path class="s2" d="M 0,20 1,19"/></g><g id="xmz"><path class="s1" d="m 0,0 1,0 c 2,6 6,10 9,10"/><path class="s1" d="m 0,20 1,0 C 3,14 7,10 10,10"/><path class="s2" d="M 0,5 2,3"/><path class="s2" d="M 0,10 4,6"/><path class="s2" d="m 0,15.5 6,-7"/><path class="s2" d="M 0,20 1,19"/></g><g id="ddd"><path class="s3" d="m 0,20 10,0"/></g><g id="dm0"><path class="s3" d="m 0,20 7,0"/><path class="s1" d="m 7,20 3,0"/></g><g id="dm1"><path class="s1" d="M 0,20 1,20 7,0 10,0"/></g><g id="dmx"><path class="s1" d="M 1,20 7,0 10,0"/><path class="s2" d="M 10,15 5,20"/><path class="s2" d="M 10,10 1.5,18.5"/><path class="s2" d="M 10,5 4,11"/><path class="s2" d="M 10,0 6,4"/><path class="s1" d="m 0,20 10,0"/></g><g id="dmd"><path class="s3" d="m 0,20 10,0"/></g><g id="dmu"><path class="s1" d="m 0,20 1,0 C 2,13 5,0 10,0"/></g><g id="dmz"><path class="s1" d="m 0,20 1,0 C 3,14 7,10 10,10"/></g><g id="uuu"><path class="s3" d="M 0,0 10,0"/></g><g id="um0"><path class="s1" d="m 0,0 1,0 6,20 3,0"/></g><g id="um1"><path class="s3" d="M 0,0 7,0"/><path class="s1" d="m 7,0 3,0"/></g><g id="umx"><path class="s1" d="M 1.4771574,0 7,20 l 3,0"/><path class="s1" d="M 0,0 10,0"/><path class="s2" d="M 10,15 6.5,18.5"/><path class="s2" d="M 10,10 5.5,14.5"/><path class="s2" d="M 10,5 4.5,10.5"/><path class="s2" d="M 10,0 3.5,6.5"/><path class="s2" d="M 2.463621,2.536379 5,0"/></g><g id="umd"><path class="s1" d="m 0,0 1,0 c 1,7 4,20 9,20"/></g><g id="umu"><path class="s3" d="M 0,0 10,0"/></g><g id="umz"><path class="s4" d="m 0,0 1,0 c 2,6 6,10 9,10"/></g><g id="zzz"><path class="s1" d="m 0,10 10,0"/></g><g id="zm0"><path class="s1" d="m 0,10 1,0 4,10 5,0"/></g><g id="zm1"><path class="s1" d="M 0,10 1,10 5,0 10,0"/></g><g id="zmx"><path class="s1" d="m 1,10 4,10 5,0"/><path class="s1" d="M 0,10 1,10 5,0 10,0"/><path class="s2" d="M 10,15 5,20"/><path class="s2" d="M 10,10 4,16"/><path class="s2" d="M 10,5 2.5,12.5"/><path class="s2" d="M 10,0 2,8"/></g><g id="zmd"><path class="s1" d="m 0,10 1,0 c 2,6 6,10 9,10"/></g><g id="zmu"><path class="s1" d="m 0,10 1,0 C 3,4 7,0 10,0"/></g><g id="zmz"><path class="s1" d="m 0,10 10,0"/></g><g id="gap"><path class="s5" d="m 7,-2 -4,0 c -5,0 -5,24 -10,24 l 4,0 C 2,22 2,-2 7,-2 z"/><path class="s1" d="M -7,22 C -2,22 -2,-2 3,-2"/><path class="s1" d="M -3,22 C 2,22 2,-2 7,-2"/></g><g id="0mv-3"><path class="s6" d="m 7,0 3,0 0,20 -9,0 z"/><path class="s1" d="M 1,20 7,0 10,0"/><path class="s1" d="m 0,20 10,0"/></g><g id="1mv-3"><path class="s6" d="m 1,0 9,0 0,20 -3,0 z"/><path class="s1" d="m 1,0 6,20 3,0"/><path class="s1" d="M 0,0 10,0"/></g><g id="xmv-3"><path class="s6" d="M 7,0 10,0 10,20 7,20 4,10 z"/><path class="s1" d="M 0,20 1,20 7,0 10,0"/><path class="s1" d="m 0,0 1,0 6,20 3,0"/><path class="s2" d="M 0,5 2,3"/><path class="s2" d="M 0,10 3,7"/><path class="s2" d="M 0,15 3,12"/><path class="s2" d="M 0,20 1,19"/></g><g id="dmv-3"><path class="s6" d="m 7,0 3,0 0,20 -9,0 z"/><path class="s1" d="M 1,20 7,0 10,0"/><path class="s1" d="m 0,20 10,0"/></g><g id="umv-3"><path class="s6" d="m 1,0 9,0 0,20 -3,0 z"/><path class="s1" d="m 1,0 6,20 3,0"/><path class="s1" d="M 0,0 10,0"/></g><g id="zmv-3"><path class="s6" d="M 5,0 10,0 10,20 5,20 1,10 z"/><path class="s1" d="m 1,10 4,10 5,0"/><path class="s1" d="M 0,10 1,10 5,0 10,0"/></g><g id="vvv-3"><path class="s6" d="M 10,20 0,20 0,0 10,0"/><path class="s1" d="m 0,20 10,0"/><path class="s1" d="M 0,0 10,0"/></g><g id="vm0-3"><path class="s6" d="m 0,20 0,-20 1.000687,-0.00391 6,20"/><path class="s1" d="m 0,0 1.000687,-0.00391 6,20"/><path class="s1" d="m 0,20 10.000687,-0.0039"/></g><g id="vm1-3"><path class="s6" d="M 0,0 0,20 1,20 7,0"/><path class="s1" d="M 0,0 10,0"/><path class="s1" d="M 0,20 1,20 7,0"/></g><g id="vmx-3"><path class="s6" d="M 0,0 0,20 1,20 4,10 1,0"/><path class="s1" d="m 0,0 1,0 6,20 3,0"/><path class="s1" d="M 0,20 1,20 7,0 10,0"/><path class="s2" d="M 10,15 6.5,18.5"/><path class="s2" d="M 10,10 5.5,14.5"/><path class="s2" d="M 10,5 4,11"/><path class="s2" d="M 10,0 6,4"/></g><g id="vmd-3"><path class="s6" d="m 0,0 0,20 10,0 C 5,20 2,7 1,0"/><path class="s1" d="m 0,0 1,0 c 1,7 4,20 9,20"/><path class="s1" d="m 0,20 10,0"/></g><g id="vmu-3"><path class="s6" d="m 0,0 0,20 1,0 C 2,13 5,0 10,0"/><path class="s1" d="m 0,20 1,0 C 2,13 5,0 10,0"/><path class="s1" d="M 0,0 10,0"/></g><g id="vmz-3"><path class="s6" d="M 0,0 1,0 C 3,6 7,10 10,10 7,10 3,14 1,20 L 0,20"/><path class="s1" d="m 0,0 1,0 c 2,6 6,10 9,10"/><path class="s1" d="m 0,20 1,0 C 3,14 7,10 10,10"/></g><g id="vmv-3-3"><path class="s6" d="M 7,0 10,0 10,20 7,20 4,10 z"/><path class="s6" d="M 1,0 0,0 0,20 1,20 4,10 z"/><path class="s1" d="m 0,0 1,0 6,20 3,0"/><path class="s1" d="M 0,20 1,20 7,0 10,0"/></g><g id="vmv-3-4"><path class="s7" d="M 7,0 10,0 10,20 7,20 4,10 z"/><path class="s6" d="M 1,0 0,0 0,20 1,20 4,10 z"/><path class="s1" d="m 0,0 1,0 6,20 3,0"/><path class="s1" d="M 0,20 1,20 7,0 10,0"/></g><g id="vmv-3-5"><path class="s8" d="M 7,0 10,0 10,20 7,20 4,10 z"/><path class="s6" d="M 1,0 0,0 0,20 1,20 4,10 z"/><path class="s1" d="m 0,0 1,0 6,20 3,0"/><path class="s1" d="M 0,20 1,20 7,0 10,0"/></g><g id="vmv-4-3"><path class="s6" d="M 7,0 10,0 10,20 7,20 4,10 z"/><path class="s7" d="M 1,0 0,0 0,20 1,20 4,10 z"/><path class="s1" d="m 0,0 1,0 6,20 3,0"/><path class="s1" d="M 0,20 1,20 7,0 10,0"/></g><g id="vmv-4-4"><path class="s7" d="M 7,0 10,0 10,20 7,20 4,10 z"/><path class="s7" d="M 1,0 0,0 0,20 1,20 4,10 z"/><path class="s1" d="m 0,0 1,0 6,20 3,0"/><path class="s1" d="M 0,20 1,20 7,0 10,0"/></g><g id="vmv-4-5"><path class="s8" d="M 7,0 10,0 10,20 7,20 4,10 z"/><path class="s7" d="M 1,0 0,0 0,20 1,20 4,10 z"/><path class="s1" d="m 0,0 1,0 6,20 3,0"/><path class="s1" d="M 0,20 1,20 7,0 10,0"/></g><g id="vmv-5-3"><path class="s6" d="M 7,0 10,0 10,20 7,20 4,10 z"/><path class="s8" d="M 1,0 0,0 0,20 1,20 4,10 z"/><path class="s1" d="m 0,0 1,0 6,20 3,0"/><path class="s1" d="M 0,20 1,20 7,0 10,0"/></g><g id="vmv-5-4"><path class="s7" d="M 7,0 10,0 10,20 7,20 4,10 z"/><path class="s8" d="M 1,0 0,0 0,20 1,20 4,10 z"/><path class="s1" d="m 0,0 1,0 6,20 3,0"/><path class="s1" d="M 0,20 1,20 7,0 10,0"/></g><g id="vmv-5-5"><path class="s8" d="M 7,0 10,0 10,20 7,20 4,10 z"/><path class="s8" d="M 1,0 0,0 0,20 1,20 4,10 z"/><path class="s1" d="m 0,0 1,0 6,20 3,0"/><path class="s1" d="M 0,20 1,20 7,0 10,0"/></g><g id="0mv-4"><path class="s7" d="m 7,0 3,0 0,20 -9,0 z"/><path class="s1" d="M 1,20 7,0 10,0"/><path class="s1" d="m 0,20 10,0"/></g><g id="1mv-4"><path class="s7" d="m 1,0 9,0 0,20 -3,0 z"/><path class="s1" d="m 1,0 6,20 3,0"/><path class="s1" d="M 0,0 10,0"/></g><g id="xmv-4"><path class="s7" d="M 7,0 10,0 10,20 7,20 4,10 z"/><path class="s1" d="M 0,20 1,20 7,0 10,0"/><path class="s1" d="m 0,0 1,0 6,20 3,0"/><path class="s2" d="M 0,5 2,3"/><path class="s2" d="M 0,10 3,7"/><path class="s2" d="M 0,15 4,11"/><path class="s2" d="M 0,20 1,19"/></g><g id="dmv-4"><path class="s7" d="m 7,0 3,0 0,20 -9,0 z"/><path class="s1" d="M 1,20 7,0 10,0"/><path class="s1" d="m 0,20 10,0"/></g><g id="umv-4"><path class="s7" d="m 1,0 9,0 0,20 -3,0 z"/><path class="s1" d="m 1,0 6,20 3,0"/><path class="s1" d="M 0,0 10,0"/></g><g id="zmv-4"><path class="s7" d="M 5,0 10,0 10,20 5,20 1,10 z"/><path class="s1" d="m 1,10 4,10 5,0"/><path class="s1" d="M 0,10 1,10 5,0 10,0"/></g><g id="0mv-5"><path class="s8" d="m 7,0 3,0 0,20 -9,0 z"/><path class="s1" d="M 1,20 7,0 10,0"/><path class="s1" d="m 0,20 10,0"/></g><g id="1mv-5"><path class="s8" d="m 1,0 9,0 0,20 -3,0 z"/><path class="s1" d="m 1,0 6,20 3,0"/><path class="s1" d="M 0,0 10,0"/></g><g id="xmv-5"><path class="s8" d="M 7,0 10,0 10,20 7,20 4,10 z"/><path class="s1" d="M 0,20 1,20 7,0 10,0"/><path class="s1" d="m 0,0 1,0 6,20 3,0"/><path class="s2" d="M 0,5 2,3"/><path class="s2" d="M 0,10 3,7"/><path class="s2" d="M 0,15 4,11"/><path class="s2" d="M 0,20 1,19"/></g><g id="dmv-5"><path class="s8" d="m 7,0 3,0 0,20 -9,0 z"/><path class="s1" d="M 1,20 7,0 10,0"/><path class="s1" d="m 0,20 10,0"/></g><g id="umv-5"><path class="s8" d="m 1,0 9,0 0,20 -3,0 z"/><path class="s1" d="m 1,0 6,20 3,0"/><path class="s1" d="M 0,0 10,0"/></g><g id="zmv-5"><path class="s8" d="M 5,0 10,0 10,20 5,20 1,10 z"/><path class="s1" d="m 1,10 4,10 5,0"/><path class="s1" d="M 0,10 1,10 5,0 10,0"/></g><g id="vvv-4"><path class="s7" d="M 10,20 0,20 0,0 10,0"/><path class="s1" d="m 0,20 10,0"/><path class="s1" d="M 0,0 10,0"/></g><g id="vm0-4"><path class="s7" d="M 0,20 0,0 1,0 7,20"/><path class="s1" d="M 0,0 1,0 7,20"/><path class="s1" d="m 0,20 10,0"/></g><g id="vm1-4"><path class="s7" d="M 0,0 0,20 1,20 7,0"/><path class="s1" d="M 0,0 10,0"/><path class="s1" d="M 0,20 1,20 7,0"/></g><g id="vmx-4"><path class="s7" d="M 0,0 0,20 1,20 4,10 1,0"/><path class="s1" d="m 0,0 1,0 6,20 3,0"/><path class="s1" d="M 0,20 1,20 7,0 10,0"/><path class="s2" d="M 10,15 6.5,18.5"/><path class="s2" d="M 10,10 5.5,14.5"/><path class="s2" d="M 10,5 4,11"/><path class="s2" d="M 10,0 6,4"/></g><g id="vmd-4"><path class="s7" d="m 0,0 0,20 10,0 C 5,20 2,7 1,0"/><path class="s1" d="m 0,0 1,0 c 1,7 4,20 9,20"/><path class="s1" d="m 0,20 10,0"/></g><g id="vmu-4"><path class="s7" d="m 0,0 0,20 1,0 C 2,13 5,0 10,0"/><path class="s1" d="m 0,20 1,0 C 2,13 5,0 10,0"/><path class="s1" d="M 0,0 10,0"/></g><g id="vmz-4"><path class="s7" d="M 0,0 1,0 C 3,6 7,10 10,10 7,10 3,14 1,20 L 0,20"/><path class="s1" d="m 0,0 1,0 c 2,6 6,10 9,10"/><path class="s1" d="m 0,20 1,0 C 3,14 7,10 10,10"/></g><g id="vvv-5"><path class="s8" d="M 10,20 0,20 0,0 10,0"/><path class="s1" d="m 0,20 10,0"/><path class="s1" d="M 0,0 10,0"/></g><g id="vm0-5"><path class="s8" d="M 0,20 0,0 1,0 7,20"/><path class="s1" d="M 0,0 1,0 7,20"/><path class="s1" d="m 0,20 10,0"/></g><g id="vm1-5"><path class="s8" d="M 0,0 0,20 1,20 7,0"/><path class="s1" d="M 0,0 10,0"/><path class="s1" d="M 0,20 1,20 7,0"/></g><g id="vmx-5"><path class="s8" d="M 0,0 0,20 1,20 4,10 1,0"/><path class="s1" d="m 0,0 1,0 6,20 3,0"/><path class="s1" d="M 0,20 1,20 7,0 10,0"/><path class="s2" d="M 10,15 6.5,18.5"/><path class="s2" d="M 10,10 5.5,14.5"/><path class="s2" d="M 10,5 4,11"/><path class="s2" d="M 10,0 6,4"/></g><g id="vmd-5"><path class="s8" d="m 0,0 0,20 10,0 C 5,20 2,7 1,0"/><path class="s1" d="m 0,0 1,0 c 1,7 4,20 9,20"/><path class="s1" d="m 0,20 10,0"/></g><g id="vmu-5"><path class="s8" d="m 0,0 0,20 1,0 C 2,13 5,0 10,0"/><path class="s1" d="m 0,20 1,0 C 2,13 5,0 10,0"/><path class="s1" d="M 0,0 10,0"/></g><g id="vmz-5"><path class="s8" d="M 0,0 1,0 C 3,6 7,10 10,10 7,10 3,14 1,20 L 0,20"/><path class="s1" d="m 0,0 1,0 c 2,6 6,10 9,10"/><path class="s1" d="m 0,20 1,0 C 3,14 7,10 10,10"/></g><g id="Pclk"><path class="s9" d="M -3,12 0,3 3,12 C 1,11 -1,11 -3,12 z"/><path class="s1" d="M 0,20 0,0 10,0"/></g><g id="Nclk"><path class="s9" d="M -3,8 0,17 3,8 C 1,9 -1,9 -3,8 z"/><path class="s1" d="m 0,0 0,20 10,0"/></g><g id="vvv-2"><path class="s10" d="M 10,20 0,20 0,0 10,0"/><path class="s1" d="m 0,20 10,0"/><path class="s1" d="M 0,0 10,0"/></g><g id="vm0-2"><path class="s10" d="m 0,20 0,-20 1.000687,-0.00391 5,20"/><path class="s1" d="m 0,0 1.000687,-0.00391 6,20"/><path class="s1" d="m 0,20 10.000687,-0.0039"/></g><g id="vm1-2"><path class="s10" d="M 0,0 0,20 3,20 9,0"/><path class="s1" d="M 0,0 10,0"/><path class="s1" d="M 0,20 1,20 7,0"/></g><g id="vmx-2"><path class="s10" d="M 0,0 0,20 1,20 4,10 1,0"/><path class="s1" d="m 0,0 1,0 6,20 3,0"/><path class="s1" d="M 0,20 1,20 7,0 10,0"/><path class="s2" d="M 10,15 6.5,18.5"/><path class="s2" d="M 10,10 5.5,14.5"/><path class="s2" d="M 10,5 4,11"/><path class="s2" d="M 10,0 6,4"/></g><g id="vmd-2"><path class="s10" d="m 0,0 0,20 10,0 C 5,20 2,7 1,0"/><path class="s1" d="m 0,0 1,0 c 1,7 4.0217106,19.565788 9,20"/><path class="s1" d="m 0,20 10,0"/></g><g id="vmu-2"><path class="s10" d="m 0,0 0,20 1,0 C 2,13 5,0 10,0"/><path class="s1" d="m 0,20 1,0 C 2,13 5,0 10,0"/><path class="s1" d="M 0,0 10,0"/></g><g id="vmz-2"><path class="s10" d="M 0,0 1,0 C 3,6 7,10 10,10 7,10 3,14 1,20 L 0,20"/><path class="s1" d="m 0,0 1,0 c 2,6 6,10 9,10"/><path class="s1" d="m 0,20 1,0 C 3,14 7,10 10,10"/></g><g id="0mv-2"><path class="s10" d="m 7,0 3,0 0,20 -9,0 z"/><path class="s1" d="M 1,20 7,0 10,0"/><path class="s1" d="m 0,20 10,0"/></g><g id="1mv-2"><path class="s10" d="m 1,0 9,0 0,20 -3,0 z"/><path class="s1" d="m 1,0 6,20 3,0"/><path class="s1" d="M 0,0 10,0"/></g><g id="xmv-2"><path class="s10" d="M 7,0 10,0 10,20 7,20 4,10 z"/><path class="s1" d="M 0,20 1,20 7,0 10,0"/><path class="s1" d="m 0,0 1,0 6,20 3,0"/><path class="s2" d="M 0,5 2,3"/><path class="s2" d="M 0,10 3,7"/><path class="s2" d="M 0,15 4,11"/><path class="s2" d="M 0,20 1,19"/></g><g id="dmv-2"><path class="s10" d="m 7,0 3,0 0,20 -9,0 z"/><path class="s1" d="M 1,20 7,0 10,0"/><path class="s1" d="m 0,20 10,0"/></g><g id="umv-2"><path class="s10" d="m 1,0 9,0 0,20 -3,0 z"/><path class="s1" d="m 1,0 6,20 3,0"/><path class="s1" d="M 0,0 10,0"/></g><g id="zmv-2"><path class="s10" d="M 5,0 10,0 10,20 5,20 1,10 z"/><path class="s1" d="m 1,10 4,10 5,0"/><path class="s1" d="M 0,10 1,10 5,0 10,0"/></g><g id="vmv-3-2"><path class="s10" d="M 7,0 10,0 10,20 7,20 4,10 z"/><path class="s6" d="M 1,0 0,0 0,20 1,20 4,10 z"/><path class="s1" d="m 0,0 1,0 6,20 3,0"/><path class="s1" d="M 0,20 1,20 7,0 10,0"/></g><g id="vmv-4-2"><path class="s10" d="M 7,0 10,0 10,20 7,20 4,10 z"/><path class="s7" d="M 1,0 0,0 0,20 1,20 4,10 z"/><path class="s1" d="m 0,0 1,0 6,20 3,0"/><path class="s1" d="M 0,20 1,20 7,0 10,0"/></g><g id="vmv-5-2"><path class="s10" d="M 7,0 10,0 10,20 7,20 4,10 z"/><path class="s8" d="M 1,0 0,0 0,20 1,20 4,10 z"/><path class="s1" d="m 0,0 1,0 6,20 3,0"/><path class="s1" d="M 0,20 1,20 7,0 10,0"/></g><g id="vmv-2-3"><path class="s6" d="M 7,0 10,0 10,20 7,20 4,10 z"/><path class="s10" d="M 1,0 0,0 0,20 1,20 4,10 z"/><path class="s1" d="m 0,0 1,0 6,20 3,0"/><path class="s1" d="M 0,20 1,20 7,0 10,0"/></g><g id="vmv-2-4"><path class="s7" d="M 7,0 10,0 10,20 7,20 4,10 z"/><path class="s10" d="M 1,0 0,0 0,20 1,20 4,10 z"/><path class="s1" d="m 0,0 1,0 6,20 3,0"/><path class="s1" d="M 0,20 1,20 7,0 10,0"/></g><g id="vmv-2-5"><path class="s8" d="M 7,0 10,0 10,20 7,20 4,10 z"/><path class="s10" d="M 1,0 0,0 0,20 1,20 4,10 z"/><path class="s1" d="m 0,0 1,0 6,20 3,0"/><path class="s1" d="M 0,20 1,20 7,0 10,0"/></g><g id="vmv-2-2"><path class="s10" d="M 7,0 10,0 10,20 7,20 4,10 z"/><path class="s10" d="M 1,0 0,0 0,20 1,20 4,10 z"/><path class="s1" d="m 0,0 1,0 6,20 3,0"/><path class="s1" d="M 0,20 1,20 7,0 10,0"/></g><marker id="arrowhead" markerHeight="7" markerWidth="10" markerUnits="strokeWidth" viewBox="0 -4 11 8" refX="15" refY="0" orient="auto" style="fill: rgb(0, 65, 196);"><path d="M0 -4 11 0 0 4z"/></marker><marker id="arrowtail" markerHeight="7" markerWidth="10" markerUnits="strokeWidth" viewBox="-11 -4 11 8" refX="-15" refY="0" orient="auto" style="fill: rgb(0, 65, 196);"><path d="M0 -4 -11 0 0 4z"/></marker></defs><g id="waves_0"><g id="lanes_0" transform="translate(50.5, 0.5)"><g id="gmarks_0"><path id="gmark_0_0" d="m 0,0 0,90" style="stroke: rgb(136, 136, 136); stroke-width: 0.5px; stroke-dasharray: 1px, 3px;"/><path id="gmark_1_0" d="m 20,0 0,90" style="stroke: rgb(136, 136, 136); stroke-width: 0.5px; stroke-dasharray: 1px, 3px;"/><path id="gmark_2_0" d="m 40,0 0,90" style="stroke: rgb(136, 136, 136); stroke-width: 0.5px; stroke-dasharray: 1px, 3px;"/><path id="gmark_3_0" d="m 60,0 0,90" style="stroke: rgb(136, 136, 136); stroke-width: 0.5px; stroke-dasharray: 1px, 3px;"/><path id="gmark_4_0" d="m 80,0 0,90" style="stroke: rgb(136, 136, 136); stroke-width: 0.5px; stroke-dasharray: 1px, 3px;"/><path id="gmark_5_0" d="m 100,0 0,90" style="stroke: rgb(136, 136, 136); stroke-width: 0.5px; stroke-dasharray: 1px, 3px;"/><path id="gmark_6_0" d="m 120,0 0,90" style="stroke: rgb(136, 136, 136); stroke-width: 0.5px; stroke-dasharray: 1px, 3px;"/><path id="gmark_7_0" d="m 140,0 0,90" style="stroke: rgb(136, 136, 136); stroke-width: 0.5px; stroke-dasharray: 1px, 3px;"/><path id="gmark_8_0" d="m 160,0 0,90" style="stroke: rgb(136, 136, 136); stroke-width: 0.5px; stroke-dasharray: 1px, 3px;"/><path id="gmark_9_0" d="m 180,0 0,90" style="stroke: rgb(136, 136, 136); stroke-width: 0.5px; stroke-dasharray: 1px, 3px;"/><path id="gmark_10_0" d="m 200,0 0,90" style="stroke: rgb(136, 136, 136); stroke-width: 0.5px; stroke-dasharray: 1px, 3px;"/><path id="gmark_11_0" d="m 220,0 0,90" style="stroke: rgb(136, 136, 136); stroke-width: 0.5px; stroke-dasharray: 1px, 3px;"/><path id="gmark_12_0" d="m 240,0 0,90" style="stroke: rgb(136, 136, 136); stroke-width: 0.5px; stroke-dasharray: 1px, 3px;"/><path id="gmark_13_0" d="m 260,0 0,90" style="stroke: rgb(136, 136, 136); stroke-width: 0.5px; stroke-dasharray: 1px, 3px;"/><path id="gmark_14_0" d="m 280,0 0,90" style="stroke: rgb(136, 136, 136); stroke-width: 0.5px; stroke-dasharray: 1px, 3px;"/><path id="gmark_15_0" d="m 300,0 0,90" style="stroke: rgb(136, 136, 136); stroke-width: 0.5px; stroke-dasharray: 1px, 3px;"/><path id="gmark_16_0" d="m 320,0 0,90" style="stroke: rgb(136, 136, 136); stroke-width: 0.5px; stroke-dasharray: 1px, 3px;"/><path id="gmark_17_0" d="m 340,0 0,90" style="stroke: rgb(136, 136, 136); stroke-width: 0.5px; stroke-dasharray: 1px, 3px;"/><path id="gmark_18_0" d="m 360,0 0,90" style="stroke: rgb(136, 136, 136); stroke-width: 0.5px; stroke-dasharray: 1px, 3px;"/><path id="gmark_19_0" d="m 380,0 0,90" style="stroke: rgb(136, 136, 136); stroke-width: 0.5px; stroke-dasharray: 1px, 3px;"/><path id="gmark_20_0" d="m 400,0 0,90" style="stroke: rgb(136, 136, 136); stroke-width: 0.5px; stroke-dasharray: 1px, 3px;"/><path id="gmark_21_0" d="m 420,0 0,90" style="stroke: rgb(136, 136, 136); stroke-width: 0.5px; stroke-dasharray: 1px, 3px;"/><path id="gmark_22_0" d="m 440,0 0,90" style="stroke: rgb(136, 136, 136); stroke-width: 0.5px; stroke-dasharray: 1px, 3px;"/><path id="gmark_23_0" d="m 460,0 0,90" style="stroke: rgb(136, 136, 136); stroke-width: 0.5px; stroke-dasharray: 1px, 3px;"/><path id="gmark_24_0" d="m 480,0 0,90" style="stroke: rgb(136, 136, 136); stroke-width: 0.5px; stroke-dasharray: 1px, 3px;"/><path id="gmark_25_0" d="m 500,0 0,90" style="stroke: rgb(136, 136, 136); stroke-width: 0.5px; stroke-dasharray: 1px, 3px;"/><path id="gmark_26_0" d="m 520,0 0,90" style="stroke: rgb(136, 136, 136); stroke-width: 0.5px; stroke-dasharray: 1px, 3px;"/><path id="gmark_27_0" d="m 540,0 0,90" style="stroke: rgb(136, 136, 136); stroke-width: 0.5px; stroke-dasharray: 1px, 3px;"/><path id="gmark_28_0" d="m 560,0 0,90" style="stroke: rgb(136, 136, 136); stroke-width: 0.5px; stroke-dasharray: 1px, 3px;"/><path id="gmark_29_0" d="m 580,0 0,90" style="stroke: rgb(136, 136, 136); stroke-width: 0.5px; stroke-dasharray: 1px, 3px;"/><path id="gmark_30_0" d="m 600,0 0,90" style="stroke: rgb(136, 136, 136); stroke-width: 0.5px; stroke-dasharray: 1px, 3px;"/><path id="gmark_31_0" d="m 620,0 0,90" style="stroke: rgb(136, 136, 136); stroke-width: 0.5px; stroke-dasharray: 1px, 3px;"/><path id="gmark_32_0" d="m 640,0 0,90" style="stroke: rgb(136, 136, 136); stroke-width: 0.5px; stroke-dasharray: 1px, 3px;"/><path id="gmark_33_0" d="m 660,0 0,90" style="stroke: rgb(136, 136, 136); stroke-width: 0.5px; stroke-dasharray: 1px, 3px;"/><path id="gmark_34_0" d="m 680,0 0,90" style="stroke: rgb(136, 136, 136); stroke-width: 0.5px; stroke-dasharray: 1px, 3px;"/><path id="gmark_35_0" d="m 700,0 0,90" style="stroke: rgb(136, 136, 136); stroke-width: 0.5px; stroke-dasharray: 1px, 3px;"/><path id="gmark_36_0" d="m 720,0 0,90" style="stroke: rgb(136, 136, 136); stroke-width: 0.5px; stroke-dasharray: 1px, 3px;"/><path id="gmark_37_0" d="m 740,0 0,90" style="stroke: rgb(136, 136, 136); stroke-width: 0.5px; stroke-dasharray: 1px, 3px;"/><path id="gmark_38_0" d="m 760,0 0,90" style="stroke: rgb(136, 136, 136); stroke-width: 0.5px; stroke-dasharray: 1px, 3px;"/><path id="gmark_39_0" d="m 780,0 0,90" style="stroke: rgb(136, 136, 136); stroke-width: 0.5px; stroke-dasharray: 1px, 3px;"/><path id="gmark_40_0" d="m 800,0 0,90" style="stroke: rgb(136, 136, 136); stroke-width: 0.5px; stroke-dasharray: 1px, 3px;"/><path id="gmark_41_0" d="m 820,0 0,90" style="stroke: rgb(136, 136, 136); stroke-width: 0.5px; stroke-dasharray: 1px, 3px;"/><path id="gmark_42_0" d="m 840,0 0,90" style="stroke: rgb(136, 136, 136); stroke-width: 0.5px; stroke-dasharray: 1px, 3px;"/></g><g id="wavelane_0_0" transform="translate(0,5)"><text x="-10" y="15" class="info" text-anchor="end" xml:space="preserve">scl</text><g id="wavelane_draw_0_0" transform="translate(0, 0)"><use xmlns:xlink="http://www.w3.org/1999/xlink" xlink:href="#111" transform="translate(0)"/><use xmlns:xlink="http://www.w3.org/1999/xlink" xlink:href="#111" transform="translate(10)"/><use xmlns:xlink="http://www.w3.org/1999/xlink" xlink:href="#111" transform="translate(20)"/><use xmlns:xlink="http://www.w3.org/1999/xlink" xlink:href="#111" transform="translate(30)"/><use xmlns:xlink="http://www.w3.org/1999/xlink" xlink:href="#1m0" transform="translate(40)"/><use xmlns:xlink="http://www.w3.org/1999/xlink" xlink:href="#000" transform="translate(50)"/><use xmlns:xlink="http://www.w3.org/1999/xlink" xlink:href="#0m1" transform="translate(60)"/><use xmlns:xlink="http://www.w3.org/1999/xlink" xlink:href="#111" transform="translate(70)"/><use xmlns:xlink="http://www.w3.org/1999/xlink" xlink:href="#1m0" transform="translate(80)"/><use xmlns:xlink="http://www.w3.org/1999/xlink" xlink:href="#000" transform="translate(90)"/><use xmlns:xlink="http://www.w3.org/1999/xlink" xlink:href="#0m1" transform="translate(100)"/><use xmlns:xlink="http://www.w3.org/1999/xlink" xlink:href="#111" transform="translate(110)"/><use xmlns:xlink="http://www.w3.org/1999/xlink" xlink:href="#1m0" transform="translate(120)"/><use xmlns:xlink="http://www.w3.org/1999/xlink" xlink:href="#000" transform="translate(130)"/><use xmlns:xlink="http://www.w3.org/1999/xlink" xlink:href="#0m1" transform="translate(140)"/><use xmlns:xlink="http://www.w3.org/1999/xlink" xlink:href="#111" transform="translate(150)"/><use xmlns:xlink="http://www.w3.org/1999/xlink" xlink:href="#1m0" transform="translate(160)"/><use xmlns:xlink="http://www.w3.org/1999/xlink" xlink:href="#000" transform="translate(170)"/><use xmlns:xlink="http://www.w3.org/1999/xlink" xlink:href="#0m1" transform="translate(180)"/><use xmlns:xlink="http://www.w3.org/1999/xlink" xlink:href="#111" transform="translate(190)"/><use xmlns:xlink="http://www.w3.org/1999/xlink" xlink:href="#1m0" transform="translate(200)"/><use xmlns:xlink="http://www.w3.org/1999/xlink" xlink:href="#000" transform="translate(210)"/><use xmlns:xlink="http://www.w3.org/1999/xlink" xlink:href="#0m1" transform="translate(220)"/><use xmlns:xlink="http://www.w3.org/1999/xlink" xlink:href="#111" transform="translate(230)"/><use xmlns:xlink="http://www.w3.org/1999/xlink" xlink:href="#1m0" transform="translate(240)"/><use xmlns:xlink="http://www.w3.org/1999/xlink" xlink:href="#000" transform="translate(250)"/><use xmlns:xlink="http://www.w3.org/1999/xlink" xlink:href="#0m1" transform="translate(260)"/><use xmlns:xlink="http://www.w3.org/1999/xlink" xlink:href="#111" transform="translate(270)"/><use xmlns:xlink="http://www.w3.org/1999/xlink" xlink:href="#1m0" transform="translate(280)"/><use xmlns:xlink="http://www.w3.org/1999/xlink" xlink:href="#000" transform="translate(290)"/><use xmlns:xlink="http://www.w3.org/1999/xlink" xlink:href="#0m1" transform="translate(300)"/><use xmlns:xlink="http://www.w3.org/1999/xlink" xlink:href="#111" transform="translate(310)"/><use xmlns:xlink="http://www.w3.org/1999/xlink" xlink:href="#1m0" transform="translate(320)"/><use xmlns:xlink="http://www.w3.org/1999/xlink" xlink:href="#000" transform="translate(330)"/><use xmlns:xlink="http://www.w3.org/1999/xlink" xlink:href="#0m1" transform="translate(340)"/><use xmlns:xlink="http://www.w3.org/1999/xlink" xlink:href="#111" transform="translate(350)"/><use xmlns:xlink="http://www.w3.org/1999/xlink" xlink:href="#1m0" transform="translate(360)"/><use xmlns:xlink="http://www.w3.org/1999/xlink" xlink:href="#000" transform="translate(370)"/><use xmlns:xlink="http://www.w3.org/1999/xlink" xlink:href="#0m1" transform="translate(380)"/><use xmlns:xlink="http://www.w3.org/1999/xlink" xlink:href="#111" transform="translate(390)"/><use xmlns:xlink="http://www.w3.org/1999/xlink" xlink:href="#1m0" transform="translate(400)"/><use xmlns:xlink="http://www.w3.org/1999/xlink" xlink:href="#000" transform="translate(410)"/><use xmlns:xlink="http://www.w3.org/1999/xlink" xlink:href="#0m1" transform="translate(420)"/><use xmlns:xlink="http://www.w3.org/1999/xlink" xlink:href="#111" transform="translate(430)"/><use xmlns:xlink="http://www.w3.org/1999/xlink" xlink:href="#1m0" transform="translate(440)"/><use xmlns:xlink="http://www.w3.org/1999/xlink" xlink:href="#000" transform="translate(450)"/><use xmlns:xlink="http://www.w3.org/1999/xlink" xlink:href="#0m1" transform="translate(460)"/><use xmlns:xlink="http://www.w3.org/1999/xlink" xlink:href="#111" transform="translate(470)"/><use xmlns:xlink="http://www.w3.org/1999/xlink" xlink:href="#1m0" transform="translate(480)"/><use xmlns:xlink="http://www.w3.org/1999/xlink" xlink:href="#000" transform="translate(490)"/><use xmlns:xlink="http://www.w3.org/1999/xlink" xlink:href="#0m1" transform="translate(500)"/><use xmlns:xlink="http://www.w3.org/1999/xlink" xlink:href="#111" transform="translate(510)"/><use xmlns:xlink="http://www.w3.org/1999/xlink" xlink:href="#1m0" transform="translate(520)"/><use xmlns:xlink="http://www.w3.org/1999/xlink" xlink:href="#000" transform="translate(530)"/><use xmlns:xlink="http://www.w3.org/1999/xlink" xlink:href="#0m1" transform="translate(540)"/><use xmlns:xlink="http://www.w3.org/1999/xlink" xlink:href="#111" transform="translate(550)"/><use xmlns:xlink="http://www.w3.org/1999/xlink" xlink:href="#1m0" transform="translate(560)"/><use xmlns:xlink="http://www.w3.org/1999/xlink" xlink:href="#000" transform="translate(570)"/><use xmlns:xlink="http://www.w3.org/1999/xlink" xlink:href="#0m1" transform="translate(580)"/><use xmlns:xlink="http://www.w3.org/1999/xlink" xlink:href="#111" transform="translate(590)"/><use xmlns:xlink="http://www.w3.org/1999/xlink" xlink:href="#1m0" transform="translate(600)"/><use xmlns:xlink="http://www.w3.org/1999/xlink" xlink:href="#000" transform="translate(610)"/><use xmlns:xlink="http://www.w3.org/1999/xlink" xlink:href="#0m1" transform="translate(620)"/><use xmlns:xlink="http://www.w3.org/1999/xlink" xlink:href="#111" transform="translate(630)"/><use xmlns:xlink="http://www.w3.org/1999/xlink" xlink:href="#1m0" transform="translate(640)"/><use xmlns:xlink="http://www.w3.org/1999/xlink" xlink:href="#000" transform="translate(650)"/><use xmlns:xlink="http://www.w3.org/1999/xlink" xlink:href="#0m1" transform="translate(660)"/><use xmlns:xlink="http://www.w3.org/1999/xlink" xlink:href="#111" transform="translate(670)"/><use xmlns:xlink="http://www.w3.org/1999/xlink" xlink:href="#1m0" transform="translate(680)"/><use xmlns:xlink="http://www.w3.org/1999/xlink" xlink:href="#000" transform="translate(690)"/><use xmlns:xlink="http://www.w3.org/1999/xlink" xlink:href="#0m1" transform="translate(700)"/><use xmlns:xlink="http://www.w3.org/1999/xlink" xlink:href="#111" transform="translate(710)"/><use xmlns:xlink="http://www.w3.org/1999/xlink" xlink:href="#1m0" transform="translate(720)"/><use xmlns:xlink="http://www.w3.org/1999/xlink" xlink:href="#000" transform="translate(730)"/><use xmlns:xlink="http://www.w3.org/1999/xlink" xlink:href="#0m1" transform="translate(740)"/><use xmlns:xlink="http://www.w3.org/1999/xlink" xlink:href="#111" transform="translate(750)"/><use xmlns:xlink="http://www.w3.org/1999/xlink" xlink:href="#1m0" transform="translate(760)"/><use xmlns:xlink="http://www.w3.org/1999/xlink" xlink:href="#000" transform="translate(770)"/><use xmlns:xlink="http://www.w3.org/1999/xlink" xlink:href="#0m1" transform="translate(780)"/><use xmlns:xlink="http://www.w3.org/1999/xlink" xlink:href="#111" transform="translate(790)"/><use xmlns:xlink="http://www.w3.org/1999/xlink" xlink:href="#111" transform="translate(800)"/><use xmlns:xlink="http://www.w3.org/1999/xlink" xlink:href="#111" transform="translate(810)"/><use xmlns:xlink="http://www.w3.org/1999/xlink" xlink:href="#111" transform="translate(820)"/><use xmlns:xlink="http://www.w3.org/1999/xlink" xlink:href="#111" transform="translate(830)"/></g></g><g id="wavelane_1_0" transform="translate(0,35)"><text x="-10" y="15" class="info" text-anchor="end" xml:space="preserve">sda</text><g id="wavelane_draw_1_0" transform="translate(0, 0)"><use xmlns:xlink="http://www.w3.org/1999/xlink" xlink:href="#111" transform="translate(0)"/><use xmlns:xlink="http://www.w3.org/1999/xlink" xlink:href="#111" transform="translate(10)"/><use xmlns:xlink="http://www.w3.org/1999/xlink" xlink:href="#1m0" transform="translate(20)"/><use xmlns:xlink="http://www.w3.org/1999/xlink" xlink:href="#000" transform="translate(30)"/><use xmlns:xlink="http://www.w3.org/1999/xlink" xlink:href="#0mv-3" transform="translate(40)"/><use xmlns:xlink="http://www.w3.org/1999/xlink" xlink:href="#vvv-3" transform="translate(50)"/><use xmlns:xlink="http://www.w3.org/1999/xlink" xlink:href="#vvv-3" transform="translate(60)"/><use xmlns:xlink="http://www.w3.org/1999/xlink" xlink:href="#vvv-3" transform="translate(70)"/><use xmlns:xlink="http://www.w3.org/1999/xlink" xlink:href="#vmv-3-3" transform="translate(80)"/><use xmlns:xlink="http://www.w3.org/1999/xlink" xlink:href="#vvv-3" transform="translate(90)"/><use xmlns:xlink="http://www.w3.org/1999/xlink" xlink:href="#vvv-3" transform="translate(100)"/><use xmlns:xlink="http://www.w3.org/1999/xlink" xlink:href="#vvv-3" transform="translate(110)"/><use xmlns:xlink="http://www.w3.org/1999/xlink" xlink:href="#vmv-3-3" transform="translate(120)"/><use xmlns:xlink="http://www.w3.org/1999/xlink" xlink:href="#vvv-3" transform="translate(130)"/><use xmlns:xlink="http://www.w3.org/1999/xlink" xlink:href="#vvv-3" transform="translate(140)"/><use xmlns:xlink="http://www.w3.org/1999/xlink" xlink:href="#vvv-3" transform="translate(150)"/><use xmlns:xlink="http://www.w3.org/1999/xlink" xlink:href="#vmv-3-3" transform="translate(160)"/><use xmlns:xlink="http://www.w3.org/1999/xlink" xlink:href="#vvv-3" transform="translate(170)"/><use xmlns:xlink="http://www.w3.org/1999/xlink" xlink:href="#vvv-3" transform="translate(180)"/><use xmlns:xlink="http://www.w3.org/1999/xlink" xlink:href="#vvv-3" transform="translate(190)"/><use xmlns:xlink="http://www.w3.org/1999/xlink" xlink:href="#vmv-3-3" transform="translate(200)"/><use xmlns:xlink="http://www.w3.org/1999/xlink" xlink:href="#vvv-3" transform="translate(210)"/><use xmlns:xlink="http://www.w3.org/1999/xlink" xlink:href="#vvv-3" transform="translate(220)"/><use xmlns:xlink="http://www.w3.org/1999/xlink" xlink:href="#vvv-3" transform="translate(230)"/><use xmlns:xlink="http://www.w3.org/1999/xlink" xlink:href="#vmv-3-3" transform="translate(240)"/><use xmlns:xlink="http://www.w3.org/1999/xlink" xlink:href="#vvv-3" transform="translate(250)"/><use xmlns:xlink="http://www.w3.org/1999/xlink" xlink:href="#vvv-3" transform="translate(260)"/><use xmlns:xlink="http://www.w3.org/1999/xlink" xlink:href="#vvv-3" transform="translate(270)"/><use xmlns:xlink="http://www.w3.org/1999/xlink" xlink:href="#vmv-3-3" transform="translate(280)"/><use xmlns:xlink="http://www.w3.org/1999/xlink" xlink:href="#vvv-3" transform="translate(290)"/><use xmlns:xlink="http://www.w3.org/1999/xlink" xlink:href="#vvv-3" transform="translate(300)"/><use xmlns:xlink="http://www.w3.org/1999/xlink" xlink:href="#vvv-3" transform="translate(310)"/><use xmlns:xlink="http://www.w3.org/1999/xlink" xlink:href="#vmv-3-3" transform="translate(320)"/><use xmlns:xlink="http://www.w3.org/1999/xlink" xlink:href="#vvv-3" transform="translate(330)"/><use xmlns:xlink="http://www.w3.org/1999/xlink" xlink:href="#vvv-3" transform="translate(340)"/><use xmlns:xlink="http://www.w3.org/1999/xlink" xlink:href="#vvv-3" transform="translate(350)"/><use xmlns:xlink="http://www.w3.org/1999/xlink" xlink:href="#vmv-3-4" transform="translate(360)"/><use xmlns:xlink="http://www.w3.org/1999/xlink" xlink:href="#vvv-4" transform="translate(370)"/><use xmlns:xlink="http://www.w3.org/1999/xlink" xlink:href="#vvv-4" transform="translate(380)"/><use xmlns:xlink="http://www.w3.org/1999/xlink" xlink:href="#vvv-4" transform="translate(390)"/><use xmlns:xlink="http://www.w3.org/1999/xlink" xlink:href="#vmv-4-3" transform="translate(400)"/><use xmlns:xlink="http://www.w3.org/1999/xlink" xlink:href="#vvv-3" transform="translate(410)"/><use xmlns:xlink="http://www.w3.org/1999/xlink" xlink:href="#vvv-3" transform="translate(420)"/><use xmlns:xlink="http://www.w3.org/1999/xlink" xlink:href="#vvv-3" transform="translate(430)"/><use xmlns:xlink="http://www.w3.org/1999/xlink" xlink:href="#vmv-3-3" transform="translate(440)"/><use xmlns:xlink="http://www.w3.org/1999/xlink" xlink:href="#vvv-3" transform="translate(450)"/><use xmlns:xlink="http://www.w3.org/1999/xlink" xlink:href="#vvv-3" transform="translate(460)"/><use xmlns:xlink="http://www.w3.org/1999/xlink" xlink:href="#vvv-3" transform="translate(470)"/><use xmlns:xlink="http://www.w3.org/1999/xlink" xlink:href="#vmv-3-3" transform="translate(480)"/><use xmlns:xlink="http://www.w3.org/1999/xlink" xlink:href="#vvv-3" transform="translate(490)"/><use xmlns:xlink="http://www.w3.org/1999/xlink" xlink:href="#vvv-3" transform="translate(500)"/><use xmlns:xlink="http://www.w3.org/1999/xlink" xlink:href="#vvv-3" transform="translate(510)"/><use xmlns:xlink="http://www.w3.org/1999/xlink" xlink:href="#vmv-3-3" transform="translate(520)"/><use xmlns:xlink="http://www.w3.org/1999/xlink" xlink:href="#vvv-3" transform="translate(530)"/><use xmlns:xlink="http://www.w3.org/1999/xlink" xlink:href="#vvv-3" transform="translate(540)"/><use xmlns:xlink="http://www.w3.org/1999/xlink" xlink:href="#vvv-3" transform="translate(550)"/><use xmlns:xlink="http://www.w3.org/1999/xlink" xlink:href="#vmv-3-3" transform="translate(560)"/><use xmlns:xlink="http://www.w3.org/1999/xlink" xlink:href="#vvv-3" transform="translate(570)"/><use xmlns:xlink="http://www.w3.org/1999/xlink" xlink:href="#vvv-3" transform="translate(580)"/><use xmlns:xlink="http://www.w3.org/1999/xlink" xlink:href="#vvv-3" transform="translate(590)"/><use xmlns:xlink="http://www.w3.org/1999/xlink" xlink:href="#vmv-3-3" transform="translate(600)"/><use xmlns:xlink="http://www.w3.org/1999/xlink" xlink:href="#vvv-3" transform="translate(610)"/><use xmlns:xlink="http://www.w3.org/1999/xlink" xlink:href="#vvv-3" transform="translate(620)"/><use xmlns:xlink="http://www.w3.org/1999/xlink" xlink:href="#vvv-3" transform="translate(630)"/><use xmlns:xlink="http://www.w3.org/1999/xlink" xlink:href="#vmv-3-3" transform="translate(640)"/><use xmlns:xlink="http://www.w3.org/1999/xlink" xlink:href="#vvv-3" transform="translate(650)"/><use xmlns:xlink="http://www.w3.org/1999/xlink" xlink:href="#vvv-3" transform="translate(660)"/><use xmlns:xlink="http://www.w3.org/1999/xlink" xlink:href="#vvv-3" transform="translate(670)"/><use xmlns:xlink="http://www.w3.org/1999/xlink" xlink:href="#vmv-3-3" transform="translate(680)"/><use xmlns:xlink="http://www.w3.org/1999/xlink" xlink:href="#vvv-3" transform="translate(690)"/><use xmlns:xlink="http://www.w3.org/1999/xlink" xlink:href="#vvv-3" transform="translate(700)"/><use xmlns:xlink="http://www.w3.org/1999/xlink" xlink:href="#vvv-3" transform="translate(710)"/><use xmlns:xlink="http://www.w3.org/1999/xlink" xlink:href="#vmv-3-4" transform="translate(720)"/><use xmlns:xlink="http://www.w3.org/1999/xlink" xlink:href="#vvv-4" transform="translate(730)"/><use xmlns:xlink="http://www.w3.org/1999/xlink" xlink:href="#vvv-4" transform="translate(740)"/><use xmlns:xlink="http://www.w3.org/1999/xlink" xlink:href="#vvv-4" transform="translate(750)"/><use xmlns:xlink="http://www.w3.org/1999/xlink" xlink:href="#vm0-4" transform="translate(760)"/><use xmlns:xlink="http://www.w3.org/1999/xlink" xlink:href="#000" transform="translate(770)"/><use xmlns:xlink="http://www.w3.org/1999/xlink" xlink:href="#000" transform="translate(780)"/><use xmlns:xlink="http://www.w3.org/1999/xlink" xlink:href="#000" transform="translate(790)"/><use xmlns:xlink="http://www.w3.org/1999/xlink" xlink:href="#0m1" transform="translate(800)"/><use xmlns:xlink="http://www.w3.org/1999/xlink" xlink:href="#111" transform="translate(810)"/><text x="64" y="15" text-anchor="middle" xml:space="preserve">a7</text><text x="104" y="15" text-anchor="middle" xml:space="preserve">a6</text><text x="144" y="15" text-anchor="middle" xml:space="preserve">a5</text><text x="184" y="15" text-anchor="middle" xml:space="preserve">a4</text><text x="224" y="15" text-anchor="middle" xml:space="preserve">a3</text><text x="264" y="15" text-anchor="middle" xml:space="preserve">a2</text><text x="304" y="15" text-anchor="middle" xml:space="preserve">a1</text><text x="344" y="15" text-anchor="middle" xml:space="preserve">r/w</text><text x="384" y="15" text-anchor="middle" xml:space="preserve">ack</text><text x="424" y="15" text-anchor="middle" xml:space="preserve">d7</text><text x="464" y="15" text-anchor="middle" xml:space="preserve">d6</text><text x="504" y="15" text-anchor="middle" xml:space="preserve">d5</text><text x="544" y="15" text-anchor="middle" xml:space="preserve">d4</text><text x="584" y="15" text-anchor="middle" xml:space="preserve">d3</text><text x="624" y="15" text-anchor="middle" xml:space="preserve">d2</text><text x="664" y="15" text-anchor="middle" xml:space="preserve">d1</text><text x="704" y="15" text-anchor="middle" xml:space="preserve">d0</text><text x="744" y="15" text-anchor="middle" xml:space="preserve">ack</text></g></g><g id="wavelane_2_0" transform="translate(0,65)"><text x="-10" y="15" class="info" text-anchor="end" xml:space="preserve"/><g id="wavelane_draw_2_0" transform="translate(0, 0)"/></g><g id="wavearcs_0"><path id="gmark_a_b" d="M 4,75 44,75" style="marker-end:url(#arrowhead);marker-start:url(#arrowtail);stroke:#0041c4;stroke-width:1;fill:none"/><rect height="9" style="fill: rgb(255, 255, 255);" width="21.109375" x="13.4453125" y="70"/><text text-anchor="middle" xml:space="preserve" style="font-size: 10px;" x="24" y="78">Start</text><path id="gmark_b_c" d="M 44,75 404,75" style="marker-end:url(#arrowhead);marker-start:url(#arrowtail);stroke:#0041c4;stroke-width:1;fill:none"/><rect height="9" style="fill: rgb(255, 255, 255);" width="68.90625" x="189.546875" y="70"/><text text-anchor="middle" xml:space="preserve" style="font-size: 10px;" x="224" y="78">Device address</text><path id="gmark_c_d" d="M 404,75 764,75" style="marker-end:url(#arrowhead);marker-start:url(#arrowtail);stroke:#0041c4;stroke-width:1;fill:none"/><rect height="9" style="fill: rgb(255, 255, 255);" width="52.796875" x="557.6015625" y="70"/><text text-anchor="middle" xml:space="preserve" style="font-size: 10px;" x="584" y="78">Device data</text><path id="gmark_d_e" d="M 764,75 824,75" style="marker-end:url(#arrowhead);marker-start:url(#arrowtail);stroke:#0041c4;stroke-width:1;fill:none"/><rect height="9" style="fill: rgb(255, 255, 255);" width="20.5625" x="783.71875" y="70"/><text text-anchor="middle" xml:space="preserve" style="font-size: 10px;" x="794" y="78">Stop</text><rect y="71" height="8" style="fill: rgb(255, 255, 255);" x="0.78125" width="6.4375"/><text x="4" y="77" text-anchor="middle" style="font-size: 8px;">a</text><rect y="71" height="8" style="fill: rgb(255, 255, 255);" x="40.78125" width="6.4375"/><text x="44" y="77" text-anchor="middle" style="font-size: 8px;">b</text><rect y="71" height="8" style="fill: rgb(255, 255, 255);" x="401" width="6"/><text x="404" y="77" text-anchor="middle" style="font-size: 8px;">c</text><rect y="71" height="8" style="fill: rgb(255, 255, 255);" x="760.78125" width="6.4375"/><text x="764" y="77" text-anchor="middle" style="font-size: 8px;">d</text><rect y="71" height="8" style="fill: rgb(255, 255, 255);" x="820.78125" width="6.4375"/><text x="824" y="77" text-anchor="middle" style="font-size: 8px;">e</text></g><g id="wavegaps_0"><g id="wavegap_0_0" transform="translate(0,5)"/><g id="wavegap_1_0" transform="translate(0,35)"/><g id="wavegap_2_0" transform="translate(0,65)"/></g></g><g id="groups_0"><g/>
</g></g></svg>